%TF.GenerationSoftware,KiCad,Pcbnew,(5.1.9-0-10_14)*%
%TF.CreationDate,2021-04-17T23:10:34-04:00*%
%TF.ProjectId,BioreactorPCB,42696f72-6561-4637-946f-725043422e6b,rev?*%
%TF.SameCoordinates,Original*%
%TF.FileFunction,Legend,Bot*%
%TF.FilePolarity,Positive*%
%FSLAX46Y46*%
G04 Gerber Fmt 4.6, Leading zero omitted, Abs format (unit mm)*
G04 Created by KiCad (PCBNEW (5.1.9-0-10_14)) date 2021-04-17 23:10:34*
%MOMM*%
%LPD*%
G01*
G04 APERTURE LIST*
%ADD10C,0.300000*%
%ADD11C,0.010000*%
%ADD12C,0.100000*%
%ADD13C,0.150000*%
G04 APERTURE END LIST*
D10*
X72781428Y-80398571D02*
X72710000Y-80470000D01*
X72638571Y-80612857D01*
X72638571Y-80970000D01*
X72710000Y-81112857D01*
X72781428Y-81184285D01*
X72924285Y-81255714D01*
X73067142Y-81255714D01*
X73281428Y-81184285D01*
X74138571Y-80327142D01*
X74138571Y-81255714D01*
X73710000Y-81827142D02*
X73710000Y-82541428D01*
X74138571Y-81684285D02*
X72638571Y-82184285D01*
X74138571Y-82684285D01*
X72781428Y-85291428D02*
X72710000Y-85362857D01*
X72638571Y-85505714D01*
X72638571Y-85862857D01*
X72710000Y-86005714D01*
X72781428Y-86077142D01*
X72924285Y-86148571D01*
X73067142Y-86148571D01*
X73281428Y-86077142D01*
X74138571Y-85220000D01*
X74138571Y-86148571D01*
X73352857Y-87291428D02*
X73424285Y-87505714D01*
X73495714Y-87577142D01*
X73638571Y-87648571D01*
X73852857Y-87648571D01*
X73995714Y-87577142D01*
X74067142Y-87505714D01*
X74138571Y-87362857D01*
X74138571Y-86791428D01*
X72638571Y-86791428D01*
X72638571Y-87291428D01*
X72710000Y-87434285D01*
X72781428Y-87505714D01*
X72924285Y-87577142D01*
X73067142Y-87577142D01*
X73210000Y-87505714D01*
X73281428Y-87434285D01*
X73352857Y-87291428D01*
X73352857Y-86791428D01*
X74038571Y-76155714D02*
X74038571Y-75298571D01*
X74038571Y-75727142D02*
X72538571Y-75727142D01*
X72752857Y-75584285D01*
X72895714Y-75441428D01*
X72967142Y-75298571D01*
X73610000Y-76727142D02*
X73610000Y-77441428D01*
X74038571Y-76584285D02*
X72538571Y-77084285D01*
X74038571Y-77584285D01*
X74278571Y-91178571D02*
X74278571Y-90321428D01*
X74278571Y-90750000D02*
X72778571Y-90750000D01*
X72992857Y-90607142D01*
X73135714Y-90464285D01*
X73207142Y-90321428D01*
X73492857Y-92321428D02*
X73564285Y-92535714D01*
X73635714Y-92607142D01*
X73778571Y-92678571D01*
X73992857Y-92678571D01*
X74135714Y-92607142D01*
X74207142Y-92535714D01*
X74278571Y-92392857D01*
X74278571Y-91821428D01*
X72778571Y-91821428D01*
X72778571Y-92321428D01*
X72850000Y-92464285D01*
X72921428Y-92535714D01*
X73064285Y-92607142D01*
X73207142Y-92607142D01*
X73350000Y-92535714D01*
X73421428Y-92464285D01*
X73492857Y-92321428D01*
X73492857Y-91821428D01*
X74178571Y-96385714D02*
X74178571Y-95528571D01*
X74178571Y-95957142D02*
X72678571Y-95957142D01*
X72892857Y-95814285D01*
X73035714Y-95671428D01*
X73107142Y-95528571D01*
X73750000Y-96957142D02*
X73750000Y-97671428D01*
X74178571Y-96814285D02*
X72678571Y-97314285D01*
X74178571Y-97814285D01*
X72921428Y-100628571D02*
X72850000Y-100700000D01*
X72778571Y-100842857D01*
X72778571Y-101200000D01*
X72850000Y-101342857D01*
X72921428Y-101414285D01*
X73064285Y-101485714D01*
X73207142Y-101485714D01*
X73421428Y-101414285D01*
X74278571Y-100557142D01*
X74278571Y-101485714D01*
X73850000Y-102057142D02*
X73850000Y-102771428D01*
X74278571Y-101914285D02*
X72778571Y-102414285D01*
X74278571Y-102914285D01*
X72921428Y-105521428D02*
X72850000Y-105592857D01*
X72778571Y-105735714D01*
X72778571Y-106092857D01*
X72850000Y-106235714D01*
X72921428Y-106307142D01*
X73064285Y-106378571D01*
X73207142Y-106378571D01*
X73421428Y-106307142D01*
X74278571Y-105450000D01*
X74278571Y-106378571D01*
X73492857Y-107521428D02*
X73564285Y-107735714D01*
X73635714Y-107807142D01*
X73778571Y-107878571D01*
X73992857Y-107878571D01*
X74135714Y-107807142D01*
X74207142Y-107735714D01*
X74278571Y-107592857D01*
X74278571Y-107021428D01*
X72778571Y-107021428D01*
X72778571Y-107521428D01*
X72850000Y-107664285D01*
X72921428Y-107735714D01*
X73064285Y-107807142D01*
X73207142Y-107807142D01*
X73350000Y-107735714D01*
X73421428Y-107664285D01*
X73492857Y-107521428D01*
X73492857Y-107021428D01*
X129607142Y-110571428D02*
X129607142Y-109428571D01*
X129028571Y-104907142D02*
X130171428Y-104907142D01*
X129600000Y-105478571D02*
X129600000Y-104335714D01*
X125078571Y-106235714D02*
X125078571Y-105521428D01*
X123578571Y-105521428D01*
X124292857Y-106735714D02*
X124292857Y-107235714D01*
X125078571Y-107450000D02*
X125078571Y-106735714D01*
X123578571Y-106735714D01*
X123578571Y-107450000D01*
X125078571Y-108092857D02*
X123578571Y-108092857D01*
X123578571Y-108450000D01*
X123650000Y-108664285D01*
X123792857Y-108807142D01*
X123935714Y-108878571D01*
X124221428Y-108950000D01*
X124435714Y-108950000D01*
X124721428Y-108878571D01*
X124864285Y-108807142D01*
X125007142Y-108664285D01*
X125078571Y-108450000D01*
X125078571Y-108092857D01*
X123928571Y-64507142D02*
X125071428Y-64507142D01*
X118828571Y-64507142D02*
X119971428Y-64507142D01*
X119400000Y-65078571D02*
X119400000Y-63935714D01*
X105047142Y-65168571D02*
X105047142Y-63668571D01*
X104690000Y-63668571D01*
X104475714Y-63740000D01*
X104332857Y-63882857D01*
X104261428Y-64025714D01*
X104190000Y-64311428D01*
X104190000Y-64525714D01*
X104261428Y-64811428D01*
X104332857Y-64954285D01*
X104475714Y-65097142D01*
X104690000Y-65168571D01*
X105047142Y-65168571D01*
X103618571Y-64740000D02*
X102904285Y-64740000D01*
X103761428Y-65168571D02*
X103261428Y-63668571D01*
X102761428Y-65168571D01*
X102475714Y-63668571D02*
X101618571Y-63668571D01*
X102047142Y-65168571D02*
X102047142Y-63668571D01*
X99332857Y-65025714D02*
X99404285Y-65097142D01*
X99618571Y-65168571D01*
X99761428Y-65168571D01*
X99975714Y-65097142D01*
X100118571Y-64954285D01*
X100190000Y-64811428D01*
X100261428Y-64525714D01*
X100261428Y-64311428D01*
X100190000Y-64025714D01*
X100118571Y-63882857D01*
X99975714Y-63740000D01*
X99761428Y-63668571D01*
X99618571Y-63668571D01*
X99404285Y-63740000D01*
X99332857Y-63811428D01*
X97975714Y-65168571D02*
X98690000Y-65168571D01*
X98690000Y-63668571D01*
X97475714Y-65168571D02*
X97475714Y-63668571D01*
X96618571Y-65168571D02*
X97261428Y-64311428D01*
X96618571Y-63668571D02*
X97475714Y-64525714D01*
X93625714Y-63668571D02*
X94340000Y-63668571D01*
X94411428Y-64382857D01*
X94340000Y-64311428D01*
X94197142Y-64240000D01*
X93840000Y-64240000D01*
X93697142Y-64311428D01*
X93625714Y-64382857D01*
X93554285Y-64525714D01*
X93554285Y-64882857D01*
X93625714Y-65025714D01*
X93697142Y-65097142D01*
X93840000Y-65168571D01*
X94197142Y-65168571D01*
X94340000Y-65097142D01*
X94411428Y-65025714D01*
X93125714Y-63668571D02*
X92625714Y-65168571D01*
X92125714Y-63668571D01*
X89382857Y-63740000D02*
X89525714Y-63668571D01*
X89740000Y-63668571D01*
X89954285Y-63740000D01*
X90097142Y-63882857D01*
X90168571Y-64025714D01*
X90240000Y-64311428D01*
X90240000Y-64525714D01*
X90168571Y-64811428D01*
X90097142Y-64954285D01*
X89954285Y-65097142D01*
X89740000Y-65168571D01*
X89597142Y-65168571D01*
X89382857Y-65097142D01*
X89311428Y-65025714D01*
X89311428Y-64525714D01*
X89597142Y-64525714D01*
X88668571Y-65168571D02*
X88668571Y-63668571D01*
X87811428Y-65168571D01*
X87811428Y-63668571D01*
X87097142Y-65168571D02*
X87097142Y-63668571D01*
X86740000Y-63668571D01*
X86525714Y-63740000D01*
X86382857Y-63882857D01*
X86311428Y-64025714D01*
X86240000Y-64311428D01*
X86240000Y-64525714D01*
X86311428Y-64811428D01*
X86382857Y-64954285D01*
X86525714Y-65097142D01*
X86740000Y-65168571D01*
X87097142Y-65168571D01*
X96875714Y-59468571D02*
X97590000Y-59468571D01*
X97590000Y-57968571D01*
X95518571Y-59325714D02*
X95590000Y-59397142D01*
X95804285Y-59468571D01*
X95947142Y-59468571D01*
X96161428Y-59397142D01*
X96304285Y-59254285D01*
X96375714Y-59111428D01*
X96447142Y-58825714D01*
X96447142Y-58611428D01*
X96375714Y-58325714D01*
X96304285Y-58182857D01*
X96161428Y-58040000D01*
X95947142Y-57968571D01*
X95804285Y-57968571D01*
X95590000Y-58040000D01*
X95518571Y-58111428D01*
X94875714Y-59468571D02*
X94875714Y-57968571D01*
X94518571Y-57968571D01*
X94304285Y-58040000D01*
X94161428Y-58182857D01*
X94090000Y-58325714D01*
X94018571Y-58611428D01*
X94018571Y-58825714D01*
X94090000Y-59111428D01*
X94161428Y-59254285D01*
X94304285Y-59397142D01*
X94518571Y-59468571D01*
X94875714Y-59468571D01*
X115804047Y-59485952D02*
X115685000Y-59545476D01*
X115446904Y-59545476D01*
X115327857Y-59485952D01*
X115268333Y-59366904D01*
X115268333Y-59307380D01*
X115327857Y-59188333D01*
X115446904Y-59128809D01*
X115625476Y-59128809D01*
X115744523Y-59069285D01*
X115804047Y-58950238D01*
X115804047Y-58890714D01*
X115744523Y-58771666D01*
X115625476Y-58712142D01*
X115446904Y-58712142D01*
X115327857Y-58771666D01*
X114911190Y-58712142D02*
X114435000Y-58712142D01*
X114732619Y-58295476D02*
X114732619Y-59366904D01*
X114673095Y-59485952D01*
X114554047Y-59545476D01*
X114435000Y-59545476D01*
X114018333Y-59545476D02*
X114018333Y-58712142D01*
X114018333Y-58295476D02*
X114077857Y-58355000D01*
X114018333Y-58414523D01*
X113958809Y-58355000D01*
X114018333Y-58295476D01*
X114018333Y-58414523D01*
X113423095Y-59545476D02*
X113423095Y-58712142D01*
X113423095Y-58950238D02*
X113363571Y-58831190D01*
X113304047Y-58771666D01*
X113185000Y-58712142D01*
X113065952Y-58712142D01*
X111696904Y-59545476D02*
X111696904Y-58712142D01*
X111696904Y-58831190D02*
X111637380Y-58771666D01*
X111518333Y-58712142D01*
X111339761Y-58712142D01*
X111220714Y-58771666D01*
X111161190Y-58890714D01*
X111161190Y-59545476D01*
X111161190Y-58890714D02*
X111101666Y-58771666D01*
X110982619Y-58712142D01*
X110804047Y-58712142D01*
X110685000Y-58771666D01*
X110625476Y-58890714D01*
X110625476Y-59545476D01*
X109851666Y-59545476D02*
X109970714Y-59485952D01*
X110030238Y-59426428D01*
X110089761Y-59307380D01*
X110089761Y-58950238D01*
X110030238Y-58831190D01*
X109970714Y-58771666D01*
X109851666Y-58712142D01*
X109673095Y-58712142D01*
X109554047Y-58771666D01*
X109494523Y-58831190D01*
X109435000Y-58950238D01*
X109435000Y-59307380D01*
X109494523Y-59426428D01*
X109554047Y-59485952D01*
X109673095Y-59545476D01*
X109851666Y-59545476D01*
X109077857Y-58712142D02*
X108601666Y-58712142D01*
X108899285Y-58295476D02*
X108899285Y-59366904D01*
X108839761Y-59485952D01*
X108720714Y-59545476D01*
X108601666Y-59545476D01*
X108006428Y-59545476D02*
X108125476Y-59485952D01*
X108185000Y-59426428D01*
X108244523Y-59307380D01*
X108244523Y-58950238D01*
X108185000Y-58831190D01*
X108125476Y-58771666D01*
X108006428Y-58712142D01*
X107827857Y-58712142D01*
X107708809Y-58771666D01*
X107649285Y-58831190D01*
X107589761Y-58950238D01*
X107589761Y-59307380D01*
X107649285Y-59426428D01*
X107708809Y-59485952D01*
X107827857Y-59545476D01*
X108006428Y-59545476D01*
X107054047Y-59545476D02*
X107054047Y-58712142D01*
X107054047Y-58950238D02*
X106994523Y-58831190D01*
X106935000Y-58771666D01*
X106815952Y-58712142D01*
X106696904Y-58712142D01*
X68838571Y-74491428D02*
X67838571Y-74491428D01*
X67981428Y-74491428D02*
X67910000Y-74562857D01*
X67838571Y-74705714D01*
X67838571Y-74920000D01*
X67910000Y-75062857D01*
X68052857Y-75134285D01*
X68838571Y-75134285D01*
X68052857Y-75134285D02*
X67910000Y-75205714D01*
X67838571Y-75348571D01*
X67838571Y-75562857D01*
X67910000Y-75705714D01*
X68052857Y-75777142D01*
X68838571Y-75777142D01*
X68838571Y-76705714D02*
X68767142Y-76562857D01*
X68695714Y-76491428D01*
X68552857Y-76420000D01*
X68124285Y-76420000D01*
X67981428Y-76491428D01*
X67910000Y-76562857D01*
X67838571Y-76705714D01*
X67838571Y-76920000D01*
X67910000Y-77062857D01*
X67981428Y-77134285D01*
X68124285Y-77205714D01*
X68552857Y-77205714D01*
X68695714Y-77134285D01*
X68767142Y-77062857D01*
X68838571Y-76920000D01*
X68838571Y-76705714D01*
X67838571Y-77634285D02*
X67838571Y-78205714D01*
X67338571Y-77848571D02*
X68624285Y-77848571D01*
X68767142Y-77920000D01*
X68838571Y-78062857D01*
X68838571Y-78205714D01*
X68838571Y-78920000D02*
X68767142Y-78777142D01*
X68695714Y-78705714D01*
X68552857Y-78634285D01*
X68124285Y-78634285D01*
X67981428Y-78705714D01*
X67910000Y-78777142D01*
X67838571Y-78920000D01*
X67838571Y-79134285D01*
X67910000Y-79277142D01*
X67981428Y-79348571D01*
X68124285Y-79420000D01*
X68552857Y-79420000D01*
X68695714Y-79348571D01*
X68767142Y-79277142D01*
X68838571Y-79134285D01*
X68838571Y-78920000D01*
X68838571Y-80062857D02*
X67838571Y-80062857D01*
X68124285Y-80062857D02*
X67981428Y-80134285D01*
X67910000Y-80205714D01*
X67838571Y-80348571D01*
X67838571Y-80491428D01*
X67481428Y-82062857D02*
X67410000Y-82134285D01*
X67338571Y-82277142D01*
X67338571Y-82634285D01*
X67410000Y-82777142D01*
X67481428Y-82848571D01*
X67624285Y-82920000D01*
X67767142Y-82920000D01*
X67981428Y-82848571D01*
X68838571Y-81991428D01*
X68838571Y-82920000D01*
X68778571Y-94521428D02*
X67778571Y-94521428D01*
X67921428Y-94521428D02*
X67850000Y-94592857D01*
X67778571Y-94735714D01*
X67778571Y-94950000D01*
X67850000Y-95092857D01*
X67992857Y-95164285D01*
X68778571Y-95164285D01*
X67992857Y-95164285D02*
X67850000Y-95235714D01*
X67778571Y-95378571D01*
X67778571Y-95592857D01*
X67850000Y-95735714D01*
X67992857Y-95807142D01*
X68778571Y-95807142D01*
X68778571Y-96735714D02*
X68707142Y-96592857D01*
X68635714Y-96521428D01*
X68492857Y-96450000D01*
X68064285Y-96450000D01*
X67921428Y-96521428D01*
X67850000Y-96592857D01*
X67778571Y-96735714D01*
X67778571Y-96950000D01*
X67850000Y-97092857D01*
X67921428Y-97164285D01*
X68064285Y-97235714D01*
X68492857Y-97235714D01*
X68635714Y-97164285D01*
X68707142Y-97092857D01*
X68778571Y-96950000D01*
X68778571Y-96735714D01*
X67778571Y-97664285D02*
X67778571Y-98235714D01*
X67278571Y-97878571D02*
X68564285Y-97878571D01*
X68707142Y-97950000D01*
X68778571Y-98092857D01*
X68778571Y-98235714D01*
X68778571Y-98950000D02*
X68707142Y-98807142D01*
X68635714Y-98735714D01*
X68492857Y-98664285D01*
X68064285Y-98664285D01*
X67921428Y-98735714D01*
X67850000Y-98807142D01*
X67778571Y-98950000D01*
X67778571Y-99164285D01*
X67850000Y-99307142D01*
X67921428Y-99378571D01*
X68064285Y-99450000D01*
X68492857Y-99450000D01*
X68635714Y-99378571D01*
X68707142Y-99307142D01*
X68778571Y-99164285D01*
X68778571Y-98950000D01*
X68778571Y-100092857D02*
X67778571Y-100092857D01*
X68064285Y-100092857D02*
X67921428Y-100164285D01*
X67850000Y-100235714D01*
X67778571Y-100378571D01*
X67778571Y-100521428D01*
X68778571Y-102950000D02*
X68778571Y-102092857D01*
X68778571Y-102521428D02*
X67278571Y-102521428D01*
X67492857Y-102378571D01*
X67635714Y-102235714D01*
X67707142Y-102092857D01*
X125978571Y-59878571D02*
X125978571Y-58378571D01*
X125335714Y-59878571D02*
X125335714Y-59092857D01*
X125407142Y-58950000D01*
X125550000Y-58878571D01*
X125764285Y-58878571D01*
X125907142Y-58950000D01*
X125978571Y-59021428D01*
X124050000Y-59807142D02*
X124192857Y-59878571D01*
X124478571Y-59878571D01*
X124621428Y-59807142D01*
X124692857Y-59664285D01*
X124692857Y-59092857D01*
X124621428Y-58950000D01*
X124478571Y-58878571D01*
X124192857Y-58878571D01*
X124050000Y-58950000D01*
X123978571Y-59092857D01*
X123978571Y-59235714D01*
X124692857Y-59378571D01*
X122692857Y-59878571D02*
X122692857Y-59092857D01*
X122764285Y-58950000D01*
X122907142Y-58878571D01*
X123192857Y-58878571D01*
X123335714Y-58950000D01*
X122692857Y-59807142D02*
X122835714Y-59878571D01*
X123192857Y-59878571D01*
X123335714Y-59807142D01*
X123407142Y-59664285D01*
X123407142Y-59521428D01*
X123335714Y-59378571D01*
X123192857Y-59307142D01*
X122835714Y-59307142D01*
X122692857Y-59235714D01*
X122192857Y-58878571D02*
X121621428Y-58878571D01*
X121978571Y-58378571D02*
X121978571Y-59664285D01*
X121907142Y-59807142D01*
X121764285Y-59878571D01*
X121621428Y-59878571D01*
X121121428Y-59878571D02*
X121121428Y-58878571D01*
X121121428Y-59021428D02*
X121050000Y-58950000D01*
X120907142Y-58878571D01*
X120692857Y-58878571D01*
X120550000Y-58950000D01*
X120478571Y-59092857D01*
X120478571Y-59878571D01*
X120478571Y-59092857D02*
X120407142Y-58950000D01*
X120264285Y-58878571D01*
X120050000Y-58878571D01*
X119907142Y-58950000D01*
X119835714Y-59092857D01*
X119835714Y-59878571D01*
X118478571Y-59878571D02*
X118478571Y-59092857D01*
X118550000Y-58950000D01*
X118692857Y-58878571D01*
X118978571Y-58878571D01*
X119121428Y-58950000D01*
X118478571Y-59807142D02*
X118621428Y-59878571D01*
X118978571Y-59878571D01*
X119121428Y-59807142D01*
X119192857Y-59664285D01*
X119192857Y-59521428D01*
X119121428Y-59378571D01*
X118978571Y-59307142D01*
X118621428Y-59307142D01*
X118478571Y-59235714D01*
X117978571Y-58878571D02*
X117407142Y-58878571D01*
X117764285Y-58378571D02*
X117764285Y-59664285D01*
X117692857Y-59807142D01*
X117550000Y-59878571D01*
X117407142Y-59878571D01*
D11*
%TO.C,REF\u002A\u002A*%
G36*
X132619918Y-64199744D02*
G01*
X132647568Y-64255201D01*
X132698480Y-64304148D01*
X132717338Y-64317629D01*
X132742015Y-64332314D01*
X132768816Y-64341842D01*
X132804587Y-64347293D01*
X132856169Y-64349747D01*
X132924267Y-64350286D01*
X133017588Y-64347852D01*
X133087657Y-64339394D01*
X133139931Y-64323174D01*
X133179869Y-64297454D01*
X133212929Y-64260497D01*
X133214886Y-64257782D01*
X133234908Y-64221360D01*
X133244815Y-64177502D01*
X133247257Y-64121724D01*
X133247257Y-64031048D01*
X133335283Y-64031010D01*
X133384308Y-64030166D01*
X133413065Y-64025024D01*
X133430311Y-64011587D01*
X133444808Y-63985858D01*
X133447769Y-63979679D01*
X133461648Y-63950764D01*
X133470414Y-63928376D01*
X133471171Y-63911729D01*
X133461023Y-63900036D01*
X133437073Y-63892510D01*
X133396426Y-63888366D01*
X133336186Y-63886815D01*
X133253455Y-63887071D01*
X133145339Y-63888349D01*
X133113000Y-63888748D01*
X133001524Y-63890185D01*
X132928603Y-63891472D01*
X132928603Y-64030971D01*
X132990499Y-64031755D01*
X133030997Y-64035240D01*
X133057708Y-64043124D01*
X133078244Y-64057105D01*
X133088260Y-64066597D01*
X133117567Y-64105404D01*
X133119952Y-64139763D01*
X133095750Y-64175216D01*
X133094857Y-64176114D01*
X133076153Y-64190539D01*
X133050732Y-64199313D01*
X133011584Y-64203739D01*
X132951697Y-64205118D01*
X132938430Y-64205143D01*
X132855901Y-64201812D01*
X132798691Y-64190969D01*
X132763766Y-64171340D01*
X132748094Y-64141650D01*
X132746514Y-64124491D01*
X132753926Y-64083766D01*
X132778330Y-64055832D01*
X132822980Y-64039017D01*
X132891130Y-64031650D01*
X132928603Y-64030971D01*
X132928603Y-63891472D01*
X132915245Y-63891708D01*
X132850333Y-63893677D01*
X132802958Y-63896450D01*
X132769290Y-63900388D01*
X132745498Y-63905849D01*
X132727753Y-63913192D01*
X132712224Y-63922777D01*
X132706381Y-63926887D01*
X132651185Y-63981405D01*
X132619890Y-64050336D01*
X132611165Y-64130072D01*
X132619918Y-64199744D01*
G37*
X132619918Y-64199744D02*
X132647568Y-64255201D01*
X132698480Y-64304148D01*
X132717338Y-64317629D01*
X132742015Y-64332314D01*
X132768816Y-64341842D01*
X132804587Y-64347293D01*
X132856169Y-64349747D01*
X132924267Y-64350286D01*
X133017588Y-64347852D01*
X133087657Y-64339394D01*
X133139931Y-64323174D01*
X133179869Y-64297454D01*
X133212929Y-64260497D01*
X133214886Y-64257782D01*
X133234908Y-64221360D01*
X133244815Y-64177502D01*
X133247257Y-64121724D01*
X133247257Y-64031048D01*
X133335283Y-64031010D01*
X133384308Y-64030166D01*
X133413065Y-64025024D01*
X133430311Y-64011587D01*
X133444808Y-63985858D01*
X133447769Y-63979679D01*
X133461648Y-63950764D01*
X133470414Y-63928376D01*
X133471171Y-63911729D01*
X133461023Y-63900036D01*
X133437073Y-63892510D01*
X133396426Y-63888366D01*
X133336186Y-63886815D01*
X133253455Y-63887071D01*
X133145339Y-63888349D01*
X133113000Y-63888748D01*
X133001524Y-63890185D01*
X132928603Y-63891472D01*
X132928603Y-64030971D01*
X132990499Y-64031755D01*
X133030997Y-64035240D01*
X133057708Y-64043124D01*
X133078244Y-64057105D01*
X133088260Y-64066597D01*
X133117567Y-64105404D01*
X133119952Y-64139763D01*
X133095750Y-64175216D01*
X133094857Y-64176114D01*
X133076153Y-64190539D01*
X133050732Y-64199313D01*
X133011584Y-64203739D01*
X132951697Y-64205118D01*
X132938430Y-64205143D01*
X132855901Y-64201812D01*
X132798691Y-64190969D01*
X132763766Y-64171340D01*
X132748094Y-64141650D01*
X132746514Y-64124491D01*
X132753926Y-64083766D01*
X132778330Y-64055832D01*
X132822980Y-64039017D01*
X132891130Y-64031650D01*
X132928603Y-64030971D01*
X132928603Y-63891472D01*
X132915245Y-63891708D01*
X132850333Y-63893677D01*
X132802958Y-63896450D01*
X132769290Y-63900388D01*
X132745498Y-63905849D01*
X132727753Y-63913192D01*
X132712224Y-63922777D01*
X132706381Y-63926887D01*
X132651185Y-63981405D01*
X132619890Y-64050336D01*
X132611165Y-64130072D01*
X132619918Y-64199744D01*
G36*
X132627780Y-65316093D02*
G01*
X132654723Y-65362672D01*
X132681466Y-65395057D01*
X132709484Y-65418742D01*
X132743748Y-65435059D01*
X132789227Y-65445339D01*
X132850892Y-65450914D01*
X132933711Y-65453116D01*
X132993246Y-65453371D01*
X133212391Y-65453371D01*
X133240044Y-65391686D01*
X133267697Y-65330000D01*
X133027670Y-65322743D01*
X132938028Y-65319744D01*
X132872962Y-65316598D01*
X132828026Y-65312701D01*
X132798770Y-65307447D01*
X132780748Y-65300231D01*
X132769511Y-65290450D01*
X132767079Y-65287312D01*
X132748083Y-65239761D01*
X132755600Y-65191697D01*
X132775543Y-65163086D01*
X132789675Y-65151447D01*
X132808220Y-65143391D01*
X132836334Y-65138271D01*
X132879173Y-65135441D01*
X132941895Y-65134256D01*
X133007261Y-65134057D01*
X133089268Y-65134018D01*
X133147316Y-65132614D01*
X133186465Y-65127914D01*
X133211780Y-65117987D01*
X133228323Y-65100903D01*
X133241156Y-65074732D01*
X133254491Y-65039775D01*
X133269007Y-65001596D01*
X133011389Y-65006141D01*
X132918519Y-65007971D01*
X132849889Y-65010112D01*
X132800711Y-65013181D01*
X132766198Y-65017794D01*
X132741562Y-65024568D01*
X132722016Y-65034119D01*
X132704770Y-65045634D01*
X132649680Y-65101190D01*
X132617822Y-65168980D01*
X132610191Y-65242713D01*
X132627780Y-65316093D01*
G37*
X132627780Y-65316093D02*
X132654723Y-65362672D01*
X132681466Y-65395057D01*
X132709484Y-65418742D01*
X132743748Y-65435059D01*
X132789227Y-65445339D01*
X132850892Y-65450914D01*
X132933711Y-65453116D01*
X132993246Y-65453371D01*
X133212391Y-65453371D01*
X133240044Y-65391686D01*
X133267697Y-65330000D01*
X133027670Y-65322743D01*
X132938028Y-65319744D01*
X132872962Y-65316598D01*
X132828026Y-65312701D01*
X132798770Y-65307447D01*
X132780748Y-65300231D01*
X132769511Y-65290450D01*
X132767079Y-65287312D01*
X132748083Y-65239761D01*
X132755600Y-65191697D01*
X132775543Y-65163086D01*
X132789675Y-65151447D01*
X132808220Y-65143391D01*
X132836334Y-65138271D01*
X132879173Y-65135441D01*
X132941895Y-65134256D01*
X133007261Y-65134057D01*
X133089268Y-65134018D01*
X133147316Y-65132614D01*
X133186465Y-65127914D01*
X133211780Y-65117987D01*
X133228323Y-65100903D01*
X133241156Y-65074732D01*
X133254491Y-65039775D01*
X133269007Y-65001596D01*
X133011389Y-65006141D01*
X132918519Y-65007971D01*
X132849889Y-65010112D01*
X132800711Y-65013181D01*
X132766198Y-65017794D01*
X132741562Y-65024568D01*
X132722016Y-65034119D01*
X132704770Y-65045634D01*
X132649680Y-65101190D01*
X132617822Y-65168980D01*
X132610191Y-65242713D01*
X132627780Y-65316093D01*
G36*
X132621962Y-63641115D02*
G01*
X132657733Y-63709145D01*
X132715301Y-63759351D01*
X132752312Y-63777185D01*
X132807882Y-63791063D01*
X132878096Y-63798167D01*
X132954727Y-63798840D01*
X133029552Y-63793427D01*
X133094342Y-63782270D01*
X133140873Y-63765714D01*
X133148887Y-63760626D01*
X133208707Y-63700355D01*
X133244535Y-63628769D01*
X133255020Y-63551092D01*
X133238810Y-63472548D01*
X133229092Y-63450689D01*
X133199143Y-63408122D01*
X133159433Y-63370763D01*
X133154397Y-63367232D01*
X133130124Y-63352881D01*
X133104178Y-63343394D01*
X133070022Y-63337790D01*
X133021119Y-63335086D01*
X132950935Y-63334299D01*
X132935200Y-63334286D01*
X132930192Y-63334322D01*
X132930192Y-63479429D01*
X132996430Y-63480273D01*
X133040386Y-63483596D01*
X133068779Y-63490583D01*
X133088325Y-63502416D01*
X133094857Y-63508457D01*
X133119680Y-63543186D01*
X133118548Y-63576903D01*
X133097016Y-63610995D01*
X133074029Y-63631329D01*
X133040478Y-63643371D01*
X132987569Y-63650134D01*
X132981399Y-63650598D01*
X132885513Y-63651752D01*
X132814299Y-63639688D01*
X132768194Y-63614570D01*
X132747635Y-63576560D01*
X132746514Y-63562992D01*
X132752152Y-63527364D01*
X132771686Y-63502994D01*
X132809042Y-63488093D01*
X132868150Y-63480875D01*
X132930192Y-63479429D01*
X132930192Y-63334322D01*
X132860413Y-63334826D01*
X132808159Y-63337096D01*
X132771949Y-63342068D01*
X132745299Y-63350713D01*
X132721722Y-63364005D01*
X132717338Y-63366943D01*
X132658249Y-63416313D01*
X132623947Y-63470109D01*
X132610331Y-63535602D01*
X132609665Y-63557842D01*
X132621962Y-63641115D01*
G37*
X132621962Y-63641115D02*
X132657733Y-63709145D01*
X132715301Y-63759351D01*
X132752312Y-63777185D01*
X132807882Y-63791063D01*
X132878096Y-63798167D01*
X132954727Y-63798840D01*
X133029552Y-63793427D01*
X133094342Y-63782270D01*
X133140873Y-63765714D01*
X133148887Y-63760626D01*
X133208707Y-63700355D01*
X133244535Y-63628769D01*
X133255020Y-63551092D01*
X133238810Y-63472548D01*
X133229092Y-63450689D01*
X133199143Y-63408122D01*
X133159433Y-63370763D01*
X133154397Y-63367232D01*
X133130124Y-63352881D01*
X133104178Y-63343394D01*
X133070022Y-63337790D01*
X133021119Y-63335086D01*
X132950935Y-63334299D01*
X132935200Y-63334286D01*
X132930192Y-63334322D01*
X132930192Y-63479429D01*
X132996430Y-63480273D01*
X133040386Y-63483596D01*
X133068779Y-63490583D01*
X133088325Y-63502416D01*
X133094857Y-63508457D01*
X133119680Y-63543186D01*
X133118548Y-63576903D01*
X133097016Y-63610995D01*
X133074029Y-63631329D01*
X133040478Y-63643371D01*
X132987569Y-63650134D01*
X132981399Y-63650598D01*
X132885513Y-63651752D01*
X132814299Y-63639688D01*
X132768194Y-63614570D01*
X132747635Y-63576560D01*
X132746514Y-63562992D01*
X132752152Y-63527364D01*
X132771686Y-63502994D01*
X132809042Y-63488093D01*
X132868150Y-63480875D01*
X132930192Y-63479429D01*
X132930192Y-63334322D01*
X132860413Y-63334826D01*
X132808159Y-63337096D01*
X132771949Y-63342068D01*
X132745299Y-63350713D01*
X132721722Y-63364005D01*
X132717338Y-63366943D01*
X132658249Y-63416313D01*
X132623947Y-63470109D01*
X132610331Y-63535602D01*
X132609665Y-63557842D01*
X132621962Y-63641115D01*
G36*
X132631239Y-64768303D02*
G01*
X132669735Y-64825527D01*
X132725335Y-64869749D01*
X132796086Y-64896167D01*
X132848162Y-64901510D01*
X132869893Y-64900903D01*
X132886531Y-64895822D01*
X132901437Y-64881855D01*
X132917973Y-64854589D01*
X132939498Y-64809612D01*
X132969374Y-64742511D01*
X132969524Y-64742171D01*
X132997813Y-64680407D01*
X133022933Y-64629759D01*
X133042179Y-64595404D01*
X133052848Y-64582518D01*
X133052934Y-64582514D01*
X133076166Y-64593872D01*
X133101774Y-64620431D01*
X133120221Y-64650923D01*
X133123886Y-64666370D01*
X133111212Y-64708515D01*
X133079471Y-64744808D01*
X133044572Y-64762517D01*
X133018845Y-64779552D01*
X132989546Y-64812922D01*
X132964235Y-64852149D01*
X132950471Y-64886756D01*
X132949714Y-64893993D01*
X132962160Y-64902139D01*
X132993972Y-64902630D01*
X133036866Y-64896643D01*
X133082558Y-64885357D01*
X133122761Y-64869950D01*
X133124322Y-64869171D01*
X133189062Y-64822804D01*
X133233097Y-64762711D01*
X133254711Y-64694465D01*
X133252185Y-64623638D01*
X133223804Y-64555804D01*
X133221808Y-64552788D01*
X133173448Y-64499427D01*
X133110352Y-64464340D01*
X133027387Y-64444922D01*
X133004078Y-64442316D01*
X132894055Y-64437701D01*
X132842748Y-64443233D01*
X132842748Y-64582514D01*
X132874753Y-64584324D01*
X132884093Y-64594222D01*
X132877105Y-64618898D01*
X132860587Y-64657795D01*
X132839881Y-64701275D01*
X132839333Y-64702356D01*
X132819949Y-64739209D01*
X132807013Y-64754000D01*
X132793451Y-64750353D01*
X132775632Y-64734995D01*
X132749845Y-64695923D01*
X132747950Y-64653846D01*
X132766717Y-64616103D01*
X132802915Y-64590034D01*
X132842748Y-64582514D01*
X132842748Y-64443233D01*
X132806027Y-64447194D01*
X132736212Y-64471550D01*
X132687302Y-64505456D01*
X132637878Y-64566653D01*
X132613359Y-64634063D01*
X132611797Y-64702880D01*
X132631239Y-64768303D01*
G37*
X132631239Y-64768303D02*
X132669735Y-64825527D01*
X132725335Y-64869749D01*
X132796086Y-64896167D01*
X132848162Y-64901510D01*
X132869893Y-64900903D01*
X132886531Y-64895822D01*
X132901437Y-64881855D01*
X132917973Y-64854589D01*
X132939498Y-64809612D01*
X132969374Y-64742511D01*
X132969524Y-64742171D01*
X132997813Y-64680407D01*
X133022933Y-64629759D01*
X133042179Y-64595404D01*
X133052848Y-64582518D01*
X133052934Y-64582514D01*
X133076166Y-64593872D01*
X133101774Y-64620431D01*
X133120221Y-64650923D01*
X133123886Y-64666370D01*
X133111212Y-64708515D01*
X133079471Y-64744808D01*
X133044572Y-64762517D01*
X133018845Y-64779552D01*
X132989546Y-64812922D01*
X132964235Y-64852149D01*
X132950471Y-64886756D01*
X132949714Y-64893993D01*
X132962160Y-64902139D01*
X132993972Y-64902630D01*
X133036866Y-64896643D01*
X133082558Y-64885357D01*
X133122761Y-64869950D01*
X133124322Y-64869171D01*
X133189062Y-64822804D01*
X133233097Y-64762711D01*
X133254711Y-64694465D01*
X133252185Y-64623638D01*
X133223804Y-64555804D01*
X133221808Y-64552788D01*
X133173448Y-64499427D01*
X133110352Y-64464340D01*
X133027387Y-64444922D01*
X133004078Y-64442316D01*
X132894055Y-64437701D01*
X132842748Y-64443233D01*
X132842748Y-64582514D01*
X132874753Y-64584324D01*
X132884093Y-64594222D01*
X132877105Y-64618898D01*
X132860587Y-64657795D01*
X132839881Y-64701275D01*
X132839333Y-64702356D01*
X132819949Y-64739209D01*
X132807013Y-64754000D01*
X132793451Y-64750353D01*
X132775632Y-64734995D01*
X132749845Y-64695923D01*
X132747950Y-64653846D01*
X132766717Y-64616103D01*
X132802915Y-64590034D01*
X132842748Y-64582514D01*
X132842748Y-64443233D01*
X132806027Y-64447194D01*
X132736212Y-64471550D01*
X132687302Y-64505456D01*
X132637878Y-64566653D01*
X132613359Y-64634063D01*
X132611797Y-64702880D01*
X132631239Y-64768303D01*
G36*
X132551289Y-65975886D02*
G01*
X132610613Y-65980139D01*
X132645572Y-65985025D01*
X132660820Y-65991795D01*
X132661015Y-66001702D01*
X132659195Y-66004914D01*
X132646015Y-66047644D01*
X132646785Y-66103227D01*
X132660333Y-66159737D01*
X132677861Y-66195082D01*
X132705861Y-66231321D01*
X132737549Y-66257813D01*
X132777813Y-66275999D01*
X132831543Y-66287322D01*
X132903626Y-66293222D01*
X132998951Y-66295143D01*
X133017237Y-66295177D01*
X133222646Y-66295200D01*
X133238580Y-66249491D01*
X133249420Y-66217027D01*
X133254468Y-66199215D01*
X133254514Y-66198691D01*
X133240828Y-66196937D01*
X133203076Y-66195444D01*
X133146224Y-66194326D01*
X133075234Y-66193697D01*
X133032073Y-66193600D01*
X132946973Y-66193398D01*
X132885981Y-66192358D01*
X132844177Y-66189831D01*
X132816642Y-66185164D01*
X132798456Y-66177707D01*
X132784698Y-66166811D01*
X132778073Y-66160007D01*
X132751375Y-66113272D01*
X132749375Y-66062272D01*
X132771955Y-66016001D01*
X132780107Y-66007444D01*
X132795436Y-65994893D01*
X132813618Y-65986188D01*
X132839909Y-65980631D01*
X132879562Y-65977526D01*
X132937832Y-65976176D01*
X133018173Y-65975886D01*
X133222646Y-65975886D01*
X133238580Y-65930177D01*
X133249420Y-65897713D01*
X133254468Y-65879901D01*
X133254514Y-65879377D01*
X133240623Y-65878037D01*
X133201439Y-65876828D01*
X133140700Y-65875801D01*
X133062141Y-65875002D01*
X132969498Y-65874481D01*
X132866509Y-65874286D01*
X132469342Y-65874286D01*
X132449444Y-65921457D01*
X132429547Y-65968629D01*
X132551289Y-65975886D01*
G37*
X132551289Y-65975886D02*
X132610613Y-65980139D01*
X132645572Y-65985025D01*
X132660820Y-65991795D01*
X132661015Y-66001702D01*
X132659195Y-66004914D01*
X132646015Y-66047644D01*
X132646785Y-66103227D01*
X132660333Y-66159737D01*
X132677861Y-66195082D01*
X132705861Y-66231321D01*
X132737549Y-66257813D01*
X132777813Y-66275999D01*
X132831543Y-66287322D01*
X132903626Y-66293222D01*
X132998951Y-66295143D01*
X133017237Y-66295177D01*
X133222646Y-66295200D01*
X133238580Y-66249491D01*
X133249420Y-66217027D01*
X133254468Y-66199215D01*
X133254514Y-66198691D01*
X133240828Y-66196937D01*
X133203076Y-66195444D01*
X133146224Y-66194326D01*
X133075234Y-66193697D01*
X133032073Y-66193600D01*
X132946973Y-66193398D01*
X132885981Y-66192358D01*
X132844177Y-66189831D01*
X132816642Y-66185164D01*
X132798456Y-66177707D01*
X132784698Y-66166811D01*
X132778073Y-66160007D01*
X132751375Y-66113272D01*
X132749375Y-66062272D01*
X132771955Y-66016001D01*
X132780107Y-66007444D01*
X132795436Y-65994893D01*
X132813618Y-65986188D01*
X132839909Y-65980631D01*
X132879562Y-65977526D01*
X132937832Y-65976176D01*
X133018173Y-65975886D01*
X133222646Y-65975886D01*
X133238580Y-65930177D01*
X133249420Y-65897713D01*
X133254468Y-65879901D01*
X133254514Y-65879377D01*
X133240623Y-65878037D01*
X133201439Y-65876828D01*
X133140700Y-65875801D01*
X133062141Y-65875002D01*
X132969498Y-65874481D01*
X132866509Y-65874286D01*
X132469342Y-65874286D01*
X132449444Y-65921457D01*
X132429547Y-65968629D01*
X132551289Y-65975886D01*
G36*
X132650968Y-66639744D02*
G01*
X132672087Y-66696616D01*
X132672493Y-66697267D01*
X132698380Y-66732440D01*
X132728633Y-66758407D01*
X132768058Y-66776670D01*
X132821462Y-66788732D01*
X132893651Y-66796096D01*
X132989432Y-66800264D01*
X133003078Y-66800629D01*
X133208842Y-66805876D01*
X133231678Y-66761716D01*
X133247110Y-66729763D01*
X133254423Y-66710470D01*
X133254514Y-66709578D01*
X133241022Y-66706239D01*
X133204626Y-66703587D01*
X133151452Y-66701956D01*
X133108393Y-66701600D01*
X133038641Y-66701592D01*
X132994837Y-66698403D01*
X132973944Y-66687288D01*
X132972925Y-66663501D01*
X132988741Y-66622296D01*
X133017815Y-66560086D01*
X133041963Y-66514341D01*
X133062913Y-66490813D01*
X133085747Y-66483896D01*
X133086877Y-66483886D01*
X133126212Y-66495299D01*
X133147462Y-66529092D01*
X133150539Y-66580809D01*
X133150006Y-66618061D01*
X133160735Y-66637703D01*
X133186505Y-66649952D01*
X133219337Y-66657002D01*
X133237966Y-66646842D01*
X133240632Y-66643017D01*
X133251340Y-66607001D01*
X133252856Y-66556566D01*
X133245759Y-66504626D01*
X133232788Y-66467822D01*
X133189585Y-66416938D01*
X133129446Y-66388014D01*
X133082462Y-66382286D01*
X133040082Y-66386657D01*
X133005488Y-66402475D01*
X132974763Y-66433797D01*
X132943990Y-66484678D01*
X132909252Y-66559176D01*
X132907288Y-66563714D01*
X132876287Y-66630821D01*
X132850862Y-66672232D01*
X132828014Y-66689981D01*
X132804745Y-66686107D01*
X132778056Y-66662643D01*
X132771914Y-66655627D01*
X132748100Y-66608630D01*
X132749103Y-66559933D01*
X132772451Y-66517522D01*
X132815675Y-66489384D01*
X132824160Y-66486769D01*
X132865308Y-66461308D01*
X132885128Y-66429001D01*
X132904770Y-66382286D01*
X132853950Y-66382286D01*
X132780082Y-66396496D01*
X132712327Y-66438675D01*
X132689661Y-66460624D01*
X132660569Y-66510517D01*
X132647400Y-66573967D01*
X132650968Y-66639744D01*
G37*
X132650968Y-66639744D02*
X132672087Y-66696616D01*
X132672493Y-66697267D01*
X132698380Y-66732440D01*
X132728633Y-66758407D01*
X132768058Y-66776670D01*
X132821462Y-66788732D01*
X132893651Y-66796096D01*
X132989432Y-66800264D01*
X133003078Y-66800629D01*
X133208842Y-66805876D01*
X133231678Y-66761716D01*
X133247110Y-66729763D01*
X133254423Y-66710470D01*
X133254514Y-66709578D01*
X133241022Y-66706239D01*
X133204626Y-66703587D01*
X133151452Y-66701956D01*
X133108393Y-66701600D01*
X133038641Y-66701592D01*
X132994837Y-66698403D01*
X132973944Y-66687288D01*
X132972925Y-66663501D01*
X132988741Y-66622296D01*
X133017815Y-66560086D01*
X133041963Y-66514341D01*
X133062913Y-66490813D01*
X133085747Y-66483896D01*
X133086877Y-66483886D01*
X133126212Y-66495299D01*
X133147462Y-66529092D01*
X133150539Y-66580809D01*
X133150006Y-66618061D01*
X133160735Y-66637703D01*
X133186505Y-66649952D01*
X133219337Y-66657002D01*
X133237966Y-66646842D01*
X133240632Y-66643017D01*
X133251340Y-66607001D01*
X133252856Y-66556566D01*
X133245759Y-66504626D01*
X133232788Y-66467822D01*
X133189585Y-66416938D01*
X133129446Y-66388014D01*
X133082462Y-66382286D01*
X133040082Y-66386657D01*
X133005488Y-66402475D01*
X132974763Y-66433797D01*
X132943990Y-66484678D01*
X132909252Y-66559176D01*
X132907288Y-66563714D01*
X132876287Y-66630821D01*
X132850862Y-66672232D01*
X132828014Y-66689981D01*
X132804745Y-66686107D01*
X132778056Y-66662643D01*
X132771914Y-66655627D01*
X132748100Y-66608630D01*
X132749103Y-66559933D01*
X132772451Y-66517522D01*
X132815675Y-66489384D01*
X132824160Y-66486769D01*
X132865308Y-66461308D01*
X132885128Y-66429001D01*
X132904770Y-66382286D01*
X132853950Y-66382286D01*
X132780082Y-66396496D01*
X132712327Y-66438675D01*
X132689661Y-66460624D01*
X132660569Y-66510517D01*
X132647400Y-66573967D01*
X132650968Y-66639744D01*
G36*
X132649755Y-67129926D02*
G01*
X132674084Y-67195858D01*
X132717117Y-67249273D01*
X132747409Y-67270164D01*
X132802994Y-67292939D01*
X132843186Y-67292466D01*
X132870217Y-67268562D01*
X132874813Y-67259717D01*
X132889144Y-67221530D01*
X132885472Y-67202028D01*
X132861407Y-67195422D01*
X132848114Y-67195086D01*
X132799210Y-67182992D01*
X132764999Y-67151471D01*
X132748476Y-67107659D01*
X132752634Y-67058695D01*
X132774227Y-67018894D01*
X132786544Y-67005450D01*
X132801487Y-66995921D01*
X132824075Y-66989485D01*
X132859328Y-66985317D01*
X132912266Y-66982597D01*
X132987907Y-66980502D01*
X133011857Y-66979960D01*
X133093790Y-66977981D01*
X133151455Y-66975731D01*
X133189608Y-66972357D01*
X133213004Y-66967006D01*
X133226398Y-66958824D01*
X133234545Y-66946959D01*
X133238144Y-66939362D01*
X133250452Y-66907102D01*
X133254514Y-66888111D01*
X133240948Y-66881836D01*
X133199934Y-66878006D01*
X133130999Y-66876600D01*
X133033669Y-66877598D01*
X133018657Y-66877908D01*
X132929859Y-66880101D01*
X132865019Y-66882693D01*
X132819067Y-66886382D01*
X132786935Y-66891864D01*
X132763553Y-66899835D01*
X132743852Y-66910993D01*
X132735410Y-66916830D01*
X132698057Y-66950296D01*
X132669003Y-66987727D01*
X132666467Y-66992309D01*
X132646443Y-67059426D01*
X132649755Y-67129926D01*
G37*
X132649755Y-67129926D02*
X132674084Y-67195858D01*
X132717117Y-67249273D01*
X132747409Y-67270164D01*
X132802994Y-67292939D01*
X132843186Y-67292466D01*
X132870217Y-67268562D01*
X132874813Y-67259717D01*
X132889144Y-67221530D01*
X132885472Y-67202028D01*
X132861407Y-67195422D01*
X132848114Y-67195086D01*
X132799210Y-67182992D01*
X132764999Y-67151471D01*
X132748476Y-67107659D01*
X132752634Y-67058695D01*
X132774227Y-67018894D01*
X132786544Y-67005450D01*
X132801487Y-66995921D01*
X132824075Y-66989485D01*
X132859328Y-66985317D01*
X132912266Y-66982597D01*
X132987907Y-66980502D01*
X133011857Y-66979960D01*
X133093790Y-66977981D01*
X133151455Y-66975731D01*
X133189608Y-66972357D01*
X133213004Y-66967006D01*
X133226398Y-66958824D01*
X133234545Y-66946959D01*
X133238144Y-66939362D01*
X133250452Y-66907102D01*
X133254514Y-66888111D01*
X133240948Y-66881836D01*
X133199934Y-66878006D01*
X133130999Y-66876600D01*
X133033669Y-66877598D01*
X133018657Y-66877908D01*
X132929859Y-66880101D01*
X132865019Y-66882693D01*
X132819067Y-66886382D01*
X132786935Y-66891864D01*
X132763553Y-66899835D01*
X132743852Y-66910993D01*
X132735410Y-66916830D01*
X132698057Y-66950296D01*
X132669003Y-66987727D01*
X132666467Y-66992309D01*
X132646443Y-67059426D01*
X132649755Y-67129926D01*
G36*
X132765358Y-67790117D02*
G01*
X132873837Y-67789933D01*
X132957287Y-67789219D01*
X133019704Y-67787675D01*
X133065085Y-67785001D01*
X133097429Y-67780894D01*
X133120733Y-67775055D01*
X133138995Y-67767182D01*
X133149418Y-67761221D01*
X133205945Y-67711855D01*
X133241377Y-67649264D01*
X133254090Y-67580013D01*
X133242463Y-67510668D01*
X133221568Y-67469375D01*
X133185422Y-67426025D01*
X133141276Y-67396481D01*
X133083462Y-67378655D01*
X133006313Y-67370463D01*
X132949714Y-67369302D01*
X132945647Y-67369458D01*
X132945647Y-67470857D01*
X133010550Y-67471476D01*
X133053514Y-67474314D01*
X133081622Y-67480840D01*
X133101953Y-67492523D01*
X133117288Y-67506483D01*
X133146890Y-67553365D01*
X133149419Y-67603701D01*
X133124705Y-67651276D01*
X133121356Y-67654979D01*
X133103935Y-67670783D01*
X133083209Y-67680693D01*
X133052362Y-67686058D01*
X133004577Y-67688228D01*
X132951748Y-67688571D01*
X132885381Y-67687827D01*
X132841106Y-67684748D01*
X132812009Y-67678061D01*
X132791173Y-67666496D01*
X132780107Y-67657013D01*
X132752198Y-67612960D01*
X132748843Y-67562224D01*
X132770159Y-67513796D01*
X132778073Y-67504450D01*
X132795647Y-67488540D01*
X132816587Y-67478610D01*
X132847782Y-67473278D01*
X132896122Y-67471163D01*
X132945647Y-67470857D01*
X132945647Y-67369458D01*
X132858568Y-67372810D01*
X132790086Y-67384726D01*
X132738600Y-67407135D01*
X132698443Y-67442124D01*
X132677861Y-67469375D01*
X132655625Y-67518907D01*
X132645304Y-67576316D01*
X132648067Y-67629682D01*
X132659212Y-67659543D01*
X132662383Y-67671261D01*
X132650557Y-67679037D01*
X132618866Y-67684465D01*
X132570593Y-67688571D01*
X132516829Y-67693067D01*
X132484482Y-67699313D01*
X132465985Y-67710676D01*
X132453770Y-67730528D01*
X132448362Y-67743000D01*
X132428601Y-67790171D01*
X132765358Y-67790117D01*
G37*
X132765358Y-67790117D02*
X132873837Y-67789933D01*
X132957287Y-67789219D01*
X133019704Y-67787675D01*
X133065085Y-67785001D01*
X133097429Y-67780894D01*
X133120733Y-67775055D01*
X133138995Y-67767182D01*
X133149418Y-67761221D01*
X133205945Y-67711855D01*
X133241377Y-67649264D01*
X133254090Y-67580013D01*
X133242463Y-67510668D01*
X133221568Y-67469375D01*
X133185422Y-67426025D01*
X133141276Y-67396481D01*
X133083462Y-67378655D01*
X133006313Y-67370463D01*
X132949714Y-67369302D01*
X132945647Y-67369458D01*
X132945647Y-67470857D01*
X133010550Y-67471476D01*
X133053514Y-67474314D01*
X133081622Y-67480840D01*
X133101953Y-67492523D01*
X133117288Y-67506483D01*
X133146890Y-67553365D01*
X133149419Y-67603701D01*
X133124705Y-67651276D01*
X133121356Y-67654979D01*
X133103935Y-67670783D01*
X133083209Y-67680693D01*
X133052362Y-67686058D01*
X133004577Y-67688228D01*
X132951748Y-67688571D01*
X132885381Y-67687827D01*
X132841106Y-67684748D01*
X132812009Y-67678061D01*
X132791173Y-67666496D01*
X132780107Y-67657013D01*
X132752198Y-67612960D01*
X132748843Y-67562224D01*
X132770159Y-67513796D01*
X132778073Y-67504450D01*
X132795647Y-67488540D01*
X132816587Y-67478610D01*
X132847782Y-67473278D01*
X132896122Y-67471163D01*
X132945647Y-67470857D01*
X132945647Y-67369458D01*
X132858568Y-67372810D01*
X132790086Y-67384726D01*
X132738600Y-67407135D01*
X132698443Y-67442124D01*
X132677861Y-67469375D01*
X132655625Y-67518907D01*
X132645304Y-67576316D01*
X132648067Y-67629682D01*
X132659212Y-67659543D01*
X132662383Y-67671261D01*
X132650557Y-67679037D01*
X132618866Y-67684465D01*
X132570593Y-67688571D01*
X132516829Y-67693067D01*
X132484482Y-67699313D01*
X132465985Y-67710676D01*
X132453770Y-67730528D01*
X132448362Y-67743000D01*
X132428601Y-67790171D01*
X132765358Y-67790117D01*
G36*
X132658663Y-68379833D02*
G01*
X132696850Y-68382048D01*
X132754886Y-68383784D01*
X132828180Y-68384899D01*
X132905055Y-68385257D01*
X133165196Y-68385257D01*
X133211127Y-68339326D01*
X133239429Y-68307675D01*
X133250893Y-68279890D01*
X133250168Y-68241915D01*
X133248321Y-68226840D01*
X133242948Y-68179726D01*
X133239869Y-68140756D01*
X133239585Y-68131257D01*
X133241445Y-68099233D01*
X133246114Y-68053432D01*
X133248321Y-68035674D01*
X133251735Y-67992057D01*
X133244320Y-67962745D01*
X133221427Y-67933680D01*
X133211127Y-67923188D01*
X133165196Y-67877257D01*
X132678602Y-67877257D01*
X132661758Y-67914226D01*
X132649282Y-67946059D01*
X132644914Y-67964683D01*
X132658718Y-67969458D01*
X132697286Y-67973921D01*
X132756356Y-67977775D01*
X132831663Y-67980722D01*
X132895286Y-67982143D01*
X133145657Y-67986114D01*
X133150556Y-68020759D01*
X133147131Y-68052268D01*
X133136041Y-68067708D01*
X133115308Y-68072023D01*
X133071145Y-68075708D01*
X133009146Y-68078469D01*
X132934909Y-68080012D01*
X132896706Y-68080235D01*
X132676783Y-68080457D01*
X132660849Y-68126166D01*
X132650015Y-68158518D01*
X132644962Y-68176115D01*
X132644914Y-68176623D01*
X132658648Y-68178388D01*
X132696730Y-68180329D01*
X132754482Y-68182282D01*
X132827227Y-68184084D01*
X132895286Y-68185343D01*
X133145657Y-68189314D01*
X133145657Y-68276400D01*
X132917240Y-68280396D01*
X132688822Y-68284392D01*
X132666868Y-68326847D01*
X132651793Y-68358192D01*
X132644951Y-68376744D01*
X132644914Y-68377279D01*
X132658663Y-68379833D01*
G37*
X132658663Y-68379833D02*
X132696850Y-68382048D01*
X132754886Y-68383784D01*
X132828180Y-68384899D01*
X132905055Y-68385257D01*
X133165196Y-68385257D01*
X133211127Y-68339326D01*
X133239429Y-68307675D01*
X133250893Y-68279890D01*
X133250168Y-68241915D01*
X133248321Y-68226840D01*
X133242948Y-68179726D01*
X133239869Y-68140756D01*
X133239585Y-68131257D01*
X133241445Y-68099233D01*
X133246114Y-68053432D01*
X133248321Y-68035674D01*
X133251735Y-67992057D01*
X133244320Y-67962745D01*
X133221427Y-67933680D01*
X133211127Y-67923188D01*
X133165196Y-67877257D01*
X132678602Y-67877257D01*
X132661758Y-67914226D01*
X132649282Y-67946059D01*
X132644914Y-67964683D01*
X132658718Y-67969458D01*
X132697286Y-67973921D01*
X132756356Y-67977775D01*
X132831663Y-67980722D01*
X132895286Y-67982143D01*
X133145657Y-67986114D01*
X133150556Y-68020759D01*
X133147131Y-68052268D01*
X133136041Y-68067708D01*
X133115308Y-68072023D01*
X133071145Y-68075708D01*
X133009146Y-68078469D01*
X132934909Y-68080012D01*
X132896706Y-68080235D01*
X132676783Y-68080457D01*
X132660849Y-68126166D01*
X132650015Y-68158518D01*
X132644962Y-68176115D01*
X132644914Y-68176623D01*
X132658648Y-68178388D01*
X132696730Y-68180329D01*
X132754482Y-68182282D01*
X132827227Y-68184084D01*
X132895286Y-68185343D01*
X133145657Y-68189314D01*
X133145657Y-68276400D01*
X132917240Y-68280396D01*
X132688822Y-68284392D01*
X132666868Y-68326847D01*
X132651793Y-68358192D01*
X132644951Y-68376744D01*
X132644914Y-68377279D01*
X132658663Y-68379833D01*
G36*
X132656335Y-68744876D02*
G01*
X132675344Y-68786667D01*
X132698378Y-68819469D01*
X132724133Y-68843503D01*
X132757358Y-68860097D01*
X132802800Y-68870577D01*
X132865207Y-68876271D01*
X132949327Y-68878507D01*
X133004721Y-68878743D01*
X133220826Y-68878743D01*
X133237670Y-68841774D01*
X133249981Y-68812656D01*
X133254514Y-68798231D01*
X133241025Y-68795472D01*
X133204653Y-68793282D01*
X133151542Y-68791942D01*
X133109372Y-68791657D01*
X133048447Y-68790434D01*
X133000115Y-68787136D01*
X132970518Y-68782321D01*
X132964229Y-68778496D01*
X132970652Y-68752783D01*
X132987125Y-68712418D01*
X133009458Y-68665679D01*
X133033457Y-68620845D01*
X133054930Y-68586193D01*
X133069685Y-68570002D01*
X133069845Y-68569938D01*
X133097152Y-68571330D01*
X133123219Y-68583818D01*
X133144392Y-68605743D01*
X133151474Y-68637743D01*
X133150649Y-68665092D01*
X133150042Y-68703826D01*
X133159116Y-68724158D01*
X133183092Y-68736369D01*
X133187613Y-68737909D01*
X133221806Y-68743203D01*
X133242568Y-68729047D01*
X133252462Y-68692148D01*
X133254292Y-68652289D01*
X133240727Y-68580562D01*
X133221355Y-68543432D01*
X133175845Y-68497576D01*
X133119983Y-68473256D01*
X133060957Y-68471073D01*
X133005953Y-68491629D01*
X132971486Y-68522549D01*
X132952189Y-68553420D01*
X132927759Y-68601942D01*
X132902985Y-68658485D01*
X132899199Y-68667910D01*
X132871791Y-68730019D01*
X132847634Y-68765822D01*
X132823619Y-68777337D01*
X132796635Y-68766580D01*
X132775543Y-68748114D01*
X132749572Y-68704469D01*
X132747624Y-68656446D01*
X132767637Y-68612406D01*
X132807551Y-68580709D01*
X132817848Y-68576549D01*
X132855724Y-68552327D01*
X132883842Y-68516965D01*
X132906917Y-68472343D01*
X132841485Y-68472343D01*
X132801506Y-68474969D01*
X132769997Y-68486230D01*
X132736378Y-68511199D01*
X132710484Y-68535169D01*
X132673817Y-68572441D01*
X132654121Y-68601401D01*
X132646220Y-68632505D01*
X132644914Y-68667713D01*
X132656335Y-68744876D01*
G37*
X132656335Y-68744876D02*
X132675344Y-68786667D01*
X132698378Y-68819469D01*
X132724133Y-68843503D01*
X132757358Y-68860097D01*
X132802800Y-68870577D01*
X132865207Y-68876271D01*
X132949327Y-68878507D01*
X133004721Y-68878743D01*
X133220826Y-68878743D01*
X133237670Y-68841774D01*
X133249981Y-68812656D01*
X133254514Y-68798231D01*
X133241025Y-68795472D01*
X133204653Y-68793282D01*
X133151542Y-68791942D01*
X133109372Y-68791657D01*
X133048447Y-68790434D01*
X133000115Y-68787136D01*
X132970518Y-68782321D01*
X132964229Y-68778496D01*
X132970652Y-68752783D01*
X132987125Y-68712418D01*
X133009458Y-68665679D01*
X133033457Y-68620845D01*
X133054930Y-68586193D01*
X133069685Y-68570002D01*
X133069845Y-68569938D01*
X133097152Y-68571330D01*
X133123219Y-68583818D01*
X133144392Y-68605743D01*
X133151474Y-68637743D01*
X133150649Y-68665092D01*
X133150042Y-68703826D01*
X133159116Y-68724158D01*
X133183092Y-68736369D01*
X133187613Y-68737909D01*
X133221806Y-68743203D01*
X133242568Y-68729047D01*
X133252462Y-68692148D01*
X133254292Y-68652289D01*
X133240727Y-68580562D01*
X133221355Y-68543432D01*
X133175845Y-68497576D01*
X133119983Y-68473256D01*
X133060957Y-68471073D01*
X133005953Y-68491629D01*
X132971486Y-68522549D01*
X132952189Y-68553420D01*
X132927759Y-68601942D01*
X132902985Y-68658485D01*
X132899199Y-68667910D01*
X132871791Y-68730019D01*
X132847634Y-68765822D01*
X132823619Y-68777337D01*
X132796635Y-68766580D01*
X132775543Y-68748114D01*
X132749572Y-68704469D01*
X132747624Y-68656446D01*
X132767637Y-68612406D01*
X132807551Y-68580709D01*
X132817848Y-68576549D01*
X132855724Y-68552327D01*
X132883842Y-68516965D01*
X132906917Y-68472343D01*
X132841485Y-68472343D01*
X132801506Y-68474969D01*
X132769997Y-68486230D01*
X132736378Y-68511199D01*
X132710484Y-68535169D01*
X132673817Y-68572441D01*
X132654121Y-68601401D01*
X132646220Y-68632505D01*
X132644914Y-68667713D01*
X132656335Y-68744876D01*
G36*
X132658752Y-69252600D02*
G01*
X132666334Y-69269948D01*
X132699128Y-69311356D01*
X132746547Y-69346765D01*
X132797151Y-69368664D01*
X132822098Y-69372229D01*
X132856927Y-69360279D01*
X132875357Y-69334067D01*
X132886516Y-69305964D01*
X132888572Y-69293095D01*
X132873649Y-69286829D01*
X132841175Y-69274456D01*
X132826502Y-69269028D01*
X132775744Y-69238590D01*
X132750427Y-69194520D01*
X132751206Y-69138010D01*
X132752203Y-69133825D01*
X132766507Y-69103655D01*
X132794393Y-69081476D01*
X132839287Y-69066327D01*
X132904615Y-69057250D01*
X132993804Y-69053286D01*
X133041261Y-69052914D01*
X133116071Y-69052730D01*
X133167069Y-69051522D01*
X133199471Y-69048309D01*
X133218495Y-69042109D01*
X133229356Y-69031940D01*
X133237272Y-69016819D01*
X133237670Y-69015946D01*
X133249981Y-68986828D01*
X133254514Y-68972403D01*
X133240809Y-68970186D01*
X133202925Y-68968289D01*
X133145715Y-68966847D01*
X133074027Y-68965998D01*
X133021565Y-68965829D01*
X132920047Y-68966692D01*
X132843032Y-68970070D01*
X132786023Y-68977142D01*
X132744526Y-68989088D01*
X132714043Y-69007090D01*
X132690080Y-69032327D01*
X132673355Y-69057247D01*
X132651097Y-69117171D01*
X132646076Y-69186911D01*
X132658752Y-69252600D01*
G37*
X132658752Y-69252600D02*
X132666334Y-69269948D01*
X132699128Y-69311356D01*
X132746547Y-69346765D01*
X132797151Y-69368664D01*
X132822098Y-69372229D01*
X132856927Y-69360279D01*
X132875357Y-69334067D01*
X132886516Y-69305964D01*
X132888572Y-69293095D01*
X132873649Y-69286829D01*
X132841175Y-69274456D01*
X132826502Y-69269028D01*
X132775744Y-69238590D01*
X132750427Y-69194520D01*
X132751206Y-69138010D01*
X132752203Y-69133825D01*
X132766507Y-69103655D01*
X132794393Y-69081476D01*
X132839287Y-69066327D01*
X132904615Y-69057250D01*
X132993804Y-69053286D01*
X133041261Y-69052914D01*
X133116071Y-69052730D01*
X133167069Y-69051522D01*
X133199471Y-69048309D01*
X133218495Y-69042109D01*
X133229356Y-69031940D01*
X133237272Y-69016819D01*
X133237670Y-69015946D01*
X133249981Y-68986828D01*
X133254514Y-68972403D01*
X133240809Y-68970186D01*
X133202925Y-68968289D01*
X133145715Y-68966847D01*
X133074027Y-68965998D01*
X133021565Y-68965829D01*
X132920047Y-68966692D01*
X132843032Y-68970070D01*
X132786023Y-68977142D01*
X132744526Y-68989088D01*
X132714043Y-69007090D01*
X132690080Y-69032327D01*
X132673355Y-69057247D01*
X132651097Y-69117171D01*
X132646076Y-69186911D01*
X132658752Y-69252600D01*
G36*
X132666966Y-69753595D02*
G01*
X132704497Y-69811021D01*
X132738096Y-69838719D01*
X132799064Y-69860662D01*
X132847308Y-69862405D01*
X132911816Y-69858457D01*
X132976934Y-69709686D01*
X133010202Y-69637349D01*
X133036964Y-69590084D01*
X133060144Y-69565507D01*
X133082667Y-69561237D01*
X133107455Y-69574889D01*
X133123886Y-69589943D01*
X133150235Y-69633746D01*
X133152081Y-69681389D01*
X133131546Y-69725145D01*
X133090752Y-69757289D01*
X133076347Y-69763038D01*
X133031356Y-69790576D01*
X133012182Y-69822258D01*
X132995779Y-69865714D01*
X133057966Y-69865714D01*
X133100283Y-69861872D01*
X133135969Y-69846823D01*
X133176943Y-69815280D01*
X133182267Y-69810592D01*
X133218720Y-69775506D01*
X133238283Y-69745347D01*
X133247283Y-69707615D01*
X133250230Y-69676335D01*
X133250965Y-69620385D01*
X133241660Y-69580555D01*
X133227846Y-69555708D01*
X133197467Y-69516656D01*
X133164613Y-69489625D01*
X133123294Y-69472517D01*
X133067521Y-69463238D01*
X132991305Y-69459693D01*
X132952622Y-69459410D01*
X132906247Y-69460372D01*
X132906247Y-69548007D01*
X132931126Y-69549023D01*
X132935200Y-69551556D01*
X132929665Y-69568274D01*
X132915017Y-69604249D01*
X132894190Y-69652331D01*
X132889714Y-69662386D01*
X132858814Y-69723152D01*
X132831657Y-69756632D01*
X132806220Y-69763990D01*
X132780481Y-69746391D01*
X132769109Y-69731856D01*
X132746364Y-69679410D01*
X132750122Y-69630322D01*
X132777884Y-69589227D01*
X132827152Y-69560758D01*
X132866257Y-69551631D01*
X132906247Y-69548007D01*
X132906247Y-69460372D01*
X132862249Y-69461285D01*
X132795384Y-69468196D01*
X132746695Y-69481884D01*
X132710849Y-69504096D01*
X132682513Y-69536574D01*
X132673355Y-69550733D01*
X132649507Y-69615053D01*
X132648006Y-69685473D01*
X132666966Y-69753595D01*
G37*
X132666966Y-69753595D02*
X132704497Y-69811021D01*
X132738096Y-69838719D01*
X132799064Y-69860662D01*
X132847308Y-69862405D01*
X132911816Y-69858457D01*
X132976934Y-69709686D01*
X133010202Y-69637349D01*
X133036964Y-69590084D01*
X133060144Y-69565507D01*
X133082667Y-69561237D01*
X133107455Y-69574889D01*
X133123886Y-69589943D01*
X133150235Y-69633746D01*
X133152081Y-69681389D01*
X133131546Y-69725145D01*
X133090752Y-69757289D01*
X133076347Y-69763038D01*
X133031356Y-69790576D01*
X133012182Y-69822258D01*
X132995779Y-69865714D01*
X133057966Y-69865714D01*
X133100283Y-69861872D01*
X133135969Y-69846823D01*
X133176943Y-69815280D01*
X133182267Y-69810592D01*
X133218720Y-69775506D01*
X133238283Y-69745347D01*
X133247283Y-69707615D01*
X133250230Y-69676335D01*
X133250965Y-69620385D01*
X133241660Y-69580555D01*
X133227846Y-69555708D01*
X133197467Y-69516656D01*
X133164613Y-69489625D01*
X133123294Y-69472517D01*
X133067521Y-69463238D01*
X132991305Y-69459693D01*
X132952622Y-69459410D01*
X132906247Y-69460372D01*
X132906247Y-69548007D01*
X132931126Y-69549023D01*
X132935200Y-69551556D01*
X132929665Y-69568274D01*
X132915017Y-69604249D01*
X132894190Y-69652331D01*
X132889714Y-69662386D01*
X132858814Y-69723152D01*
X132831657Y-69756632D01*
X132806220Y-69763990D01*
X132780481Y-69746391D01*
X132769109Y-69731856D01*
X132746364Y-69679410D01*
X132750122Y-69630322D01*
X132777884Y-69589227D01*
X132827152Y-69560758D01*
X132866257Y-69551631D01*
X132906247Y-69548007D01*
X132906247Y-69460372D01*
X132862249Y-69461285D01*
X132795384Y-69468196D01*
X132746695Y-69481884D01*
X132710849Y-69504096D01*
X132682513Y-69536574D01*
X132673355Y-69550733D01*
X132649507Y-69615053D01*
X132648006Y-69685473D01*
X132666966Y-69753595D01*
G36*
X127942348Y-66703910D02*
G01*
X127942778Y-66782454D01*
X127943942Y-66839298D01*
X127946207Y-66878105D01*
X127949940Y-66902538D01*
X127955506Y-66916262D01*
X127963273Y-66922940D01*
X127973605Y-66926236D01*
X127974943Y-66926556D01*
X127999079Y-66931562D01*
X128046701Y-66940829D01*
X128112741Y-66953392D01*
X128192128Y-66968287D01*
X128279796Y-66984551D01*
X128282875Y-66985119D01*
X128368789Y-67001410D01*
X128444696Y-67016652D01*
X128506045Y-67029861D01*
X128548282Y-67040054D01*
X128566855Y-67046248D01*
X128567184Y-67046543D01*
X128576253Y-67064788D01*
X128591367Y-67102405D01*
X128609262Y-67151271D01*
X128609358Y-67151543D01*
X128632493Y-67213093D01*
X128661965Y-67285657D01*
X128691597Y-67354057D01*
X128693062Y-67357294D01*
X128743626Y-67468702D01*
X128575160Y-67715399D01*
X128523803Y-67791077D01*
X128477889Y-67859631D01*
X128440030Y-67917088D01*
X128412837Y-67959476D01*
X128398921Y-67982825D01*
X128397889Y-67985042D01*
X128402484Y-68002010D01*
X128424655Y-68033701D01*
X128465447Y-68081352D01*
X128525905Y-68146198D01*
X128590227Y-68212397D01*
X128653612Y-68276214D01*
X128711451Y-68333329D01*
X128760175Y-68380305D01*
X128796210Y-68413703D01*
X128815984Y-68430085D01*
X128817002Y-68430694D01*
X128830572Y-68432505D01*
X128852733Y-68425683D01*
X128886478Y-68408540D01*
X128934800Y-68379393D01*
X129000692Y-68336555D01*
X129085517Y-68279448D01*
X129160177Y-68228766D01*
X129227140Y-68183461D01*
X129282516Y-68146150D01*
X129322420Y-68119452D01*
X129342962Y-68105985D01*
X129344356Y-68105137D01*
X129364038Y-68106781D01*
X129402293Y-68119245D01*
X129451889Y-68140048D01*
X129467728Y-68147462D01*
X129538290Y-68179814D01*
X129618353Y-68214328D01*
X129687629Y-68242365D01*
X129739045Y-68262568D01*
X129778119Y-68278615D01*
X129798541Y-68287888D01*
X129800114Y-68289041D01*
X129802721Y-68306096D01*
X129809863Y-68346298D01*
X129820523Y-68404302D01*
X129833685Y-68474763D01*
X129848333Y-68552335D01*
X129863449Y-68631672D01*
X129878018Y-68707431D01*
X129891022Y-68774264D01*
X129901445Y-68826828D01*
X129908270Y-68859776D01*
X129910199Y-68867857D01*
X129914962Y-68876205D01*
X129925718Y-68882506D01*
X129946098Y-68887045D01*
X129979734Y-68890104D01*
X130030255Y-68891967D01*
X130101292Y-68892918D01*
X130196476Y-68893240D01*
X130235492Y-68893257D01*
X130552799Y-68893257D01*
X130567839Y-68817057D01*
X130575995Y-68774663D01*
X130587899Y-68711400D01*
X130602116Y-68634962D01*
X130617210Y-68553043D01*
X130621355Y-68530400D01*
X130636053Y-68454806D01*
X130650505Y-68388953D01*
X130663375Y-68338366D01*
X130673322Y-68308574D01*
X130676287Y-68303612D01*
X130697283Y-68291426D01*
X130737967Y-68273953D01*
X130790322Y-68254577D01*
X130801600Y-68250734D01*
X130871523Y-68225339D01*
X130950418Y-68193817D01*
X131021266Y-68162969D01*
X131021595Y-68162817D01*
X131132733Y-68111447D01*
X131381253Y-68280399D01*
X131629772Y-68449352D01*
X131847058Y-68232429D01*
X131911726Y-68166819D01*
X131968733Y-68106979D01*
X132015033Y-68056267D01*
X132047584Y-68018046D01*
X132063343Y-67995675D01*
X132064343Y-67992466D01*
X132056469Y-67973626D01*
X132034578Y-67935180D01*
X132001267Y-67881330D01*
X131959131Y-67816276D01*
X131911943Y-67745940D01*
X131863810Y-67674555D01*
X131821928Y-67610908D01*
X131788871Y-67559041D01*
X131767218Y-67522995D01*
X131759543Y-67506867D01*
X131766037Y-67487189D01*
X131783150Y-67449875D01*
X131807326Y-67402621D01*
X131810013Y-67397612D01*
X131841927Y-67333977D01*
X131857579Y-67290341D01*
X131857745Y-67263202D01*
X131843204Y-67249057D01*
X131843000Y-67248975D01*
X131825779Y-67241905D01*
X131784899Y-67225042D01*
X131723525Y-67199695D01*
X131644819Y-67167171D01*
X131551947Y-67128778D01*
X131448072Y-67085822D01*
X131347502Y-67044222D01*
X131236516Y-66998504D01*
X131133703Y-66956526D01*
X131042215Y-66919548D01*
X130965201Y-66888827D01*
X130905815Y-66865622D01*
X130867209Y-66851190D01*
X130852800Y-66846743D01*
X130836272Y-66857896D01*
X130809930Y-66887069D01*
X130780887Y-66925971D01*
X130689039Y-67036757D01*
X130583759Y-67123351D01*
X130467266Y-67184716D01*
X130341776Y-67219815D01*
X130209507Y-67227608D01*
X130148457Y-67221943D01*
X130021795Y-67191078D01*
X129909941Y-67137920D01*
X129814001Y-67065767D01*
X129735076Y-66977917D01*
X129674270Y-66877665D01*
X129632687Y-66768310D01*
X129611428Y-66653147D01*
X129611599Y-66535475D01*
X129634301Y-66418590D01*
X129680638Y-66305789D01*
X129751713Y-66200369D01*
X129791911Y-66156368D01*
X129895129Y-66071979D01*
X130007925Y-66013222D01*
X130127010Y-65979704D01*
X130249095Y-65971035D01*
X130370893Y-65986823D01*
X130489116Y-66026678D01*
X130600475Y-66090207D01*
X130701684Y-66177021D01*
X130780887Y-66274029D01*
X130811162Y-66314437D01*
X130837219Y-66342982D01*
X130852825Y-66353257D01*
X130869843Y-66347877D01*
X130910500Y-66332575D01*
X130971642Y-66308612D01*
X131050119Y-66277244D01*
X131142780Y-66239732D01*
X131246472Y-66197333D01*
X131347526Y-66155663D01*
X131458607Y-66109690D01*
X131561541Y-66067107D01*
X131653165Y-66029221D01*
X131730316Y-65997340D01*
X131789831Y-65972771D01*
X131828544Y-65956820D01*
X131843000Y-65950910D01*
X131857685Y-65936948D01*
X131857642Y-65909940D01*
X131842099Y-65866413D01*
X131810284Y-65802890D01*
X131810013Y-65802388D01*
X131785323Y-65754560D01*
X131767338Y-65715897D01*
X131759614Y-65694095D01*
X131759543Y-65693133D01*
X131767378Y-65676721D01*
X131789165Y-65640487D01*
X131822328Y-65588474D01*
X131864291Y-65524725D01*
X131911943Y-65454060D01*
X131960191Y-65382116D01*
X132002151Y-65317274D01*
X132035227Y-65263735D01*
X132056821Y-65225697D01*
X132064343Y-65207533D01*
X132054457Y-65190808D01*
X132026826Y-65157180D01*
X131984495Y-65110010D01*
X131930505Y-65052658D01*
X131867899Y-64988484D01*
X131846983Y-64967497D01*
X131629623Y-64750499D01*
X131387220Y-64915668D01*
X131312781Y-64965864D01*
X131245972Y-65009919D01*
X131190665Y-65045362D01*
X131150729Y-65069719D01*
X131130036Y-65080522D01*
X131128563Y-65080838D01*
X131109058Y-65075143D01*
X131069822Y-65059826D01*
X131017430Y-65037537D01*
X130982355Y-65021893D01*
X130915201Y-64992641D01*
X130847358Y-64965094D01*
X130790034Y-64943737D01*
X130772572Y-64937935D01*
X130725938Y-64921452D01*
X130689905Y-64905340D01*
X130676287Y-64896490D01*
X130667952Y-64876960D01*
X130656137Y-64834334D01*
X130642181Y-64774145D01*
X130627422Y-64701922D01*
X130621355Y-64669600D01*
X130606273Y-64587522D01*
X130591669Y-64508795D01*
X130578980Y-64441109D01*
X130569642Y-64392160D01*
X130567839Y-64382943D01*
X130552799Y-64306743D01*
X130235492Y-64306743D01*
X130131154Y-64306914D01*
X130052213Y-64307616D01*
X129995038Y-64309134D01*
X129955999Y-64311749D01*
X129931465Y-64315746D01*
X129917805Y-64321409D01*
X129911389Y-64329020D01*
X129910199Y-64332143D01*
X129905980Y-64350978D01*
X129897562Y-64392588D01*
X129885961Y-64451630D01*
X129872195Y-64522757D01*
X129857280Y-64600625D01*
X129842232Y-64679887D01*
X129828069Y-64755198D01*
X129815806Y-64821213D01*
X129806461Y-64872587D01*
X129801050Y-64903975D01*
X129800114Y-64910959D01*
X129787596Y-64917285D01*
X129754246Y-64931290D01*
X129706377Y-64950355D01*
X129687629Y-64957634D01*
X129615195Y-64986996D01*
X129535170Y-65021571D01*
X129467728Y-65052537D01*
X129416159Y-65075323D01*
X129373785Y-65090482D01*
X129347834Y-65095542D01*
X129344356Y-65094736D01*
X129327936Y-65084041D01*
X129291417Y-65059620D01*
X129238687Y-65024095D01*
X129173635Y-64980087D01*
X129100151Y-64930217D01*
X129085645Y-64920356D01*
X128999704Y-64862492D01*
X128934261Y-64819956D01*
X128886304Y-64791054D01*
X128852820Y-64774090D01*
X128830795Y-64767367D01*
X128817217Y-64769190D01*
X128817131Y-64769236D01*
X128799297Y-64783586D01*
X128764817Y-64815323D01*
X128717268Y-64861010D01*
X128660222Y-64917204D01*
X128597255Y-64980468D01*
X128590227Y-64987602D01*
X128513020Y-65067330D01*
X128456330Y-65128857D01*
X128419110Y-65173421D01*
X128400315Y-65202257D01*
X128397889Y-65214958D01*
X128408471Y-65233494D01*
X128432916Y-65271961D01*
X128468612Y-65326386D01*
X128512947Y-65392798D01*
X128563311Y-65467225D01*
X128575160Y-65484601D01*
X128743626Y-65731297D01*
X128693062Y-65842706D01*
X128663595Y-65910457D01*
X128633959Y-65983183D01*
X128610330Y-66045703D01*
X128609358Y-66048457D01*
X128591457Y-66097360D01*
X128576320Y-66135057D01*
X128567210Y-66153425D01*
X128567184Y-66153456D01*
X128550717Y-66159285D01*
X128510219Y-66169192D01*
X128450242Y-66182195D01*
X128375340Y-66197309D01*
X128290064Y-66213552D01*
X128282875Y-66214881D01*
X128195014Y-66231175D01*
X128115260Y-66246133D01*
X128048681Y-66258791D01*
X128000347Y-66268186D01*
X127975325Y-66273354D01*
X127974943Y-66273444D01*
X127964299Y-66276589D01*
X127956262Y-66282704D01*
X127950467Y-66295453D01*
X127946547Y-66318500D01*
X127944135Y-66355509D01*
X127942865Y-66410144D01*
X127942371Y-66486067D01*
X127942286Y-66586944D01*
X127942286Y-66600000D01*
X127942348Y-66703910D01*
G37*
X127942348Y-66703910D02*
X127942778Y-66782454D01*
X127943942Y-66839298D01*
X127946207Y-66878105D01*
X127949940Y-66902538D01*
X127955506Y-66916262D01*
X127963273Y-66922940D01*
X127973605Y-66926236D01*
X127974943Y-66926556D01*
X127999079Y-66931562D01*
X128046701Y-66940829D01*
X128112741Y-66953392D01*
X128192128Y-66968287D01*
X128279796Y-66984551D01*
X128282875Y-66985119D01*
X128368789Y-67001410D01*
X128444696Y-67016652D01*
X128506045Y-67029861D01*
X128548282Y-67040054D01*
X128566855Y-67046248D01*
X128567184Y-67046543D01*
X128576253Y-67064788D01*
X128591367Y-67102405D01*
X128609262Y-67151271D01*
X128609358Y-67151543D01*
X128632493Y-67213093D01*
X128661965Y-67285657D01*
X128691597Y-67354057D01*
X128693062Y-67357294D01*
X128743626Y-67468702D01*
X128575160Y-67715399D01*
X128523803Y-67791077D01*
X128477889Y-67859631D01*
X128440030Y-67917088D01*
X128412837Y-67959476D01*
X128398921Y-67982825D01*
X128397889Y-67985042D01*
X128402484Y-68002010D01*
X128424655Y-68033701D01*
X128465447Y-68081352D01*
X128525905Y-68146198D01*
X128590227Y-68212397D01*
X128653612Y-68276214D01*
X128711451Y-68333329D01*
X128760175Y-68380305D01*
X128796210Y-68413703D01*
X128815984Y-68430085D01*
X128817002Y-68430694D01*
X128830572Y-68432505D01*
X128852733Y-68425683D01*
X128886478Y-68408540D01*
X128934800Y-68379393D01*
X129000692Y-68336555D01*
X129085517Y-68279448D01*
X129160177Y-68228766D01*
X129227140Y-68183461D01*
X129282516Y-68146150D01*
X129322420Y-68119452D01*
X129342962Y-68105985D01*
X129344356Y-68105137D01*
X129364038Y-68106781D01*
X129402293Y-68119245D01*
X129451889Y-68140048D01*
X129467728Y-68147462D01*
X129538290Y-68179814D01*
X129618353Y-68214328D01*
X129687629Y-68242365D01*
X129739045Y-68262568D01*
X129778119Y-68278615D01*
X129798541Y-68287888D01*
X129800114Y-68289041D01*
X129802721Y-68306096D01*
X129809863Y-68346298D01*
X129820523Y-68404302D01*
X129833685Y-68474763D01*
X129848333Y-68552335D01*
X129863449Y-68631672D01*
X129878018Y-68707431D01*
X129891022Y-68774264D01*
X129901445Y-68826828D01*
X129908270Y-68859776D01*
X129910199Y-68867857D01*
X129914962Y-68876205D01*
X129925718Y-68882506D01*
X129946098Y-68887045D01*
X129979734Y-68890104D01*
X130030255Y-68891967D01*
X130101292Y-68892918D01*
X130196476Y-68893240D01*
X130235492Y-68893257D01*
X130552799Y-68893257D01*
X130567839Y-68817057D01*
X130575995Y-68774663D01*
X130587899Y-68711400D01*
X130602116Y-68634962D01*
X130617210Y-68553043D01*
X130621355Y-68530400D01*
X130636053Y-68454806D01*
X130650505Y-68388953D01*
X130663375Y-68338366D01*
X130673322Y-68308574D01*
X130676287Y-68303612D01*
X130697283Y-68291426D01*
X130737967Y-68273953D01*
X130790322Y-68254577D01*
X130801600Y-68250734D01*
X130871523Y-68225339D01*
X130950418Y-68193817D01*
X131021266Y-68162969D01*
X131021595Y-68162817D01*
X131132733Y-68111447D01*
X131381253Y-68280399D01*
X131629772Y-68449352D01*
X131847058Y-68232429D01*
X131911726Y-68166819D01*
X131968733Y-68106979D01*
X132015033Y-68056267D01*
X132047584Y-68018046D01*
X132063343Y-67995675D01*
X132064343Y-67992466D01*
X132056469Y-67973626D01*
X132034578Y-67935180D01*
X132001267Y-67881330D01*
X131959131Y-67816276D01*
X131911943Y-67745940D01*
X131863810Y-67674555D01*
X131821928Y-67610908D01*
X131788871Y-67559041D01*
X131767218Y-67522995D01*
X131759543Y-67506867D01*
X131766037Y-67487189D01*
X131783150Y-67449875D01*
X131807326Y-67402621D01*
X131810013Y-67397612D01*
X131841927Y-67333977D01*
X131857579Y-67290341D01*
X131857745Y-67263202D01*
X131843204Y-67249057D01*
X131843000Y-67248975D01*
X131825779Y-67241905D01*
X131784899Y-67225042D01*
X131723525Y-67199695D01*
X131644819Y-67167171D01*
X131551947Y-67128778D01*
X131448072Y-67085822D01*
X131347502Y-67044222D01*
X131236516Y-66998504D01*
X131133703Y-66956526D01*
X131042215Y-66919548D01*
X130965201Y-66888827D01*
X130905815Y-66865622D01*
X130867209Y-66851190D01*
X130852800Y-66846743D01*
X130836272Y-66857896D01*
X130809930Y-66887069D01*
X130780887Y-66925971D01*
X130689039Y-67036757D01*
X130583759Y-67123351D01*
X130467266Y-67184716D01*
X130341776Y-67219815D01*
X130209507Y-67227608D01*
X130148457Y-67221943D01*
X130021795Y-67191078D01*
X129909941Y-67137920D01*
X129814001Y-67065767D01*
X129735076Y-66977917D01*
X129674270Y-66877665D01*
X129632687Y-66768310D01*
X129611428Y-66653147D01*
X129611599Y-66535475D01*
X129634301Y-66418590D01*
X129680638Y-66305789D01*
X129751713Y-66200369D01*
X129791911Y-66156368D01*
X129895129Y-66071979D01*
X130007925Y-66013222D01*
X130127010Y-65979704D01*
X130249095Y-65971035D01*
X130370893Y-65986823D01*
X130489116Y-66026678D01*
X130600475Y-66090207D01*
X130701684Y-66177021D01*
X130780887Y-66274029D01*
X130811162Y-66314437D01*
X130837219Y-66342982D01*
X130852825Y-66353257D01*
X130869843Y-66347877D01*
X130910500Y-66332575D01*
X130971642Y-66308612D01*
X131050119Y-66277244D01*
X131142780Y-66239732D01*
X131246472Y-66197333D01*
X131347526Y-66155663D01*
X131458607Y-66109690D01*
X131561541Y-66067107D01*
X131653165Y-66029221D01*
X131730316Y-65997340D01*
X131789831Y-65972771D01*
X131828544Y-65956820D01*
X131843000Y-65950910D01*
X131857685Y-65936948D01*
X131857642Y-65909940D01*
X131842099Y-65866413D01*
X131810284Y-65802890D01*
X131810013Y-65802388D01*
X131785323Y-65754560D01*
X131767338Y-65715897D01*
X131759614Y-65694095D01*
X131759543Y-65693133D01*
X131767378Y-65676721D01*
X131789165Y-65640487D01*
X131822328Y-65588474D01*
X131864291Y-65524725D01*
X131911943Y-65454060D01*
X131960191Y-65382116D01*
X132002151Y-65317274D01*
X132035227Y-65263735D01*
X132056821Y-65225697D01*
X132064343Y-65207533D01*
X132054457Y-65190808D01*
X132026826Y-65157180D01*
X131984495Y-65110010D01*
X131930505Y-65052658D01*
X131867899Y-64988484D01*
X131846983Y-64967497D01*
X131629623Y-64750499D01*
X131387220Y-64915668D01*
X131312781Y-64965864D01*
X131245972Y-65009919D01*
X131190665Y-65045362D01*
X131150729Y-65069719D01*
X131130036Y-65080522D01*
X131128563Y-65080838D01*
X131109058Y-65075143D01*
X131069822Y-65059826D01*
X131017430Y-65037537D01*
X130982355Y-65021893D01*
X130915201Y-64992641D01*
X130847358Y-64965094D01*
X130790034Y-64943737D01*
X130772572Y-64937935D01*
X130725938Y-64921452D01*
X130689905Y-64905340D01*
X130676287Y-64896490D01*
X130667952Y-64876960D01*
X130656137Y-64834334D01*
X130642181Y-64774145D01*
X130627422Y-64701922D01*
X130621355Y-64669600D01*
X130606273Y-64587522D01*
X130591669Y-64508795D01*
X130578980Y-64441109D01*
X130569642Y-64392160D01*
X130567839Y-64382943D01*
X130552799Y-64306743D01*
X130235492Y-64306743D01*
X130131154Y-64306914D01*
X130052213Y-64307616D01*
X129995038Y-64309134D01*
X129955999Y-64311749D01*
X129931465Y-64315746D01*
X129917805Y-64321409D01*
X129911389Y-64329020D01*
X129910199Y-64332143D01*
X129905980Y-64350978D01*
X129897562Y-64392588D01*
X129885961Y-64451630D01*
X129872195Y-64522757D01*
X129857280Y-64600625D01*
X129842232Y-64679887D01*
X129828069Y-64755198D01*
X129815806Y-64821213D01*
X129806461Y-64872587D01*
X129801050Y-64903975D01*
X129800114Y-64910959D01*
X129787596Y-64917285D01*
X129754246Y-64931290D01*
X129706377Y-64950355D01*
X129687629Y-64957634D01*
X129615195Y-64986996D01*
X129535170Y-65021571D01*
X129467728Y-65052537D01*
X129416159Y-65075323D01*
X129373785Y-65090482D01*
X129347834Y-65095542D01*
X129344356Y-65094736D01*
X129327936Y-65084041D01*
X129291417Y-65059620D01*
X129238687Y-65024095D01*
X129173635Y-64980087D01*
X129100151Y-64930217D01*
X129085645Y-64920356D01*
X128999704Y-64862492D01*
X128934261Y-64819956D01*
X128886304Y-64791054D01*
X128852820Y-64774090D01*
X128830795Y-64767367D01*
X128817217Y-64769190D01*
X128817131Y-64769236D01*
X128799297Y-64783586D01*
X128764817Y-64815323D01*
X128717268Y-64861010D01*
X128660222Y-64917204D01*
X128597255Y-64980468D01*
X128590227Y-64987602D01*
X128513020Y-65067330D01*
X128456330Y-65128857D01*
X128419110Y-65173421D01*
X128400315Y-65202257D01*
X128397889Y-65214958D01*
X128408471Y-65233494D01*
X128432916Y-65271961D01*
X128468612Y-65326386D01*
X128512947Y-65392798D01*
X128563311Y-65467225D01*
X128575160Y-65484601D01*
X128743626Y-65731297D01*
X128693062Y-65842706D01*
X128663595Y-65910457D01*
X128633959Y-65983183D01*
X128610330Y-66045703D01*
X128609358Y-66048457D01*
X128591457Y-66097360D01*
X128576320Y-66135057D01*
X128567210Y-66153425D01*
X128567184Y-66153456D01*
X128550717Y-66159285D01*
X128510219Y-66169192D01*
X128450242Y-66182195D01*
X128375340Y-66197309D01*
X128290064Y-66213552D01*
X128282875Y-66214881D01*
X128195014Y-66231175D01*
X128115260Y-66246133D01*
X128048681Y-66258791D01*
X128000347Y-66268186D01*
X127975325Y-66273354D01*
X127974943Y-66273444D01*
X127964299Y-66276589D01*
X127956262Y-66282704D01*
X127950467Y-66295453D01*
X127946547Y-66318500D01*
X127944135Y-66355509D01*
X127942865Y-66410144D01*
X127942371Y-66486067D01*
X127942286Y-66586944D01*
X127942286Y-66600000D01*
X127942348Y-66703910D01*
D12*
%TO.C,U1*%
X103510000Y-87500000D02*
X103210000Y-87500000D01*
X103510000Y-87200000D02*
X103510000Y-87500000D01*
X96710000Y-87500000D02*
X97010000Y-87500000D01*
X96710000Y-87200000D02*
X96710000Y-87500000D01*
X96710000Y-77500000D02*
X97010000Y-77500000D01*
X96710000Y-77800000D02*
X96710000Y-77500000D01*
X103510000Y-77500000D02*
X103210000Y-77500000D01*
X103510000Y-77800000D02*
X103510000Y-77500000D01*
D13*
X100621904Y-75632380D02*
X100621904Y-76441904D01*
X100574285Y-76537142D01*
X100526666Y-76584761D01*
X100431428Y-76632380D01*
X100240952Y-76632380D01*
X100145714Y-76584761D01*
X100098095Y-76537142D01*
X100050476Y-76441904D01*
X100050476Y-75632380D01*
X99050476Y-76632380D02*
X99621904Y-76632380D01*
X99336190Y-76632380D02*
X99336190Y-75632380D01*
X99431428Y-75775238D01*
X99526666Y-75870476D01*
X99621904Y-75918095D01*
%TD*%
M02*
