%TF.GenerationSoftware,KiCad,Pcbnew,(5.1.9-0-10_14)*%
%TF.CreationDate,2021-04-17T23:10:34-04:00*%
%TF.ProjectId,BioreactorPCB,42696f72-6561-4637-946f-725043422e6b,rev?*%
%TF.SameCoordinates,Original*%
%TF.FileFunction,Legend,Top*%
%TF.FilePolarity,Positive*%
%FSLAX46Y46*%
G04 Gerber Fmt 4.6, Leading zero omitted, Abs format (unit mm)*
G04 Created by KiCad (PCBNEW (5.1.9-0-10_14)) date 2021-04-17 23:10:34*
%MOMM*%
%LPD*%
G01*
G04 APERTURE LIST*
%ADD10C,0.200000*%
%ADD11C,0.300000*%
%ADD12C,0.150000*%
%ADD13C,0.120000*%
%ADD14C,0.127000*%
%ADD15C,0.010000*%
%ADD16C,0.100000*%
%ADD17C,0.015000*%
%ADD18C,0.254000*%
G04 APERTURE END LIST*
D10*
X97861904Y-70702380D02*
X98433333Y-70702380D01*
X98147619Y-71702380D02*
X98147619Y-70702380D01*
X99147619Y-71654761D02*
X99052380Y-71702380D01*
X98861904Y-71702380D01*
X98766666Y-71654761D01*
X98719047Y-71559523D01*
X98719047Y-71178571D01*
X98766666Y-71083333D01*
X98861904Y-71035714D01*
X99052380Y-71035714D01*
X99147619Y-71083333D01*
X99195238Y-71178571D01*
X99195238Y-71273809D01*
X98719047Y-71369047D01*
X99623809Y-71702380D02*
X99623809Y-71035714D01*
X99623809Y-71130952D02*
X99671428Y-71083333D01*
X99766666Y-71035714D01*
X99909523Y-71035714D01*
X100004761Y-71083333D01*
X100052380Y-71178571D01*
X100052380Y-71702380D01*
X100052380Y-71178571D02*
X100100000Y-71083333D01*
X100195238Y-71035714D01*
X100338095Y-71035714D01*
X100433333Y-71083333D01*
X100480952Y-71178571D01*
X100480952Y-71702380D01*
X100957142Y-71035714D02*
X100957142Y-72035714D01*
X100957142Y-71083333D02*
X101052380Y-71035714D01*
X101242857Y-71035714D01*
X101338095Y-71083333D01*
X101385714Y-71130952D01*
X101433333Y-71226190D01*
X101433333Y-71511904D01*
X101385714Y-71607142D01*
X101338095Y-71654761D01*
X101242857Y-71702380D01*
X101052380Y-71702380D01*
X100957142Y-71654761D01*
X102576190Y-71654761D02*
X102719047Y-71702380D01*
X102957142Y-71702380D01*
X103052380Y-71654761D01*
X103100000Y-71607142D01*
X103147619Y-71511904D01*
X103147619Y-71416666D01*
X103100000Y-71321428D01*
X103052380Y-71273809D01*
X102957142Y-71226190D01*
X102766666Y-71178571D01*
X102671428Y-71130952D01*
X102623809Y-71083333D01*
X102576190Y-70988095D01*
X102576190Y-70892857D01*
X102623809Y-70797619D01*
X102671428Y-70750000D01*
X102766666Y-70702380D01*
X103004761Y-70702380D01*
X103147619Y-70750000D01*
X103957142Y-71654761D02*
X103861904Y-71702380D01*
X103671428Y-71702380D01*
X103576190Y-71654761D01*
X103528571Y-71559523D01*
X103528571Y-71178571D01*
X103576190Y-71083333D01*
X103671428Y-71035714D01*
X103861904Y-71035714D01*
X103957142Y-71083333D01*
X104004761Y-71178571D01*
X104004761Y-71273809D01*
X103528571Y-71369047D01*
X104433333Y-71035714D02*
X104433333Y-71702380D01*
X104433333Y-71130952D02*
X104480952Y-71083333D01*
X104576190Y-71035714D01*
X104719047Y-71035714D01*
X104814285Y-71083333D01*
X104861904Y-71178571D01*
X104861904Y-71702380D01*
X105290476Y-71654761D02*
X105385714Y-71702380D01*
X105576190Y-71702380D01*
X105671428Y-71654761D01*
X105719047Y-71559523D01*
X105719047Y-71511904D01*
X105671428Y-71416666D01*
X105576190Y-71369047D01*
X105433333Y-71369047D01*
X105338095Y-71321428D01*
X105290476Y-71226190D01*
X105290476Y-71178571D01*
X105338095Y-71083333D01*
X105433333Y-71035714D01*
X105576190Y-71035714D01*
X105671428Y-71083333D01*
X106290476Y-71702380D02*
X106195238Y-71654761D01*
X106147619Y-71607142D01*
X106100000Y-71511904D01*
X106100000Y-71226190D01*
X106147619Y-71130952D01*
X106195238Y-71083333D01*
X106290476Y-71035714D01*
X106433333Y-71035714D01*
X106528571Y-71083333D01*
X106576190Y-71130952D01*
X106623809Y-71226190D01*
X106623809Y-71511904D01*
X106576190Y-71607142D01*
X106528571Y-71654761D01*
X106433333Y-71702380D01*
X106290476Y-71702380D01*
X107052380Y-71702380D02*
X107052380Y-71035714D01*
X107052380Y-71226190D02*
X107100000Y-71130952D01*
X107147619Y-71083333D01*
X107242857Y-71035714D01*
X107338095Y-71035714D01*
D11*
X73142857Y-114515476D02*
X73142857Y-113265476D01*
X73559523Y-114158333D01*
X73976190Y-113265476D01*
X73976190Y-114515476D01*
X74571428Y-114515476D02*
X74571428Y-113682142D01*
X74571428Y-113265476D02*
X74511904Y-113325000D01*
X74571428Y-113384523D01*
X74630952Y-113325000D01*
X74571428Y-113265476D01*
X74571428Y-113384523D01*
X75702380Y-114455952D02*
X75583333Y-114515476D01*
X75345238Y-114515476D01*
X75226190Y-114455952D01*
X75166666Y-114396428D01*
X75107142Y-114277380D01*
X75107142Y-113920238D01*
X75166666Y-113801190D01*
X75226190Y-113741666D01*
X75345238Y-113682142D01*
X75583333Y-113682142D01*
X75702380Y-113741666D01*
X76238095Y-114515476D02*
X76238095Y-113682142D01*
X76238095Y-113920238D02*
X76297619Y-113801190D01*
X76357142Y-113741666D01*
X76476190Y-113682142D01*
X76595238Y-113682142D01*
X77190476Y-114515476D02*
X77071428Y-114455952D01*
X77011904Y-114396428D01*
X76952380Y-114277380D01*
X76952380Y-113920238D01*
X77011904Y-113801190D01*
X77071428Y-113741666D01*
X77190476Y-113682142D01*
X77369047Y-113682142D01*
X77488095Y-113741666D01*
X77547619Y-113801190D01*
X77607142Y-113920238D01*
X77607142Y-114277380D01*
X77547619Y-114396428D01*
X77488095Y-114455952D01*
X77369047Y-114515476D01*
X77190476Y-114515476D01*
X78142857Y-114515476D02*
X78142857Y-113265476D01*
X78142857Y-113741666D02*
X78261904Y-113682142D01*
X78500000Y-113682142D01*
X78619047Y-113741666D01*
X78678571Y-113801190D01*
X78738095Y-113920238D01*
X78738095Y-114277380D01*
X78678571Y-114396428D01*
X78619047Y-114455952D01*
X78500000Y-114515476D01*
X78261904Y-114515476D01*
X78142857Y-114455952D01*
X79273809Y-114515476D02*
X79273809Y-113682142D01*
X79273809Y-113265476D02*
X79214285Y-113325000D01*
X79273809Y-113384523D01*
X79333333Y-113325000D01*
X79273809Y-113265476D01*
X79273809Y-113384523D01*
X80404761Y-114515476D02*
X80404761Y-113860714D01*
X80345238Y-113741666D01*
X80226190Y-113682142D01*
X79988095Y-113682142D01*
X79869047Y-113741666D01*
X80404761Y-114455952D02*
X80285714Y-114515476D01*
X79988095Y-114515476D01*
X79869047Y-114455952D01*
X79809523Y-114336904D01*
X79809523Y-114217857D01*
X79869047Y-114098809D01*
X79988095Y-114039285D01*
X80285714Y-114039285D01*
X80404761Y-113979761D01*
X81178571Y-114515476D02*
X81059523Y-114455952D01*
X81000000Y-114336904D01*
X81000000Y-113265476D01*
X83023809Y-113860714D02*
X83202380Y-113920238D01*
X83261904Y-113979761D01*
X83321428Y-114098809D01*
X83321428Y-114277380D01*
X83261904Y-114396428D01*
X83202380Y-114455952D01*
X83083333Y-114515476D01*
X82607142Y-114515476D01*
X82607142Y-113265476D01*
X83023809Y-113265476D01*
X83142857Y-113325000D01*
X83202380Y-113384523D01*
X83261904Y-113503571D01*
X83261904Y-113622619D01*
X83202380Y-113741666D01*
X83142857Y-113801190D01*
X83023809Y-113860714D01*
X82607142Y-113860714D01*
X83857142Y-114515476D02*
X83857142Y-113682142D01*
X83857142Y-113265476D02*
X83797619Y-113325000D01*
X83857142Y-113384523D01*
X83916666Y-113325000D01*
X83857142Y-113265476D01*
X83857142Y-113384523D01*
X84630952Y-114515476D02*
X84511904Y-114455952D01*
X84452380Y-114396428D01*
X84392857Y-114277380D01*
X84392857Y-113920238D01*
X84452380Y-113801190D01*
X84511904Y-113741666D01*
X84630952Y-113682142D01*
X84809523Y-113682142D01*
X84928571Y-113741666D01*
X84988095Y-113801190D01*
X85047619Y-113920238D01*
X85047619Y-114277380D01*
X84988095Y-114396428D01*
X84928571Y-114455952D01*
X84809523Y-114515476D01*
X84630952Y-114515476D01*
X85583333Y-114515476D02*
X85583333Y-113682142D01*
X85583333Y-113920238D02*
X85642857Y-113801190D01*
X85702380Y-113741666D01*
X85821428Y-113682142D01*
X85940476Y-113682142D01*
X86833333Y-114455952D02*
X86714285Y-114515476D01*
X86476190Y-114515476D01*
X86357142Y-114455952D01*
X86297619Y-114336904D01*
X86297619Y-113860714D01*
X86357142Y-113741666D01*
X86476190Y-113682142D01*
X86714285Y-113682142D01*
X86833333Y-113741666D01*
X86892857Y-113860714D01*
X86892857Y-113979761D01*
X86297619Y-114098809D01*
X87964285Y-114515476D02*
X87964285Y-113860714D01*
X87904761Y-113741666D01*
X87785714Y-113682142D01*
X87547619Y-113682142D01*
X87428571Y-113741666D01*
X87964285Y-114455952D02*
X87845238Y-114515476D01*
X87547619Y-114515476D01*
X87428571Y-114455952D01*
X87369047Y-114336904D01*
X87369047Y-114217857D01*
X87428571Y-114098809D01*
X87547619Y-114039285D01*
X87845238Y-114039285D01*
X87964285Y-113979761D01*
X89095238Y-114455952D02*
X88976190Y-114515476D01*
X88738095Y-114515476D01*
X88619047Y-114455952D01*
X88559523Y-114396428D01*
X88500000Y-114277380D01*
X88500000Y-113920238D01*
X88559523Y-113801190D01*
X88619047Y-113741666D01*
X88738095Y-113682142D01*
X88976190Y-113682142D01*
X89095238Y-113741666D01*
X89452380Y-113682142D02*
X89928571Y-113682142D01*
X89630952Y-113265476D02*
X89630952Y-114336904D01*
X89690476Y-114455952D01*
X89809523Y-114515476D01*
X89928571Y-114515476D01*
X90523809Y-114515476D02*
X90404761Y-114455952D01*
X90345238Y-114396428D01*
X90285714Y-114277380D01*
X90285714Y-113920238D01*
X90345238Y-113801190D01*
X90404761Y-113741666D01*
X90523809Y-113682142D01*
X90702380Y-113682142D01*
X90821428Y-113741666D01*
X90880952Y-113801190D01*
X90940476Y-113920238D01*
X90940476Y-114277380D01*
X90880952Y-114396428D01*
X90821428Y-114455952D01*
X90702380Y-114515476D01*
X90523809Y-114515476D01*
X91476190Y-114515476D02*
X91476190Y-113682142D01*
X91476190Y-113920238D02*
X91535714Y-113801190D01*
X91595238Y-113741666D01*
X91714285Y-113682142D01*
X91833333Y-113682142D01*
X93202380Y-114515476D02*
X93202380Y-113265476D01*
X93202380Y-113741666D02*
X93321428Y-113682142D01*
X93559523Y-113682142D01*
X93678571Y-113741666D01*
X93738095Y-113801190D01*
X93797619Y-113920238D01*
X93797619Y-114277380D01*
X93738095Y-114396428D01*
X93678571Y-114455952D01*
X93559523Y-114515476D01*
X93321428Y-114515476D01*
X93202380Y-114455952D01*
X94214285Y-113682142D02*
X94511904Y-114515476D01*
X94809523Y-113682142D02*
X94511904Y-114515476D01*
X94392857Y-114813095D01*
X94333333Y-114872619D01*
X94214285Y-114932142D01*
X96476190Y-113265476D02*
X96714285Y-113265476D01*
X96833333Y-113325000D01*
X96952380Y-113444047D01*
X97011904Y-113682142D01*
X97011904Y-114098809D01*
X96952380Y-114336904D01*
X96833333Y-114455952D01*
X96714285Y-114515476D01*
X96476190Y-114515476D01*
X96357142Y-114455952D01*
X96238095Y-114336904D01*
X96178571Y-114098809D01*
X96178571Y-113682142D01*
X96238095Y-113444047D01*
X96357142Y-113325000D01*
X96476190Y-113265476D01*
X97547619Y-113682142D02*
X97547619Y-114932142D01*
X97547619Y-113741666D02*
X97666666Y-113682142D01*
X97904761Y-113682142D01*
X98023809Y-113741666D01*
X98083333Y-113801190D01*
X98142857Y-113920238D01*
X98142857Y-114277380D01*
X98083333Y-114396428D01*
X98023809Y-114455952D01*
X97904761Y-114515476D01*
X97666666Y-114515476D01*
X97547619Y-114455952D01*
X99154761Y-114455952D02*
X99035714Y-114515476D01*
X98797619Y-114515476D01*
X98678571Y-114455952D01*
X98619047Y-114336904D01*
X98619047Y-113860714D01*
X98678571Y-113741666D01*
X98797619Y-113682142D01*
X99035714Y-113682142D01*
X99154761Y-113741666D01*
X99214285Y-113860714D01*
X99214285Y-113979761D01*
X98619047Y-114098809D01*
X99749999Y-113682142D02*
X99749999Y-114515476D01*
X99749999Y-113801190D02*
X99809523Y-113741666D01*
X99928571Y-113682142D01*
X100107142Y-113682142D01*
X100226190Y-113741666D01*
X100285714Y-113860714D01*
X100285714Y-114515476D01*
X102249999Y-113860714D02*
X102428571Y-113920238D01*
X102488095Y-113979761D01*
X102547619Y-114098809D01*
X102547619Y-114277380D01*
X102488095Y-114396428D01*
X102428571Y-114455952D01*
X102309523Y-114515476D01*
X101833333Y-114515476D01*
X101833333Y-113265476D01*
X102249999Y-113265476D01*
X102369047Y-113325000D01*
X102428571Y-113384523D01*
X102488095Y-113503571D01*
X102488095Y-113622619D01*
X102428571Y-113741666D01*
X102369047Y-113801190D01*
X102249999Y-113860714D01*
X101833333Y-113860714D01*
X103083333Y-114515476D02*
X103083333Y-113682142D01*
X103083333Y-113265476D02*
X103023809Y-113325000D01*
X103083333Y-113384523D01*
X103142857Y-113325000D01*
X103083333Y-113265476D01*
X103083333Y-113384523D01*
X103857142Y-114515476D02*
X103738095Y-114455952D01*
X103678571Y-114396428D01*
X103619047Y-114277380D01*
X103619047Y-113920238D01*
X103678571Y-113801190D01*
X103738095Y-113741666D01*
X103857142Y-113682142D01*
X104035714Y-113682142D01*
X104154761Y-113741666D01*
X104214285Y-113801190D01*
X104273809Y-113920238D01*
X104273809Y-114277380D01*
X104214285Y-114396428D01*
X104154761Y-114455952D01*
X104035714Y-114515476D01*
X103857142Y-114515476D01*
X105285714Y-114455952D02*
X105166666Y-114515476D01*
X104928571Y-114515476D01*
X104809523Y-114455952D01*
X104749999Y-114336904D01*
X104749999Y-113860714D01*
X104809523Y-113741666D01*
X104928571Y-113682142D01*
X105166666Y-113682142D01*
X105285714Y-113741666D01*
X105345238Y-113860714D01*
X105345238Y-113979761D01*
X104749999Y-114098809D01*
X106416666Y-114455952D02*
X106297619Y-114515476D01*
X106059523Y-114515476D01*
X105940476Y-114455952D01*
X105880952Y-114396428D01*
X105821428Y-114277380D01*
X105821428Y-113920238D01*
X105880952Y-113801190D01*
X105940476Y-113741666D01*
X106059523Y-113682142D01*
X106297619Y-113682142D01*
X106416666Y-113741666D01*
X107130952Y-114515476D02*
X107011904Y-114455952D01*
X106952380Y-114396428D01*
X106892857Y-114277380D01*
X106892857Y-113920238D01*
X106952380Y-113801190D01*
X107011904Y-113741666D01*
X107130952Y-113682142D01*
X107309523Y-113682142D01*
X107428571Y-113741666D01*
X107488095Y-113801190D01*
X107547619Y-113920238D01*
X107547619Y-114277380D01*
X107488095Y-114396428D01*
X107428571Y-114455952D01*
X107309523Y-114515476D01*
X107130952Y-114515476D01*
X108083333Y-113682142D02*
X108083333Y-114515476D01*
X108083333Y-113801190D02*
X108142857Y-113741666D01*
X108261904Y-113682142D01*
X108440476Y-113682142D01*
X108559523Y-113741666D01*
X108619047Y-113860714D01*
X108619047Y-114515476D01*
X109392857Y-114515476D02*
X109273809Y-114455952D01*
X109214285Y-114396428D01*
X109154761Y-114277380D01*
X109154761Y-113920238D01*
X109214285Y-113801190D01*
X109273809Y-113741666D01*
X109392857Y-113682142D01*
X109571428Y-113682142D01*
X109690476Y-113741666D01*
X109749999Y-113801190D01*
X109809523Y-113920238D01*
X109809523Y-114277380D01*
X109749999Y-114396428D01*
X109690476Y-114455952D01*
X109571428Y-114515476D01*
X109392857Y-114515476D01*
X110345238Y-114515476D02*
X110345238Y-113682142D01*
X110345238Y-113801190D02*
X110404761Y-113741666D01*
X110523809Y-113682142D01*
X110702380Y-113682142D01*
X110821428Y-113741666D01*
X110880952Y-113860714D01*
X110880952Y-114515476D01*
X110880952Y-113860714D02*
X110940476Y-113741666D01*
X111059523Y-113682142D01*
X111238095Y-113682142D01*
X111357142Y-113741666D01*
X111416666Y-113860714D01*
X111416666Y-114515476D01*
X111892857Y-113682142D02*
X112190476Y-114515476D01*
X112488095Y-113682142D02*
X112190476Y-114515476D01*
X112071428Y-114813095D01*
X112011904Y-114872619D01*
X111892857Y-114932142D01*
X114511904Y-114515476D02*
X113916666Y-114515476D01*
X113916666Y-113265476D01*
X115464285Y-114515476D02*
X115464285Y-113860714D01*
X115404761Y-113741666D01*
X115285714Y-113682142D01*
X115047619Y-113682142D01*
X114928571Y-113741666D01*
X115464285Y-114455952D02*
X115345238Y-114515476D01*
X115047619Y-114515476D01*
X114928571Y-114455952D01*
X114869047Y-114336904D01*
X114869047Y-114217857D01*
X114928571Y-114098809D01*
X115047619Y-114039285D01*
X115345238Y-114039285D01*
X115464285Y-113979761D01*
X116059523Y-114515476D02*
X116059523Y-113265476D01*
X116059523Y-113741666D02*
X116178571Y-113682142D01*
X116416666Y-113682142D01*
X116535714Y-113741666D01*
X116595238Y-113801190D01*
X116654761Y-113920238D01*
X116654761Y-114277380D01*
X116595238Y-114396428D01*
X116535714Y-114455952D01*
X116416666Y-114515476D01*
X116178571Y-114515476D01*
X116059523Y-114455952D01*
X118142857Y-114039285D02*
X119095238Y-114039285D01*
X120583333Y-114158333D02*
X121178571Y-114158333D01*
X120464285Y-114515476D02*
X120880952Y-113265476D01*
X121297619Y-114515476D01*
X122250000Y-113682142D02*
X122250000Y-114694047D01*
X122190476Y-114813095D01*
X122130952Y-114872619D01*
X122011904Y-114932142D01*
X121833333Y-114932142D01*
X121714285Y-114872619D01*
X122250000Y-114455952D02*
X122130952Y-114515476D01*
X121892857Y-114515476D01*
X121773809Y-114455952D01*
X121714285Y-114396428D01*
X121654761Y-114277380D01*
X121654761Y-113920238D01*
X121714285Y-113801190D01*
X121773809Y-113741666D01*
X121892857Y-113682142D01*
X122130952Y-113682142D01*
X122250000Y-113741666D01*
X123380952Y-114515476D02*
X123380952Y-113860714D01*
X123321428Y-113741666D01*
X123202380Y-113682142D01*
X122964285Y-113682142D01*
X122845238Y-113741666D01*
X123380952Y-114455952D02*
X123261904Y-114515476D01*
X122964285Y-114515476D01*
X122845238Y-114455952D01*
X122785714Y-114336904D01*
X122785714Y-114217857D01*
X122845238Y-114098809D01*
X122964285Y-114039285D01*
X123261904Y-114039285D01*
X123380952Y-113979761D01*
X123976190Y-114515476D02*
X123976190Y-113682142D01*
X123976190Y-113920238D02*
X124035714Y-113801190D01*
X124095238Y-113741666D01*
X124214285Y-113682142D01*
X124333333Y-113682142D01*
X125285714Y-114515476D02*
X125285714Y-113860714D01*
X125226190Y-113741666D01*
X125107142Y-113682142D01*
X124869047Y-113682142D01*
X124749999Y-113741666D01*
X125285714Y-114455952D02*
X125166666Y-114515476D01*
X124869047Y-114515476D01*
X124749999Y-114455952D01*
X124690476Y-114336904D01*
X124690476Y-114217857D01*
X124749999Y-114098809D01*
X124869047Y-114039285D01*
X125166666Y-114039285D01*
X125285714Y-113979761D01*
X126833333Y-114515476D02*
X126833333Y-113682142D01*
X126833333Y-113920238D02*
X126892857Y-113801190D01*
X126952380Y-113741666D01*
X127071428Y-113682142D01*
X127190476Y-113682142D01*
X128083333Y-114455952D02*
X127964285Y-114515476D01*
X127726190Y-114515476D01*
X127607142Y-114455952D01*
X127547619Y-114336904D01*
X127547619Y-113860714D01*
X127607142Y-113741666D01*
X127726190Y-113682142D01*
X127964285Y-113682142D01*
X128083333Y-113741666D01*
X128142857Y-113860714D01*
X128142857Y-113979761D01*
X127547619Y-114098809D01*
X128678571Y-114515476D02*
X128678571Y-113682142D01*
X128678571Y-113801190D02*
X128738095Y-113741666D01*
X128857142Y-113682142D01*
X129035714Y-113682142D01*
X129154761Y-113741666D01*
X129214285Y-113860714D01*
X129214285Y-114515476D01*
X129214285Y-113860714D02*
X129273809Y-113741666D01*
X129392857Y-113682142D01*
X129571428Y-113682142D01*
X129690476Y-113741666D01*
X129750000Y-113860714D01*
X129750000Y-114515476D01*
X130345238Y-114515476D02*
X130345238Y-113682142D01*
X130345238Y-113265476D02*
X130285714Y-113325000D01*
X130345238Y-113384523D01*
X130404761Y-113325000D01*
X130345238Y-113265476D01*
X130345238Y-113384523D01*
X130821428Y-114515476D02*
X131476190Y-113682142D01*
X130821428Y-113682142D02*
X131476190Y-114515476D01*
D12*
X132289285Y-112360714D02*
X131539285Y-112360714D01*
X132253571Y-112360714D02*
X132289285Y-112432142D01*
X132289285Y-112575000D01*
X132253571Y-112646428D01*
X132217857Y-112682142D01*
X132146428Y-112717857D01*
X131932142Y-112717857D01*
X131860714Y-112682142D01*
X131825000Y-112646428D01*
X131789285Y-112575000D01*
X131789285Y-112432142D01*
X131825000Y-112360714D01*
X132253571Y-111717857D02*
X132289285Y-111789285D01*
X132289285Y-111932142D01*
X132253571Y-112003571D01*
X132182142Y-112039285D01*
X131896428Y-112039285D01*
X131825000Y-112003571D01*
X131789285Y-111932142D01*
X131789285Y-111789285D01*
X131825000Y-111717857D01*
X131896428Y-111682142D01*
X131967857Y-111682142D01*
X132039285Y-112039285D01*
X132253571Y-111396428D02*
X132289285Y-111325000D01*
X132289285Y-111182142D01*
X132253571Y-111110714D01*
X132182142Y-111075000D01*
X132146428Y-111075000D01*
X132075000Y-111110714D01*
X132039285Y-111182142D01*
X132039285Y-111289285D01*
X132003571Y-111360714D01*
X131932142Y-111396428D01*
X131896428Y-111396428D01*
X131825000Y-111360714D01*
X131789285Y-111289285D01*
X131789285Y-111182142D01*
X131825000Y-111110714D01*
X132289285Y-110753571D02*
X131789285Y-110753571D01*
X131539285Y-110753571D02*
X131575000Y-110789285D01*
X131610714Y-110753571D01*
X131575000Y-110717857D01*
X131539285Y-110753571D01*
X131610714Y-110753571D01*
X131789285Y-110075000D02*
X132396428Y-110075000D01*
X132467857Y-110110714D01*
X132503571Y-110146428D01*
X132539285Y-110217857D01*
X132539285Y-110325000D01*
X132503571Y-110396428D01*
X132253571Y-110075000D02*
X132289285Y-110146428D01*
X132289285Y-110289285D01*
X132253571Y-110360714D01*
X132217857Y-110396428D01*
X132146428Y-110432142D01*
X131932142Y-110432142D01*
X131860714Y-110396428D01*
X131825000Y-110360714D01*
X131789285Y-110289285D01*
X131789285Y-110146428D01*
X131825000Y-110075000D01*
X131789285Y-109717857D02*
X132289285Y-109717857D01*
X131860714Y-109717857D02*
X131825000Y-109682142D01*
X131789285Y-109610714D01*
X131789285Y-109503571D01*
X131825000Y-109432142D01*
X131896428Y-109396428D01*
X132289285Y-109396428D01*
X132289285Y-108467857D02*
X131539285Y-108467857D01*
X131825000Y-108467857D02*
X131789285Y-108396428D01*
X131789285Y-108253571D01*
X131825000Y-108182142D01*
X131860714Y-108146428D01*
X131932142Y-108110714D01*
X132146428Y-108110714D01*
X132217857Y-108146428D01*
X132253571Y-108182142D01*
X132289285Y-108253571D01*
X132289285Y-108396428D01*
X132253571Y-108467857D01*
X131789285Y-107860714D02*
X132289285Y-107682142D01*
X131789285Y-107503571D02*
X132289285Y-107682142D01*
X132467857Y-107753571D01*
X132503571Y-107789285D01*
X132539285Y-107860714D01*
X132253571Y-106682142D02*
X132289285Y-106575000D01*
X132289285Y-106396428D01*
X132253571Y-106325000D01*
X132217857Y-106289285D01*
X132146428Y-106253571D01*
X132075000Y-106253571D01*
X132003571Y-106289285D01*
X131967857Y-106325000D01*
X131932142Y-106396428D01*
X131896428Y-106539285D01*
X131860714Y-106610714D01*
X131825000Y-106646428D01*
X131753571Y-106682142D01*
X131682142Y-106682142D01*
X131610714Y-106646428D01*
X131575000Y-106610714D01*
X131539285Y-106539285D01*
X131539285Y-106360714D01*
X131575000Y-106253571D01*
X132289285Y-105932142D02*
X131789285Y-105932142D01*
X131932142Y-105932142D02*
X131860714Y-105896428D01*
X131825000Y-105860714D01*
X131789285Y-105789285D01*
X131789285Y-105717857D01*
X132253571Y-105182142D02*
X132289285Y-105253571D01*
X132289285Y-105396428D01*
X132253571Y-105467857D01*
X132182142Y-105503571D01*
X131896428Y-105503571D01*
X131825000Y-105467857D01*
X131789285Y-105396428D01*
X131789285Y-105253571D01*
X131825000Y-105182142D01*
X131896428Y-105146428D01*
X131967857Y-105146428D01*
X132039285Y-105503571D01*
X132253571Y-104539285D02*
X132289285Y-104610714D01*
X132289285Y-104753571D01*
X132253571Y-104825000D01*
X132182142Y-104860714D01*
X131896428Y-104860714D01*
X131825000Y-104825000D01*
X131789285Y-104753571D01*
X131789285Y-104610714D01*
X131825000Y-104539285D01*
X131896428Y-104503571D01*
X131967857Y-104503571D01*
X132039285Y-104860714D01*
X131789285Y-104182142D02*
X132289285Y-104182142D01*
X131860714Y-104182142D02*
X131825000Y-104146428D01*
X131789285Y-104075000D01*
X131789285Y-103967857D01*
X131825000Y-103896428D01*
X131896428Y-103860714D01*
X132289285Y-103860714D01*
X132289285Y-103503571D02*
X131789285Y-103503571D01*
X131539285Y-103503571D02*
X131575000Y-103539285D01*
X131610714Y-103503571D01*
X131575000Y-103467857D01*
X131539285Y-103503571D01*
X131610714Y-103503571D01*
X131789285Y-103217857D02*
X132289285Y-103039285D01*
X131789285Y-102860714D01*
X132289285Y-102253571D02*
X131896428Y-102253571D01*
X131825000Y-102289285D01*
X131789285Y-102360714D01*
X131789285Y-102503571D01*
X131825000Y-102575000D01*
X132253571Y-102253571D02*
X132289285Y-102325000D01*
X132289285Y-102503571D01*
X132253571Y-102575000D01*
X132182142Y-102610714D01*
X132110714Y-102610714D01*
X132039285Y-102575000D01*
X132003571Y-102503571D01*
X132003571Y-102325000D01*
X131967857Y-102253571D01*
X132253571Y-101932142D02*
X132289285Y-101860714D01*
X132289285Y-101717857D01*
X132253571Y-101646428D01*
X132182142Y-101610714D01*
X132146428Y-101610714D01*
X132075000Y-101646428D01*
X132039285Y-101717857D01*
X132039285Y-101825000D01*
X132003571Y-101896428D01*
X131932142Y-101932142D01*
X131896428Y-101932142D01*
X131825000Y-101896428D01*
X131789285Y-101825000D01*
X131789285Y-101717857D01*
X131825000Y-101646428D01*
X131896428Y-100717857D02*
X131896428Y-100467857D01*
X132289285Y-100360714D02*
X132289285Y-100717857D01*
X131539285Y-100717857D01*
X131539285Y-100360714D01*
X132289285Y-99717857D02*
X131896428Y-99717857D01*
X131825000Y-99753571D01*
X131789285Y-99825000D01*
X131789285Y-99967857D01*
X131825000Y-100039285D01*
X132253571Y-99717857D02*
X132289285Y-99789285D01*
X132289285Y-99967857D01*
X132253571Y-100039285D01*
X132182142Y-100075000D01*
X132110714Y-100075000D01*
X132039285Y-100039285D01*
X132003571Y-99967857D01*
X132003571Y-99789285D01*
X131967857Y-99717857D01*
X132289285Y-99039285D02*
X131539285Y-99039285D01*
X132253571Y-99039285D02*
X132289285Y-99110714D01*
X132289285Y-99253571D01*
X132253571Y-99325000D01*
X132217857Y-99360714D01*
X132146428Y-99396428D01*
X131932142Y-99396428D01*
X131860714Y-99360714D01*
X131825000Y-99325000D01*
X131789285Y-99253571D01*
X131789285Y-99110714D01*
X131825000Y-99039285D01*
X132289285Y-98360714D02*
X131896428Y-98360714D01*
X131825000Y-98396428D01*
X131789285Y-98467857D01*
X131789285Y-98610714D01*
X131825000Y-98682142D01*
X132253571Y-98360714D02*
X132289285Y-98432142D01*
X132289285Y-98610714D01*
X132253571Y-98682142D01*
X132182142Y-98717857D01*
X132110714Y-98717857D01*
X132039285Y-98682142D01*
X132003571Y-98610714D01*
X132003571Y-98432142D01*
X131967857Y-98360714D01*
X132289285Y-98003571D02*
X131789285Y-98003571D01*
X131932142Y-98003571D02*
X131860714Y-97967857D01*
X131825000Y-97932142D01*
X131789285Y-97860714D01*
X131789285Y-97789285D01*
X132289285Y-97217857D02*
X131896428Y-97217857D01*
X131825000Y-97253571D01*
X131789285Y-97325000D01*
X131789285Y-97467857D01*
X131825000Y-97539285D01*
X132253571Y-97217857D02*
X132289285Y-97289285D01*
X132289285Y-97467857D01*
X132253571Y-97539285D01*
X132182142Y-97575000D01*
X132110714Y-97575000D01*
X132039285Y-97539285D01*
X132003571Y-97467857D01*
X132003571Y-97289285D01*
X131967857Y-97217857D01*
D10*
X88957142Y-71035714D02*
X88957142Y-72035714D01*
X88957142Y-71083333D02*
X89052380Y-71035714D01*
X89242857Y-71035714D01*
X89338095Y-71083333D01*
X89385714Y-71130952D01*
X89433333Y-71226190D01*
X89433333Y-71511904D01*
X89385714Y-71607142D01*
X89338095Y-71654761D01*
X89242857Y-71702380D01*
X89052380Y-71702380D01*
X88957142Y-71654761D01*
X89861904Y-71702380D02*
X89861904Y-70702380D01*
X89861904Y-71178571D02*
X90433333Y-71178571D01*
X90433333Y-71702380D02*
X90433333Y-70702380D01*
X91623809Y-71654761D02*
X91766666Y-71702380D01*
X92004761Y-71702380D01*
X92100000Y-71654761D01*
X92147619Y-71607142D01*
X92195238Y-71511904D01*
X92195238Y-71416666D01*
X92147619Y-71321428D01*
X92100000Y-71273809D01*
X92004761Y-71226190D01*
X91814285Y-71178571D01*
X91719047Y-71130952D01*
X91671428Y-71083333D01*
X91623809Y-70988095D01*
X91623809Y-70892857D01*
X91671428Y-70797619D01*
X91719047Y-70750000D01*
X91814285Y-70702380D01*
X92052380Y-70702380D01*
X92195238Y-70750000D01*
X93004761Y-71654761D02*
X92909523Y-71702380D01*
X92719047Y-71702380D01*
X92623809Y-71654761D01*
X92576190Y-71559523D01*
X92576190Y-71178571D01*
X92623809Y-71083333D01*
X92719047Y-71035714D01*
X92909523Y-71035714D01*
X93004761Y-71083333D01*
X93052380Y-71178571D01*
X93052380Y-71273809D01*
X92576190Y-71369047D01*
X93480952Y-71035714D02*
X93480952Y-71702380D01*
X93480952Y-71130952D02*
X93528571Y-71083333D01*
X93623809Y-71035714D01*
X93766666Y-71035714D01*
X93861904Y-71083333D01*
X93909523Y-71178571D01*
X93909523Y-71702380D01*
X94338095Y-71654761D02*
X94433333Y-71702380D01*
X94623809Y-71702380D01*
X94719047Y-71654761D01*
X94766666Y-71559523D01*
X94766666Y-71511904D01*
X94719047Y-71416666D01*
X94623809Y-71369047D01*
X94480952Y-71369047D01*
X94385714Y-71321428D01*
X94338095Y-71226190D01*
X94338095Y-71178571D01*
X94385714Y-71083333D01*
X94480952Y-71035714D01*
X94623809Y-71035714D01*
X94719047Y-71083333D01*
X95338095Y-71702380D02*
X95242857Y-71654761D01*
X95195238Y-71607142D01*
X95147619Y-71511904D01*
X95147619Y-71226190D01*
X95195238Y-71130952D01*
X95242857Y-71083333D01*
X95338095Y-71035714D01*
X95480952Y-71035714D01*
X95576190Y-71083333D01*
X95623809Y-71130952D01*
X95671428Y-71226190D01*
X95671428Y-71511904D01*
X95623809Y-71607142D01*
X95576190Y-71654761D01*
X95480952Y-71702380D01*
X95338095Y-71702380D01*
X96100000Y-71702380D02*
X96100000Y-71035714D01*
X96100000Y-71226190D02*
X96147619Y-71130952D01*
X96195238Y-71083333D01*
X96290476Y-71035714D01*
X96385714Y-71035714D01*
D13*
%TO.C,A2*%
X76360000Y-73060000D02*
X76360000Y-91100000D01*
X119800000Y-73060000D02*
X76360000Y-73060000D01*
X119800000Y-91100000D02*
X119800000Y-73060000D01*
X117130000Y-88430000D02*
X117130000Y-91100000D01*
X81570000Y-88430000D02*
X117130000Y-88430000D01*
X81570000Y-88430000D02*
X81570000Y-91100000D01*
X117130000Y-75730000D02*
X117130000Y-73060000D01*
X79030000Y-75730000D02*
X117130000Y-75730000D01*
X79030000Y-75730000D02*
X79030000Y-73060000D01*
X76360000Y-91100000D02*
X79030000Y-91100000D01*
X81570000Y-91100000D02*
X119800000Y-91100000D01*
X79030000Y-88430000D02*
X79030000Y-91100000D01*
X81570000Y-88430000D02*
X79030000Y-88430000D01*
D14*
%TO.C,Q3*%
X69005000Y-68450000D02*
X69005000Y-57770000D01*
X69005000Y-57770000D02*
X73835000Y-57770000D01*
X73835000Y-68450000D02*
X69005000Y-68450000D01*
X73835000Y-57770000D02*
X73835000Y-68450000D01*
D11*
X72091419Y-69250000D02*
G75*
G03*
X72091419Y-69250000I-141419J0D01*
G01*
D13*
%TO.C,R4*%
X120980000Y-68420000D02*
X117140000Y-68420000D01*
X120980000Y-66580000D02*
X117140000Y-66580000D01*
%TO.C,R3*%
X120980000Y-71220000D02*
X117140000Y-71220000D01*
X120980000Y-69380000D02*
X117140000Y-69380000D01*
%TO.C,R2*%
X113580000Y-71220000D02*
X109740000Y-71220000D01*
X113580000Y-69380000D02*
X109740000Y-69380000D01*
%TO.C,R1*%
X109770000Y-66580000D02*
X113610000Y-66580000D01*
X109770000Y-68420000D02*
X113610000Y-68420000D01*
D15*
%TO.C,G\u002A\u002A\u002A*%
G36*
X129072625Y-90024089D02*
G01*
X129225735Y-89923058D01*
X129286394Y-89917333D01*
X129407681Y-89931857D01*
X129468472Y-90004083D01*
X129489371Y-90176993D01*
X129491333Y-90344871D01*
X129568427Y-90846130D01*
X129798963Y-91276559D01*
X130181827Y-91634505D01*
X130481962Y-91812667D01*
X130895593Y-91932059D01*
X131341361Y-91911167D01*
X131782218Y-91764261D01*
X132181113Y-91505612D01*
X132500996Y-91149489D01*
X132589226Y-91001038D01*
X132684312Y-90676665D01*
X132697252Y-90272336D01*
X132630405Y-89854838D01*
X132539600Y-89595335D01*
X132374251Y-89231003D01*
X131927626Y-89256668D01*
X131481000Y-89282333D01*
X131455965Y-89853833D01*
X131438750Y-90156884D01*
X131410350Y-90328103D01*
X131355509Y-90404943D01*
X131258967Y-90424857D01*
X131223132Y-90425333D01*
X131126863Y-90419318D01*
X131066147Y-90380127D01*
X131032791Y-90276046D01*
X131018602Y-90075359D01*
X131015384Y-89746352D01*
X131015334Y-89621000D01*
X131015334Y-88816666D01*
X131806545Y-88816666D01*
X132197714Y-88822250D01*
X132456217Y-88842958D01*
X132618470Y-88884725D01*
X132720890Y-88953486D01*
X132734649Y-88967932D01*
X132953311Y-89314268D01*
X133101943Y-89762929D01*
X133170040Y-90257711D01*
X133147094Y-90742414D01*
X133103949Y-90943398D01*
X132879739Y-91457420D01*
X132538741Y-91872448D01*
X132107776Y-92179215D01*
X131613662Y-92368453D01*
X131083219Y-92430896D01*
X130543267Y-92357276D01*
X130020625Y-92138326D01*
X129888147Y-92054586D01*
X129625619Y-91822286D01*
X129398389Y-91523217D01*
X129214483Y-91185886D01*
X129081927Y-90838801D01*
X129008748Y-90510468D01*
X129002972Y-90229395D01*
X129072625Y-90024089D01*
G37*
X129072625Y-90024089D02*
X129225735Y-89923058D01*
X129286394Y-89917333D01*
X129407681Y-89931857D01*
X129468472Y-90004083D01*
X129489371Y-90176993D01*
X129491333Y-90344871D01*
X129568427Y-90846130D01*
X129798963Y-91276559D01*
X130181827Y-91634505D01*
X130481962Y-91812667D01*
X130895593Y-91932059D01*
X131341361Y-91911167D01*
X131782218Y-91764261D01*
X132181113Y-91505612D01*
X132500996Y-91149489D01*
X132589226Y-91001038D01*
X132684312Y-90676665D01*
X132697252Y-90272336D01*
X132630405Y-89854838D01*
X132539600Y-89595335D01*
X132374251Y-89231003D01*
X131927626Y-89256668D01*
X131481000Y-89282333D01*
X131455965Y-89853833D01*
X131438750Y-90156884D01*
X131410350Y-90328103D01*
X131355509Y-90404943D01*
X131258967Y-90424857D01*
X131223132Y-90425333D01*
X131126863Y-90419318D01*
X131066147Y-90380127D01*
X131032791Y-90276046D01*
X131018602Y-90075359D01*
X131015384Y-89746352D01*
X131015334Y-89621000D01*
X131015334Y-88816666D01*
X131806545Y-88816666D01*
X132197714Y-88822250D01*
X132456217Y-88842958D01*
X132618470Y-88884725D01*
X132720890Y-88953486D01*
X132734649Y-88967932D01*
X132953311Y-89314268D01*
X133101943Y-89762929D01*
X133170040Y-90257711D01*
X133147094Y-90742414D01*
X133103949Y-90943398D01*
X132879739Y-91457420D01*
X132538741Y-91872448D01*
X132107776Y-92179215D01*
X131613662Y-92368453D01*
X131083219Y-92430896D01*
X130543267Y-92357276D01*
X130020625Y-92138326D01*
X129888147Y-92054586D01*
X129625619Y-91822286D01*
X129398389Y-91523217D01*
X129214483Y-91185886D01*
X129081927Y-90838801D01*
X129008748Y-90510468D01*
X129002972Y-90229395D01*
X129072625Y-90024089D01*
G36*
X129137523Y-65163572D02*
G01*
X129368097Y-64712373D01*
X129705443Y-64328472D01*
X130138530Y-64035234D01*
X130656327Y-63856023D01*
X131091767Y-63810514D01*
X131454067Y-63823505D01*
X131737231Y-63883994D01*
X132029377Y-64013050D01*
X132102596Y-64052185D01*
X132380070Y-64223825D01*
X132617291Y-64405684D01*
X132724878Y-64513848D01*
X132894896Y-64729000D01*
X132594534Y-64755014D01*
X132285696Y-64726748D01*
X132078086Y-64639443D01*
X131862000Y-64497858D01*
X131862000Y-67230570D01*
X132077137Y-67089607D01*
X132313621Y-66862667D01*
X132526221Y-66537086D01*
X132676030Y-66182887D01*
X132724589Y-65924301D01*
X132746586Y-65720198D01*
X132819078Y-65634871D01*
X132976385Y-65618000D01*
X133124395Y-65641105D01*
X133199559Y-65728473D01*
X133206006Y-65907180D01*
X133147863Y-66204302D01*
X133096256Y-66404258D01*
X132881397Y-66908727D01*
X132551641Y-67315635D01*
X132134463Y-67619095D01*
X131657338Y-67813220D01*
X131147741Y-67892123D01*
X131041646Y-67883422D01*
X131041646Y-67396000D01*
X131252171Y-67380074D01*
X131379843Y-67341366D01*
X131384111Y-67337667D01*
X131401786Y-67237919D01*
X131414673Y-66997358D01*
X131422124Y-66644452D01*
X131423488Y-66207673D01*
X131419389Y-65792500D01*
X131396334Y-64305666D01*
X130803667Y-64305666D01*
X130780590Y-65850833D01*
X130757514Y-67396000D01*
X131041646Y-67396000D01*
X131041646Y-67883422D01*
X130633147Y-67849917D01*
X130290101Y-67731968D01*
X130290101Y-67142000D01*
X130306516Y-67062134D01*
X130320507Y-66841731D01*
X130331023Y-66509581D01*
X130337014Y-66094473D01*
X130338000Y-65829666D01*
X130333858Y-65379930D01*
X130322429Y-64996609D01*
X130305204Y-64708492D01*
X130283677Y-64544369D01*
X130269942Y-64517333D01*
X130166814Y-64577786D01*
X130003907Y-64729440D01*
X129822655Y-64927743D01*
X129664493Y-65128140D01*
X129586160Y-65252600D01*
X129496226Y-65582836D01*
X129503539Y-65981808D01*
X129602292Y-66383885D01*
X129705657Y-66603837D01*
X129913039Y-66894233D01*
X130125306Y-67083514D01*
X130290101Y-67142000D01*
X130290101Y-67731968D01*
X130141030Y-67680713D01*
X129698866Y-67378625D01*
X129503592Y-67174088D01*
X129196757Y-66687329D01*
X129040822Y-66174414D01*
X129024755Y-65658707D01*
X129137523Y-65163572D01*
G37*
X129137523Y-65163572D02*
X129368097Y-64712373D01*
X129705443Y-64328472D01*
X130138530Y-64035234D01*
X130656327Y-63856023D01*
X131091767Y-63810514D01*
X131454067Y-63823505D01*
X131737231Y-63883994D01*
X132029377Y-64013050D01*
X132102596Y-64052185D01*
X132380070Y-64223825D01*
X132617291Y-64405684D01*
X132724878Y-64513848D01*
X132894896Y-64729000D01*
X132594534Y-64755014D01*
X132285696Y-64726748D01*
X132078086Y-64639443D01*
X131862000Y-64497858D01*
X131862000Y-67230570D01*
X132077137Y-67089607D01*
X132313621Y-66862667D01*
X132526221Y-66537086D01*
X132676030Y-66182887D01*
X132724589Y-65924301D01*
X132746586Y-65720198D01*
X132819078Y-65634871D01*
X132976385Y-65618000D01*
X133124395Y-65641105D01*
X133199559Y-65728473D01*
X133206006Y-65907180D01*
X133147863Y-66204302D01*
X133096256Y-66404258D01*
X132881397Y-66908727D01*
X132551641Y-67315635D01*
X132134463Y-67619095D01*
X131657338Y-67813220D01*
X131147741Y-67892123D01*
X131041646Y-67883422D01*
X131041646Y-67396000D01*
X131252171Y-67380074D01*
X131379843Y-67341366D01*
X131384111Y-67337667D01*
X131401786Y-67237919D01*
X131414673Y-66997358D01*
X131422124Y-66644452D01*
X131423488Y-66207673D01*
X131419389Y-65792500D01*
X131396334Y-64305666D01*
X130803667Y-64305666D01*
X130780590Y-65850833D01*
X130757514Y-67396000D01*
X131041646Y-67396000D01*
X131041646Y-67883422D01*
X130633147Y-67849917D01*
X130290101Y-67731968D01*
X130290101Y-67142000D01*
X130306516Y-67062134D01*
X130320507Y-66841731D01*
X130331023Y-66509581D01*
X130337014Y-66094473D01*
X130338000Y-65829666D01*
X130333858Y-65379930D01*
X130322429Y-64996609D01*
X130305204Y-64708492D01*
X130283677Y-64544369D01*
X130269942Y-64517333D01*
X130166814Y-64577786D01*
X130003907Y-64729440D01*
X129822655Y-64927743D01*
X129664493Y-65128140D01*
X129586160Y-65252600D01*
X129496226Y-65582836D01*
X129503539Y-65981808D01*
X129602292Y-66383885D01*
X129705657Y-66603837D01*
X129913039Y-66894233D01*
X130125306Y-67083514D01*
X130290101Y-67142000D01*
X130290101Y-67731968D01*
X130141030Y-67680713D01*
X129698866Y-67378625D01*
X129503592Y-67174088D01*
X129196757Y-66687329D01*
X129040822Y-66174414D01*
X129024755Y-65658707D01*
X129137523Y-65163572D01*
G36*
X130914712Y-93843655D02*
G01*
X131427413Y-93618815D01*
X131886666Y-93418696D01*
X132270397Y-93252813D01*
X132556532Y-93130677D01*
X132723001Y-93061803D01*
X132756212Y-93050000D01*
X132782129Y-93123816D01*
X132793323Y-93302034D01*
X132793334Y-93308320D01*
X132764756Y-93496392D01*
X132647959Y-93617184D01*
X132497000Y-93690456D01*
X132200667Y-93814272D01*
X132200667Y-96022651D01*
X132666334Y-96228591D01*
X132928631Y-96353892D01*
X133068930Y-96457325D01*
X133124166Y-96575458D01*
X133132000Y-96689599D01*
X133113745Y-96866429D01*
X133069709Y-96938821D01*
X133068500Y-96938754D01*
X132976790Y-96904017D01*
X132752056Y-96809393D01*
X132415810Y-96664224D01*
X131989563Y-96477851D01*
X131696286Y-96348483D01*
X131696286Y-95759333D01*
X131731736Y-95679995D01*
X131758854Y-95463130D01*
X131774603Y-95140460D01*
X131777334Y-94912666D01*
X131771431Y-94557145D01*
X131755516Y-94274969D01*
X131732278Y-94102026D01*
X131713834Y-94065130D01*
X131602640Y-94097082D01*
X131382776Y-94183134D01*
X131090891Y-94306742D01*
X130763637Y-94451363D01*
X130437662Y-94600454D01*
X130149619Y-94737471D01*
X129936157Y-94845872D01*
X129833927Y-94909112D01*
X129830000Y-94915453D01*
X129902013Y-94967881D01*
X130093484Y-95068767D01*
X130367561Y-95201448D01*
X130687392Y-95349260D01*
X131016124Y-95495540D01*
X131316905Y-95623624D01*
X131552882Y-95716849D01*
X131687204Y-95758552D01*
X131696286Y-95759333D01*
X131696286Y-96348483D01*
X131494827Y-96259617D01*
X131057667Y-96065466D01*
X129110334Y-95198091D01*
X129110334Y-94637310D01*
X130914712Y-93843655D01*
G37*
X130914712Y-93843655D02*
X131427413Y-93618815D01*
X131886666Y-93418696D01*
X132270397Y-93252813D01*
X132556532Y-93130677D01*
X132723001Y-93061803D01*
X132756212Y-93050000D01*
X132782129Y-93123816D01*
X132793323Y-93302034D01*
X132793334Y-93308320D01*
X132764756Y-93496392D01*
X132647959Y-93617184D01*
X132497000Y-93690456D01*
X132200667Y-93814272D01*
X132200667Y-96022651D01*
X132666334Y-96228591D01*
X132928631Y-96353892D01*
X133068930Y-96457325D01*
X133124166Y-96575458D01*
X133132000Y-96689599D01*
X133113745Y-96866429D01*
X133069709Y-96938821D01*
X133068500Y-96938754D01*
X132976790Y-96904017D01*
X132752056Y-96809393D01*
X132415810Y-96664224D01*
X131989563Y-96477851D01*
X131696286Y-96348483D01*
X131696286Y-95759333D01*
X131731736Y-95679995D01*
X131758854Y-95463130D01*
X131774603Y-95140460D01*
X131777334Y-94912666D01*
X131771431Y-94557145D01*
X131755516Y-94274969D01*
X131732278Y-94102026D01*
X131713834Y-94065130D01*
X131602640Y-94097082D01*
X131382776Y-94183134D01*
X131090891Y-94306742D01*
X130763637Y-94451363D01*
X130437662Y-94600454D01*
X130149619Y-94737471D01*
X129936157Y-94845872D01*
X129833927Y-94909112D01*
X129830000Y-94915453D01*
X129902013Y-94967881D01*
X130093484Y-95068767D01*
X130367561Y-95201448D01*
X130687392Y-95349260D01*
X131016124Y-95495540D01*
X131316905Y-95623624D01*
X131552882Y-95716849D01*
X131687204Y-95758552D01*
X131696286Y-95759333D01*
X131696286Y-96348483D01*
X131494827Y-96259617D01*
X131057667Y-96065466D01*
X129110334Y-95198091D01*
X129110334Y-94637310D01*
X130914712Y-93843655D01*
G36*
X129088137Y-86207905D02*
G01*
X129098409Y-86117745D01*
X129125812Y-86040282D01*
X129189010Y-85964511D01*
X129306668Y-85879430D01*
X129497452Y-85774034D01*
X129780028Y-85637320D01*
X130173059Y-85458282D01*
X130695213Y-85225918D01*
X130930667Y-85121660D01*
X131576434Y-84835180D01*
X132083269Y-84610433D01*
X132467793Y-84442247D01*
X132746630Y-84325450D01*
X132936401Y-84254871D01*
X133053731Y-84225339D01*
X133115242Y-84231682D01*
X133137557Y-84268728D01*
X133137298Y-84331307D01*
X133131088Y-84414247D01*
X133130555Y-84437262D01*
X133115272Y-84596949D01*
X133046537Y-84708505D01*
X132886906Y-84810049D01*
X132664889Y-84911295D01*
X132200667Y-85112257D01*
X132200667Y-87301985D01*
X132666334Y-87507925D01*
X132928068Y-87632621D01*
X133068171Y-87735307D01*
X133123654Y-87853185D01*
X133132000Y-87975988D01*
X133109472Y-88148387D01*
X133054783Y-88211063D01*
X133050180Y-88209889D01*
X132952899Y-88169671D01*
X132722238Y-88071368D01*
X132380109Y-87924411D01*
X131948424Y-87738228D01*
X131672863Y-87619038D01*
X131672863Y-87024333D01*
X131728085Y-87000408D01*
X131759328Y-86906718D01*
X131773420Y-86714394D01*
X131777187Y-86394567D01*
X131777334Y-86201875D01*
X131768631Y-85771053D01*
X131743270Y-85484562D01*
X131702366Y-85353004D01*
X131687101Y-85345333D01*
X131544156Y-85382440D01*
X131433101Y-85432979D01*
X131351896Y-85497519D01*
X131302638Y-85609245D01*
X131277744Y-85805397D01*
X131269631Y-86123216D01*
X131269334Y-86237312D01*
X131276261Y-86561969D01*
X131294741Y-86810230D01*
X131321322Y-86943064D01*
X131332834Y-86955156D01*
X131457683Y-86976051D01*
X131586834Y-87007364D01*
X131672863Y-87024333D01*
X131672863Y-87619038D01*
X131449095Y-87522250D01*
X131017150Y-87335000D01*
X130685074Y-87190906D01*
X130685074Y-86615333D01*
X130728579Y-86539173D01*
X130756190Y-86344447D01*
X130761334Y-86192000D01*
X130755609Y-85950425D01*
X130740974Y-85797157D01*
X130729535Y-85768666D01*
X130641679Y-85800236D01*
X130444008Y-85882573D01*
X130207504Y-85985471D01*
X129717271Y-86202275D01*
X130163043Y-86408804D01*
X130417239Y-86520882D01*
X130610889Y-86595887D01*
X130685074Y-86615333D01*
X130685074Y-87190906D01*
X129065940Y-86488333D01*
X129088137Y-86207905D01*
G37*
X129088137Y-86207905D02*
X129098409Y-86117745D01*
X129125812Y-86040282D01*
X129189010Y-85964511D01*
X129306668Y-85879430D01*
X129497452Y-85774034D01*
X129780028Y-85637320D01*
X130173059Y-85458282D01*
X130695213Y-85225918D01*
X130930667Y-85121660D01*
X131576434Y-84835180D01*
X132083269Y-84610433D01*
X132467793Y-84442247D01*
X132746630Y-84325450D01*
X132936401Y-84254871D01*
X133053731Y-84225339D01*
X133115242Y-84231682D01*
X133137557Y-84268728D01*
X133137298Y-84331307D01*
X133131088Y-84414247D01*
X133130555Y-84437262D01*
X133115272Y-84596949D01*
X133046537Y-84708505D01*
X132886906Y-84810049D01*
X132664889Y-84911295D01*
X132200667Y-85112257D01*
X132200667Y-87301985D01*
X132666334Y-87507925D01*
X132928068Y-87632621D01*
X133068171Y-87735307D01*
X133123654Y-87853185D01*
X133132000Y-87975988D01*
X133109472Y-88148387D01*
X133054783Y-88211063D01*
X133050180Y-88209889D01*
X132952899Y-88169671D01*
X132722238Y-88071368D01*
X132380109Y-87924411D01*
X131948424Y-87738228D01*
X131672863Y-87619038D01*
X131672863Y-87024333D01*
X131728085Y-87000408D01*
X131759328Y-86906718D01*
X131773420Y-86714394D01*
X131777187Y-86394567D01*
X131777334Y-86201875D01*
X131768631Y-85771053D01*
X131743270Y-85484562D01*
X131702366Y-85353004D01*
X131687101Y-85345333D01*
X131544156Y-85382440D01*
X131433101Y-85432979D01*
X131351896Y-85497519D01*
X131302638Y-85609245D01*
X131277744Y-85805397D01*
X131269631Y-86123216D01*
X131269334Y-86237312D01*
X131276261Y-86561969D01*
X131294741Y-86810230D01*
X131321322Y-86943064D01*
X131332834Y-86955156D01*
X131457683Y-86976051D01*
X131586834Y-87007364D01*
X131672863Y-87024333D01*
X131672863Y-87619038D01*
X131449095Y-87522250D01*
X131017150Y-87335000D01*
X130685074Y-87190906D01*
X130685074Y-86615333D01*
X130728579Y-86539173D01*
X130756190Y-86344447D01*
X130761334Y-86192000D01*
X130755609Y-85950425D01*
X130740974Y-85797157D01*
X130729535Y-85768666D01*
X130641679Y-85800236D01*
X130444008Y-85882573D01*
X130207504Y-85985471D01*
X129717271Y-86202275D01*
X130163043Y-86408804D01*
X130417239Y-86520882D01*
X130610889Y-86595887D01*
X130685074Y-86615333D01*
X130685074Y-87190906D01*
X129065940Y-86488333D01*
X129088137Y-86207905D01*
G36*
X129149615Y-81466756D02*
G01*
X129298987Y-80977171D01*
X129538861Y-80628599D01*
X129876787Y-80414432D01*
X130320316Y-80328059D01*
X130453058Y-80325710D01*
X130854338Y-80384671D01*
X131167404Y-80564245D01*
X131423290Y-80885086D01*
X131498446Y-81021514D01*
X131614926Y-81242444D01*
X131700410Y-81392188D01*
X131722917Y-81424472D01*
X131803911Y-81396212D01*
X131987200Y-81288235D01*
X132238711Y-81121211D01*
X132340471Y-81049843D01*
X132682033Y-80807131D01*
X132908067Y-80653017D01*
X133042331Y-80579800D01*
X133108583Y-80579779D01*
X133130578Y-80645252D01*
X133132076Y-80768519D01*
X133132000Y-80793256D01*
X133120370Y-80929718D01*
X133068998Y-81049715D01*
X132953158Y-81180980D01*
X132748128Y-81351245D01*
X132429183Y-81588244D01*
X132412334Y-81600502D01*
X131692667Y-82123830D01*
X131692667Y-82974666D01*
X132412334Y-82974666D01*
X132760830Y-82976610D01*
X132973519Y-82989014D01*
X133083927Y-83021739D01*
X133125579Y-83084645D01*
X133132000Y-83186333D01*
X133132000Y-83398000D01*
X129999334Y-83398000D01*
X129999334Y-83190042D01*
X130009149Y-83082403D01*
X130062719Y-83018080D01*
X130196230Y-82983348D01*
X130445866Y-82964482D01*
X130613167Y-82957209D01*
X131227000Y-82932333D01*
X131252465Y-82341969D01*
X131232577Y-81791289D01*
X131124801Y-81350212D01*
X130934629Y-81034765D01*
X130757847Y-80898530D01*
X130451744Y-80788029D01*
X130189887Y-80819122D01*
X129918988Y-80998954D01*
X129902981Y-81013110D01*
X129739156Y-81185986D01*
X129648824Y-81374408D01*
X129602633Y-81646928D01*
X129594828Y-81732777D01*
X129565300Y-82005920D01*
X129521803Y-82150028D01*
X129444627Y-82205302D01*
X129359555Y-82212666D01*
X129193259Y-82164317D01*
X129111640Y-82007907D01*
X129109901Y-81726389D01*
X129149615Y-81466756D01*
G37*
X129149615Y-81466756D02*
X129298987Y-80977171D01*
X129538861Y-80628599D01*
X129876787Y-80414432D01*
X130320316Y-80328059D01*
X130453058Y-80325710D01*
X130854338Y-80384671D01*
X131167404Y-80564245D01*
X131423290Y-80885086D01*
X131498446Y-81021514D01*
X131614926Y-81242444D01*
X131700410Y-81392188D01*
X131722917Y-81424472D01*
X131803911Y-81396212D01*
X131987200Y-81288235D01*
X132238711Y-81121211D01*
X132340471Y-81049843D01*
X132682033Y-80807131D01*
X132908067Y-80653017D01*
X133042331Y-80579800D01*
X133108583Y-80579779D01*
X133130578Y-80645252D01*
X133132076Y-80768519D01*
X133132000Y-80793256D01*
X133120370Y-80929718D01*
X133068998Y-81049715D01*
X132953158Y-81180980D01*
X132748128Y-81351245D01*
X132429183Y-81588244D01*
X132412334Y-81600502D01*
X131692667Y-82123830D01*
X131692667Y-82974666D01*
X132412334Y-82974666D01*
X132760830Y-82976610D01*
X132973519Y-82989014D01*
X133083927Y-83021739D01*
X133125579Y-83084645D01*
X133132000Y-83186333D01*
X133132000Y-83398000D01*
X129999334Y-83398000D01*
X129999334Y-83190042D01*
X130009149Y-83082403D01*
X130062719Y-83018080D01*
X130196230Y-82983348D01*
X130445866Y-82964482D01*
X130613167Y-82957209D01*
X131227000Y-82932333D01*
X131252465Y-82341969D01*
X131232577Y-81791289D01*
X131124801Y-81350212D01*
X130934629Y-81034765D01*
X130757847Y-80898530D01*
X130451744Y-80788029D01*
X130189887Y-80819122D01*
X129918988Y-80998954D01*
X129902981Y-81013110D01*
X129739156Y-81185986D01*
X129648824Y-81374408D01*
X129602633Y-81646928D01*
X129594828Y-81732777D01*
X129565300Y-82005920D01*
X129521803Y-82150028D01*
X129444627Y-82205302D01*
X129359555Y-82212666D01*
X129193259Y-82164317D01*
X129111640Y-82007907D01*
X129109901Y-81726389D01*
X129149615Y-81466756D01*
G36*
X129071509Y-77761359D02*
G01*
X129093348Y-77689519D01*
X129151599Y-77617734D01*
X129264094Y-77535756D01*
X129448664Y-77433340D01*
X129723141Y-77300235D01*
X130105358Y-77126196D01*
X130613146Y-76900975D01*
X131020385Y-76721668D01*
X131557083Y-76486872D01*
X132043682Y-76276546D01*
X132458421Y-76099889D01*
X132779538Y-75966099D01*
X132985271Y-75884377D01*
X133052385Y-75862666D01*
X133109143Y-75936031D01*
X133132000Y-76106833D01*
X133114033Y-76252418D01*
X133035159Y-76358035D01*
X132857917Y-76458529D01*
X132666334Y-76540000D01*
X132200667Y-76729000D01*
X132200667Y-77821648D01*
X132201689Y-78268958D01*
X132208273Y-78576581D01*
X132225697Y-78774165D01*
X132259238Y-78891358D01*
X132314173Y-78957805D01*
X132395780Y-79003155D01*
X132412334Y-79010739D01*
X132568595Y-79128027D01*
X132622290Y-79323385D01*
X132624000Y-79388856D01*
X132624000Y-79670531D01*
X132137167Y-79453784D01*
X131889199Y-79343965D01*
X131716740Y-79267944D01*
X131716740Y-78676476D01*
X131730032Y-78675746D01*
X131750057Y-78576095D01*
X131765882Y-78345817D01*
X131775447Y-78023601D01*
X131777334Y-77786830D01*
X131774889Y-77404152D01*
X131764014Y-77162796D01*
X131739397Y-77034778D01*
X131695728Y-76992115D01*
X131629167Y-77006214D01*
X131415877Y-77083938D01*
X131332834Y-77109814D01*
X131238753Y-77178331D01*
X131193961Y-77340385D01*
X131184667Y-77565875D01*
X131177416Y-77813419D01*
X131140726Y-77935544D01*
X131052190Y-77976018D01*
X130973000Y-77979333D01*
X130821728Y-77951996D01*
X130766388Y-77835788D01*
X130761334Y-77725333D01*
X130726459Y-77530473D01*
X130645096Y-77471333D01*
X130518853Y-77500099D01*
X130317742Y-77571892D01*
X130092580Y-77664954D01*
X129894183Y-77757528D01*
X129773370Y-77827856D01*
X129759464Y-77850522D01*
X129865239Y-77911834D01*
X130083425Y-78015585D01*
X130377658Y-78146544D01*
X130711571Y-78289484D01*
X131048801Y-78429176D01*
X131352983Y-78550391D01*
X131587751Y-78637901D01*
X131716740Y-78676476D01*
X131716740Y-79267944D01*
X131526062Y-79183891D01*
X131087735Y-78991150D01*
X130614198Y-78783331D01*
X130359415Y-78671685D01*
X129884857Y-78462790D01*
X129543652Y-78307184D01*
X129313810Y-78190762D01*
X129173339Y-78099419D01*
X129100249Y-78019048D01*
X129072549Y-77935545D01*
X129068248Y-77843501D01*
X129071509Y-77761359D01*
G37*
X129071509Y-77761359D02*
X129093348Y-77689519D01*
X129151599Y-77617734D01*
X129264094Y-77535756D01*
X129448664Y-77433340D01*
X129723141Y-77300235D01*
X130105358Y-77126196D01*
X130613146Y-76900975D01*
X131020385Y-76721668D01*
X131557083Y-76486872D01*
X132043682Y-76276546D01*
X132458421Y-76099889D01*
X132779538Y-75966099D01*
X132985271Y-75884377D01*
X133052385Y-75862666D01*
X133109143Y-75936031D01*
X133132000Y-76106833D01*
X133114033Y-76252418D01*
X133035159Y-76358035D01*
X132857917Y-76458529D01*
X132666334Y-76540000D01*
X132200667Y-76729000D01*
X132200667Y-77821648D01*
X132201689Y-78268958D01*
X132208273Y-78576581D01*
X132225697Y-78774165D01*
X132259238Y-78891358D01*
X132314173Y-78957805D01*
X132395780Y-79003155D01*
X132412334Y-79010739D01*
X132568595Y-79128027D01*
X132622290Y-79323385D01*
X132624000Y-79388856D01*
X132624000Y-79670531D01*
X132137167Y-79453784D01*
X131889199Y-79343965D01*
X131716740Y-79267944D01*
X131716740Y-78676476D01*
X131730032Y-78675746D01*
X131750057Y-78576095D01*
X131765882Y-78345817D01*
X131775447Y-78023601D01*
X131777334Y-77786830D01*
X131774889Y-77404152D01*
X131764014Y-77162796D01*
X131739397Y-77034778D01*
X131695728Y-76992115D01*
X131629167Y-77006214D01*
X131415877Y-77083938D01*
X131332834Y-77109814D01*
X131238753Y-77178331D01*
X131193961Y-77340385D01*
X131184667Y-77565875D01*
X131177416Y-77813419D01*
X131140726Y-77935544D01*
X131052190Y-77976018D01*
X130973000Y-77979333D01*
X130821728Y-77951996D01*
X130766388Y-77835788D01*
X130761334Y-77725333D01*
X130726459Y-77530473D01*
X130645096Y-77471333D01*
X130518853Y-77500099D01*
X130317742Y-77571892D01*
X130092580Y-77664954D01*
X129894183Y-77757528D01*
X129773370Y-77827856D01*
X129759464Y-77850522D01*
X129865239Y-77911834D01*
X130083425Y-78015585D01*
X130377658Y-78146544D01*
X130711571Y-78289484D01*
X131048801Y-78429176D01*
X131352983Y-78550391D01*
X131587751Y-78637901D01*
X131716740Y-78676476D01*
X131716740Y-79267944D01*
X131526062Y-79183891D01*
X131087735Y-78991150D01*
X130614198Y-78783331D01*
X130359415Y-78671685D01*
X129884857Y-78462790D01*
X129543652Y-78307184D01*
X129313810Y-78190762D01*
X129173339Y-78099419D01*
X129100249Y-78019048D01*
X129072549Y-77935545D01*
X129068248Y-77843501D01*
X129071509Y-77761359D01*
G36*
X129120721Y-71310773D02*
G01*
X129278544Y-70915207D01*
X129540957Y-70652215D01*
X129907451Y-70522432D01*
X130140498Y-70507821D01*
X130444644Y-70544046D01*
X130672747Y-70662939D01*
X130762446Y-70741399D01*
X130918571Y-70883821D01*
X131002852Y-70916260D01*
X131065271Y-70846343D01*
X131094937Y-70792128D01*
X131301689Y-70569769D01*
X131611484Y-70423269D01*
X131972094Y-70360916D01*
X132331294Y-70391000D01*
X132636857Y-70521812D01*
X132665175Y-70542882D01*
X132845686Y-70715094D01*
X132974741Y-70923014D01*
X133060013Y-71196281D01*
X133109175Y-71564539D01*
X133129900Y-72057428D01*
X133132000Y-72346280D01*
X133132000Y-73407333D01*
X132177013Y-73407333D01*
X132177013Y-72973089D01*
X132442020Y-72966145D01*
X132596081Y-72947511D01*
X132603067Y-72945170D01*
X132660691Y-72888866D01*
X132693512Y-72754965D01*
X132704694Y-72514155D01*
X132697400Y-72137124D01*
X132695657Y-72087479D01*
X132679617Y-71709771D01*
X132656419Y-71459748D01*
X132614042Y-71295831D01*
X132540467Y-71176441D01*
X132423673Y-71059999D01*
X132389831Y-71029618D01*
X132123791Y-70839753D01*
X131890847Y-70800856D01*
X131647441Y-70912906D01*
X131504087Y-71029199D01*
X131228169Y-71275732D01*
X131227584Y-72108699D01*
X131227000Y-72941666D01*
X131854077Y-72966810D01*
X132177013Y-72973089D01*
X132177013Y-73407333D01*
X130168667Y-73407333D01*
X130168667Y-73195666D01*
X130190807Y-73052525D01*
X130290438Y-72993926D01*
X130465000Y-72984000D01*
X130761334Y-72984000D01*
X130761333Y-72175818D01*
X130757886Y-71793539D01*
X130741991Y-71539818D01*
X130705318Y-71373932D01*
X130639537Y-71255156D01*
X130553515Y-71159818D01*
X130308090Y-70987382D01*
X130064586Y-70978335D01*
X129799453Y-71132356D01*
X129779377Y-71149321D01*
X129635723Y-71306980D01*
X129554720Y-71506237D01*
X129511636Y-71809326D01*
X129510171Y-71826654D01*
X129480937Y-72099463D01*
X129437892Y-72243418D01*
X129360775Y-72298874D01*
X129269183Y-72306666D01*
X129154080Y-72293175D01*
X129093986Y-72225257D01*
X129071220Y-72061746D01*
X129068000Y-71838280D01*
X129120721Y-71310773D01*
G37*
X129120721Y-71310773D02*
X129278544Y-70915207D01*
X129540957Y-70652215D01*
X129907451Y-70522432D01*
X130140498Y-70507821D01*
X130444644Y-70544046D01*
X130672747Y-70662939D01*
X130762446Y-70741399D01*
X130918571Y-70883821D01*
X131002852Y-70916260D01*
X131065271Y-70846343D01*
X131094937Y-70792128D01*
X131301689Y-70569769D01*
X131611484Y-70423269D01*
X131972094Y-70360916D01*
X132331294Y-70391000D01*
X132636857Y-70521812D01*
X132665175Y-70542882D01*
X132845686Y-70715094D01*
X132974741Y-70923014D01*
X133060013Y-71196281D01*
X133109175Y-71564539D01*
X133129900Y-72057428D01*
X133132000Y-72346280D01*
X133132000Y-73407333D01*
X132177013Y-73407333D01*
X132177013Y-72973089D01*
X132442020Y-72966145D01*
X132596081Y-72947511D01*
X132603067Y-72945170D01*
X132660691Y-72888866D01*
X132693512Y-72754965D01*
X132704694Y-72514155D01*
X132697400Y-72137124D01*
X132695657Y-72087479D01*
X132679617Y-71709771D01*
X132656419Y-71459748D01*
X132614042Y-71295831D01*
X132540467Y-71176441D01*
X132423673Y-71059999D01*
X132389831Y-71029618D01*
X132123791Y-70839753D01*
X131890847Y-70800856D01*
X131647441Y-70912906D01*
X131504087Y-71029199D01*
X131228169Y-71275732D01*
X131227584Y-72108699D01*
X131227000Y-72941666D01*
X131854077Y-72966810D01*
X132177013Y-72973089D01*
X132177013Y-73407333D01*
X130168667Y-73407333D01*
X130168667Y-73195666D01*
X130190807Y-73052525D01*
X130290438Y-72993926D01*
X130465000Y-72984000D01*
X130761334Y-72984000D01*
X130761333Y-72175818D01*
X130757886Y-71793539D01*
X130741991Y-71539818D01*
X130705318Y-71373932D01*
X130639537Y-71255156D01*
X130553515Y-71159818D01*
X130308090Y-70987382D01*
X130064586Y-70978335D01*
X129799453Y-71132356D01*
X129779377Y-71149321D01*
X129635723Y-71306980D01*
X129554720Y-71506237D01*
X129511636Y-71809326D01*
X129510171Y-71826654D01*
X129480937Y-72099463D01*
X129437892Y-72243418D01*
X129360775Y-72298874D01*
X129269183Y-72306666D01*
X129154080Y-72293175D01*
X129093986Y-72225257D01*
X129071220Y-72061746D01*
X129068000Y-71838280D01*
X129120721Y-71310773D01*
G36*
X133132000Y-68835333D02*
G01*
X133132000Y-69343333D01*
X129068000Y-69343333D01*
X129068000Y-68835333D01*
X133132000Y-68835333D01*
G37*
X133132000Y-68835333D02*
X133132000Y-69343333D01*
X129068000Y-69343333D01*
X129068000Y-68835333D01*
X133132000Y-68835333D01*
D13*
%TO.C,R6*%
X125220000Y-78852000D02*
X125220000Y-82692000D01*
X123380000Y-78852000D02*
X123380000Y-82692000D01*
%TO.C,R5*%
X126280000Y-82680000D02*
X126280000Y-78840000D01*
X128120000Y-82680000D02*
X128120000Y-78840000D01*
%TO.C,U3*%
X124170000Y-89250000D02*
X127770000Y-89250000D01*
X127808478Y-89238478D02*
G75*
G03*
X125970000Y-84800000I-1838478J1838478D01*
G01*
X124131522Y-89238478D02*
G75*
G02*
X125970000Y-84800000I1838478J1838478D01*
G01*
%TO.C,U2*%
X119860000Y-91970000D02*
X118210000Y-91970000D01*
X119860000Y-112410000D02*
X119860000Y-91970000D01*
X114560000Y-112410000D02*
X119860000Y-112410000D01*
X114560000Y-91970000D02*
X114560000Y-112410000D01*
X116210000Y-91970000D02*
X114560000Y-91970000D01*
X118210000Y-91970000D02*
G75*
G02*
X116210000Y-91970000I-1000000J0D01*
G01*
%TO.C,Q2*%
X128070000Y-73491000D02*
X126560000Y-73491000D01*
X128070000Y-69790000D02*
X126560000Y-69790000D01*
X126560000Y-66520000D02*
X126560000Y-76760000D01*
X128070000Y-76760000D02*
X123429000Y-76760000D01*
X128070000Y-66520000D02*
X123429000Y-66520000D01*
X123429000Y-66520000D02*
X123429000Y-76760000D01*
X128070000Y-66520000D02*
X128070000Y-76760000D01*
%TO.C,Q1*%
X127784000Y-90050000D02*
X124184000Y-90050000D01*
X124145522Y-90061522D02*
G75*
G03*
X125984000Y-94500000I1838478J-1838478D01*
G01*
X127822478Y-90061522D02*
G75*
G02*
X125984000Y-94500000I-1838478J-1838478D01*
G01*
D16*
%TO.C,J9*%
X66870000Y-88920000D02*
X66870000Y-88420000D01*
X66870000Y-88920000D02*
X67370000Y-88920000D01*
X74170000Y-88920000D02*
X74670000Y-88920000D01*
X74670000Y-88920000D02*
X74670000Y-88420000D01*
X74170000Y-68890000D02*
X74670000Y-68890000D01*
X74670000Y-68890000D02*
X74670000Y-69390000D01*
X66860000Y-68880000D02*
X67360000Y-68880000D01*
X66860000Y-68880000D02*
X66860000Y-69380000D01*
%TO.C,J8*%
X85720000Y-57800000D02*
X86220000Y-57800000D01*
X85720000Y-57800000D02*
X85720000Y-58300000D01*
X85720000Y-65100000D02*
X85720000Y-65600000D01*
X85720000Y-65600000D02*
X86220000Y-65600000D01*
X105750000Y-65100000D02*
X105750000Y-65600000D01*
X105750000Y-65600000D02*
X105250000Y-65600000D01*
X105760000Y-57790000D02*
X105760000Y-58290000D01*
X105760000Y-57790000D02*
X105260000Y-57790000D01*
%TO.C,J7*%
X66870000Y-109250000D02*
X66870000Y-108750000D01*
X66870000Y-109250000D02*
X67370000Y-109250000D01*
X74170000Y-109250000D02*
X74670000Y-109250000D01*
X74670000Y-109250000D02*
X74670000Y-108750000D01*
X74170000Y-89220000D02*
X74670000Y-89220000D01*
X74670000Y-89220000D02*
X74670000Y-89720000D01*
X66860000Y-89210000D02*
X67360000Y-89210000D01*
X66860000Y-89210000D02*
X66860000Y-89710000D01*
%TO.C,J6*%
X127150000Y-65600000D02*
X126650000Y-65600000D01*
X127150000Y-65600000D02*
X127150000Y-65100000D01*
X127150000Y-58300000D02*
X127150000Y-57800000D01*
X127150000Y-57800000D02*
X126650000Y-57800000D01*
X116772000Y-58280000D02*
X116772000Y-57780000D01*
X116772000Y-57780000D02*
X117272000Y-57780000D01*
X116762000Y-65600000D02*
X116762000Y-65100000D01*
X116762000Y-65600000D02*
X117262000Y-65600000D01*
%TO.C,J5*%
X106050000Y-57800000D02*
X106550000Y-57800000D01*
X106050000Y-57800000D02*
X106050000Y-58300000D01*
X106050000Y-65100000D02*
X106050000Y-65600000D01*
X106050000Y-65600000D02*
X106550000Y-65600000D01*
X116428000Y-65120000D02*
X116428000Y-65620000D01*
X116428000Y-65620000D02*
X115928000Y-65620000D01*
X116438000Y-57800000D02*
X116438000Y-58300000D01*
X116438000Y-57800000D02*
X115938000Y-57800000D01*
%TO.C,J4*%
X85370000Y-72440000D02*
X84870000Y-72440000D01*
X85370000Y-72440000D02*
X85370000Y-71940000D01*
X76170000Y-72440000D02*
X76670000Y-72440000D01*
X76170000Y-72440000D02*
X76170000Y-71940000D01*
X79570000Y-66840000D02*
X81970000Y-66840000D01*
X76170000Y-57840000D02*
X76170000Y-58340000D01*
X76170000Y-57840000D02*
X76670000Y-57840000D01*
X85370000Y-57840000D02*
X84870000Y-57840000D01*
X85370000Y-57840000D02*
X85370000Y-58340000D01*
X76170000Y-65140000D02*
X76170000Y-64140000D01*
X85370000Y-65140000D02*
X85370000Y-64140000D01*
%TO.C,J3*%
X123100000Y-112632000D02*
X123100000Y-112132000D01*
X123100000Y-112632000D02*
X123600000Y-112632000D01*
X130400000Y-112632000D02*
X130900000Y-112632000D01*
X130900000Y-112632000D02*
X130900000Y-112132000D01*
X130420000Y-102254000D02*
X130920000Y-102254000D01*
X130920000Y-102254000D02*
X130920000Y-102754000D01*
X123100000Y-102244000D02*
X123600000Y-102244000D01*
X123100000Y-102244000D02*
X123100000Y-102744000D01*
%TO.C,J2*%
X96510000Y-67450000D02*
X96010000Y-67450000D01*
X96510000Y-67450000D02*
X96510000Y-67950000D01*
X88610000Y-67450000D02*
X89110000Y-67450000D01*
X88610000Y-67450000D02*
X88610000Y-67950000D01*
X88610000Y-70250000D02*
X88610000Y-69750000D01*
X88610000Y-70250000D02*
X89110000Y-70250000D01*
X96510000Y-70250000D02*
X96010000Y-70250000D01*
X96510000Y-70250000D02*
X96510000Y-69750000D01*
%TO.C,J1*%
X107350000Y-67450000D02*
X106850000Y-67450000D01*
X107350000Y-67450000D02*
X107350000Y-67950000D01*
X99450000Y-67450000D02*
X99950000Y-67450000D01*
X99450000Y-67450000D02*
X99450000Y-67950000D01*
X99450000Y-70250000D02*
X99450000Y-69750000D01*
X99450000Y-70250000D02*
X99950000Y-70250000D01*
X107350000Y-70250000D02*
X106850000Y-70250000D01*
X107350000Y-70250000D02*
X107350000Y-69750000D01*
%TO.C,IC1*%
X126110000Y-95940000D02*
X126110000Y-99500000D01*
X127890000Y-99500000D02*
X127890000Y-96700000D01*
D13*
%TO.C,A3*%
X91850000Y-91550000D02*
X79020000Y-91550000D01*
X91850000Y-112130000D02*
X91850000Y-91550000D01*
X76350000Y-112130000D02*
X91850000Y-112130000D01*
X76350000Y-94220000D02*
X76350000Y-112130000D01*
X79020000Y-94220000D02*
X76350000Y-94220000D01*
X79020000Y-91550000D02*
X79020000Y-94220000D01*
X76350000Y-91550000D02*
X76350000Y-92950000D01*
X77750000Y-91550000D02*
X76350000Y-91550000D01*
X79020000Y-94220000D02*
X79020000Y-112130000D01*
X89180000Y-91550000D02*
X89180000Y-112130000D01*
%TO.C,A1*%
X108850000Y-91550000D02*
X96020000Y-91550000D01*
X108850000Y-112130000D02*
X108850000Y-91550000D01*
X93350000Y-112130000D02*
X108850000Y-112130000D01*
X93350000Y-94220000D02*
X93350000Y-112130000D01*
X96020000Y-94220000D02*
X93350000Y-94220000D01*
X96020000Y-91550000D02*
X96020000Y-94220000D01*
X93350000Y-91550000D02*
X93350000Y-92950000D01*
X94750000Y-91550000D02*
X93350000Y-91550000D01*
X96020000Y-94220000D02*
X96020000Y-112130000D01*
X106180000Y-91550000D02*
X106180000Y-112130000D01*
%TO.C,A2*%
D12*
X78362666Y-82794285D02*
X78362666Y-82318095D01*
X78648380Y-82889523D02*
X77648380Y-82556190D01*
X78648380Y-82222857D01*
X77743619Y-81937142D02*
X77696000Y-81889523D01*
X77648380Y-81794285D01*
X77648380Y-81556190D01*
X77696000Y-81460952D01*
X77743619Y-81413333D01*
X77838857Y-81365714D01*
X77934095Y-81365714D01*
X78076952Y-81413333D01*
X78648380Y-81984761D01*
X78648380Y-81365714D01*
%TO.C,Q3*%
D17*
X68562339Y-65370518D02*
X68514720Y-65465756D01*
X68419481Y-65560994D01*
X68276624Y-65703851D01*
X68229005Y-65799089D01*
X68229005Y-65894327D01*
X68467100Y-65846708D02*
X68419481Y-65941946D01*
X68324243Y-66037184D01*
X68133767Y-66084803D01*
X67800434Y-66084803D01*
X67609958Y-66037184D01*
X67514720Y-65941946D01*
X67467100Y-65846708D01*
X67467100Y-65656232D01*
X67514720Y-65560994D01*
X67609958Y-65465756D01*
X67800434Y-65418137D01*
X68133767Y-65418137D01*
X68324243Y-65465756D01*
X68419481Y-65560994D01*
X68467100Y-65656232D01*
X68467100Y-65846708D01*
X67467100Y-65084803D02*
X67467100Y-64465756D01*
X67848053Y-64799089D01*
X67848053Y-64656232D01*
X67895672Y-64560994D01*
X67943291Y-64513375D01*
X68038529Y-64465756D01*
X68276624Y-64465756D01*
X68371862Y-64513375D01*
X68419481Y-64560994D01*
X68467100Y-64656232D01*
X68467100Y-64941946D01*
X68419481Y-65037184D01*
X68371862Y-65084803D01*
%TO.C,R4*%
D12*
X118893333Y-67952380D02*
X118560000Y-67476190D01*
X118321904Y-67952380D02*
X118321904Y-66952380D01*
X118702857Y-66952380D01*
X118798095Y-67000000D01*
X118845714Y-67047619D01*
X118893333Y-67142857D01*
X118893333Y-67285714D01*
X118845714Y-67380952D01*
X118798095Y-67428571D01*
X118702857Y-67476190D01*
X118321904Y-67476190D01*
X119750476Y-67285714D02*
X119750476Y-67952380D01*
X119512380Y-66904761D02*
X119274285Y-67619047D01*
X119893333Y-67619047D01*
%TO.C,R3*%
X118893333Y-70752380D02*
X118560000Y-70276190D01*
X118321904Y-70752380D02*
X118321904Y-69752380D01*
X118702857Y-69752380D01*
X118798095Y-69800000D01*
X118845714Y-69847619D01*
X118893333Y-69942857D01*
X118893333Y-70085714D01*
X118845714Y-70180952D01*
X118798095Y-70228571D01*
X118702857Y-70276190D01*
X118321904Y-70276190D01*
X119226666Y-69752380D02*
X119845714Y-69752380D01*
X119512380Y-70133333D01*
X119655238Y-70133333D01*
X119750476Y-70180952D01*
X119798095Y-70228571D01*
X119845714Y-70323809D01*
X119845714Y-70561904D01*
X119798095Y-70657142D01*
X119750476Y-70704761D01*
X119655238Y-70752380D01*
X119369523Y-70752380D01*
X119274285Y-70704761D01*
X119226666Y-70657142D01*
%TO.C,R2*%
X111493333Y-70752380D02*
X111160000Y-70276190D01*
X110921904Y-70752380D02*
X110921904Y-69752380D01*
X111302857Y-69752380D01*
X111398095Y-69800000D01*
X111445714Y-69847619D01*
X111493333Y-69942857D01*
X111493333Y-70085714D01*
X111445714Y-70180952D01*
X111398095Y-70228571D01*
X111302857Y-70276190D01*
X110921904Y-70276190D01*
X111874285Y-69847619D02*
X111921904Y-69800000D01*
X112017142Y-69752380D01*
X112255238Y-69752380D01*
X112350476Y-69800000D01*
X112398095Y-69847619D01*
X112445714Y-69942857D01*
X112445714Y-70038095D01*
X112398095Y-70180952D01*
X111826666Y-70752380D01*
X112445714Y-70752380D01*
%TO.C,R1*%
X111523333Y-67952380D02*
X111190000Y-67476190D01*
X110951904Y-67952380D02*
X110951904Y-66952380D01*
X111332857Y-66952380D01*
X111428095Y-67000000D01*
X111475714Y-67047619D01*
X111523333Y-67142857D01*
X111523333Y-67285714D01*
X111475714Y-67380952D01*
X111428095Y-67428571D01*
X111332857Y-67476190D01*
X110951904Y-67476190D01*
X112475714Y-67952380D02*
X111904285Y-67952380D01*
X112190000Y-67952380D02*
X112190000Y-66952380D01*
X112094761Y-67095238D01*
X111999523Y-67190476D01*
X111904285Y-67238095D01*
%TO.C,R6*%
X124752380Y-80938666D02*
X124276190Y-81272000D01*
X124752380Y-81510095D02*
X123752380Y-81510095D01*
X123752380Y-81129142D01*
X123800000Y-81033904D01*
X123847619Y-80986285D01*
X123942857Y-80938666D01*
X124085714Y-80938666D01*
X124180952Y-80986285D01*
X124228571Y-81033904D01*
X124276190Y-81129142D01*
X124276190Y-81510095D01*
X123752380Y-80081523D02*
X123752380Y-80272000D01*
X123800000Y-80367238D01*
X123847619Y-80414857D01*
X123990476Y-80510095D01*
X124180952Y-80557714D01*
X124561904Y-80557714D01*
X124657142Y-80510095D01*
X124704761Y-80462476D01*
X124752380Y-80367238D01*
X124752380Y-80176761D01*
X124704761Y-80081523D01*
X124657142Y-80033904D01*
X124561904Y-79986285D01*
X124323809Y-79986285D01*
X124228571Y-80033904D01*
X124180952Y-80081523D01*
X124133333Y-80176761D01*
X124133333Y-80367238D01*
X124180952Y-80462476D01*
X124228571Y-80510095D01*
X124323809Y-80557714D01*
%TO.C,R5*%
X127652380Y-80926666D02*
X127176190Y-81260000D01*
X127652380Y-81498095D02*
X126652380Y-81498095D01*
X126652380Y-81117142D01*
X126700000Y-81021904D01*
X126747619Y-80974285D01*
X126842857Y-80926666D01*
X126985714Y-80926666D01*
X127080952Y-80974285D01*
X127128571Y-81021904D01*
X127176190Y-81117142D01*
X127176190Y-81498095D01*
X126652380Y-80021904D02*
X126652380Y-80498095D01*
X127128571Y-80545714D01*
X127080952Y-80498095D01*
X127033333Y-80402857D01*
X127033333Y-80164761D01*
X127080952Y-80069523D01*
X127128571Y-80021904D01*
X127223809Y-79974285D01*
X127461904Y-79974285D01*
X127557142Y-80021904D01*
X127604761Y-80069523D01*
X127652380Y-80164761D01*
X127652380Y-80402857D01*
X127604761Y-80498095D01*
X127557142Y-80545714D01*
%TO.C,U3*%
X125188095Y-85252380D02*
X125188095Y-86061904D01*
X125235714Y-86157142D01*
X125283333Y-86204761D01*
X125378571Y-86252380D01*
X125569047Y-86252380D01*
X125664285Y-86204761D01*
X125711904Y-86157142D01*
X125759523Y-86061904D01*
X125759523Y-85252380D01*
X126140476Y-85252380D02*
X126759523Y-85252380D01*
X126426190Y-85633333D01*
X126569047Y-85633333D01*
X126664285Y-85680952D01*
X126711904Y-85728571D01*
X126759523Y-85823809D01*
X126759523Y-86061904D01*
X126711904Y-86157142D01*
X126664285Y-86204761D01*
X126569047Y-86252380D01*
X126283333Y-86252380D01*
X126188095Y-86204761D01*
X126140476Y-86157142D01*
%TO.C,U2*%
X116448095Y-93514380D02*
X116448095Y-94323904D01*
X116495714Y-94419142D01*
X116543333Y-94466761D01*
X116638571Y-94514380D01*
X116829047Y-94514380D01*
X116924285Y-94466761D01*
X116971904Y-94419142D01*
X117019523Y-94323904D01*
X117019523Y-93514380D01*
X117448095Y-93609619D02*
X117495714Y-93562000D01*
X117590952Y-93514380D01*
X117829047Y-93514380D01*
X117924285Y-93562000D01*
X117971904Y-93609619D01*
X118019523Y-93704857D01*
X118019523Y-93800095D01*
X117971904Y-93942952D01*
X117400476Y-94514380D01*
X118019523Y-94514380D01*
%TO.C,Q2*%
X127887619Y-71735238D02*
X127840000Y-71830476D01*
X127744761Y-71925714D01*
X127601904Y-72068571D01*
X127554285Y-72163809D01*
X127554285Y-72259047D01*
X127792380Y-72211428D02*
X127744761Y-72306666D01*
X127649523Y-72401904D01*
X127459047Y-72449523D01*
X127125714Y-72449523D01*
X126935238Y-72401904D01*
X126840000Y-72306666D01*
X126792380Y-72211428D01*
X126792380Y-72020952D01*
X126840000Y-71925714D01*
X126935238Y-71830476D01*
X127125714Y-71782857D01*
X127459047Y-71782857D01*
X127649523Y-71830476D01*
X127744761Y-71925714D01*
X127792380Y-72020952D01*
X127792380Y-72211428D01*
X126887619Y-71401904D02*
X126840000Y-71354285D01*
X126792380Y-71259047D01*
X126792380Y-71020952D01*
X126840000Y-70925714D01*
X126887619Y-70878095D01*
X126982857Y-70830476D01*
X127078095Y-70830476D01*
X127220952Y-70878095D01*
X127792380Y-71449523D01*
X127792380Y-70830476D01*
%TO.C,Q1*%
X125888761Y-94225619D02*
X125793523Y-94178000D01*
X125698285Y-94082761D01*
X125555428Y-93939904D01*
X125460190Y-93892285D01*
X125364952Y-93892285D01*
X125412571Y-94130380D02*
X125317333Y-94082761D01*
X125222095Y-93987523D01*
X125174476Y-93797047D01*
X125174476Y-93463714D01*
X125222095Y-93273238D01*
X125317333Y-93178000D01*
X125412571Y-93130380D01*
X125603047Y-93130380D01*
X125698285Y-93178000D01*
X125793523Y-93273238D01*
X125841142Y-93463714D01*
X125841142Y-93797047D01*
X125793523Y-93987523D01*
X125698285Y-94082761D01*
X125603047Y-94130380D01*
X125412571Y-94130380D01*
X126793523Y-94130380D02*
X126222095Y-94130380D01*
X126507809Y-94130380D02*
X126507809Y-93130380D01*
X126412571Y-93273238D01*
X126317333Y-93368476D01*
X126222095Y-93416095D01*
%TO.C,J9*%
X67682380Y-78729333D02*
X68396666Y-78729333D01*
X68539523Y-78776952D01*
X68634761Y-78872190D01*
X68682380Y-79015047D01*
X68682380Y-79110285D01*
X68682380Y-78205523D02*
X68682380Y-78015047D01*
X68634761Y-77919809D01*
X68587142Y-77872190D01*
X68444285Y-77776952D01*
X68253809Y-77729333D01*
X67872857Y-77729333D01*
X67777619Y-77776952D01*
X67730000Y-77824571D01*
X67682380Y-77919809D01*
X67682380Y-78110285D01*
X67730000Y-78205523D01*
X67777619Y-78253142D01*
X67872857Y-78300761D01*
X68110952Y-78300761D01*
X68206190Y-78253142D01*
X68253809Y-78205523D01*
X68301428Y-78110285D01*
X68301428Y-77919809D01*
X68253809Y-77824571D01*
X68206190Y-77776952D01*
X68110952Y-77729333D01*
%TO.C,J8*%
X95910666Y-63946380D02*
X95910666Y-64660666D01*
X95863047Y-64803523D01*
X95767809Y-64898761D01*
X95624952Y-64946380D01*
X95529714Y-64946380D01*
X96529714Y-64374952D02*
X96434476Y-64327333D01*
X96386857Y-64279714D01*
X96339238Y-64184476D01*
X96339238Y-64136857D01*
X96386857Y-64041619D01*
X96434476Y-63994000D01*
X96529714Y-63946380D01*
X96720190Y-63946380D01*
X96815428Y-63994000D01*
X96863047Y-64041619D01*
X96910666Y-64136857D01*
X96910666Y-64184476D01*
X96863047Y-64279714D01*
X96815428Y-64327333D01*
X96720190Y-64374952D01*
X96529714Y-64374952D01*
X96434476Y-64422571D01*
X96386857Y-64470190D01*
X96339238Y-64565428D01*
X96339238Y-64755904D01*
X96386857Y-64851142D01*
X96434476Y-64898761D01*
X96529714Y-64946380D01*
X96720190Y-64946380D01*
X96815428Y-64898761D01*
X96863047Y-64851142D01*
X96910666Y-64755904D01*
X96910666Y-64565428D01*
X96863047Y-64470190D01*
X96815428Y-64422571D01*
X96720190Y-64374952D01*
%TO.C,J7*%
X67682380Y-99059333D02*
X68396666Y-99059333D01*
X68539523Y-99106952D01*
X68634761Y-99202190D01*
X68682380Y-99345047D01*
X68682380Y-99440285D01*
X67682380Y-98678380D02*
X67682380Y-98011714D01*
X68682380Y-98440285D01*
%TO.C,J6*%
X121372666Y-63946380D02*
X121372666Y-64660666D01*
X121325047Y-64803523D01*
X121229809Y-64898761D01*
X121086952Y-64946380D01*
X120991714Y-64946380D01*
X122277428Y-63946380D02*
X122086952Y-63946380D01*
X121991714Y-63994000D01*
X121944095Y-64041619D01*
X121848857Y-64184476D01*
X121801238Y-64374952D01*
X121801238Y-64755904D01*
X121848857Y-64851142D01*
X121896476Y-64898761D01*
X121991714Y-64946380D01*
X122182190Y-64946380D01*
X122277428Y-64898761D01*
X122325047Y-64851142D01*
X122372666Y-64755904D01*
X122372666Y-64517809D01*
X122325047Y-64422571D01*
X122277428Y-64374952D01*
X122182190Y-64327333D01*
X121991714Y-64327333D01*
X121896476Y-64374952D01*
X121848857Y-64422571D01*
X121801238Y-64517809D01*
%TO.C,J5*%
X111166666Y-64052380D02*
X111166666Y-64766666D01*
X111119047Y-64909523D01*
X111023809Y-65004761D01*
X110880952Y-65052380D01*
X110785714Y-65052380D01*
X112119047Y-64052380D02*
X111642857Y-64052380D01*
X111595238Y-64528571D01*
X111642857Y-64480952D01*
X111738095Y-64433333D01*
X111976190Y-64433333D01*
X112071428Y-64480952D01*
X112119047Y-64528571D01*
X112166666Y-64623809D01*
X112166666Y-64861904D01*
X112119047Y-64957142D01*
X112071428Y-65004761D01*
X111976190Y-65052380D01*
X111738095Y-65052380D01*
X111642857Y-65004761D01*
X111595238Y-64957142D01*
%TO.C,J4*%
X80436666Y-58694380D02*
X80436666Y-59408666D01*
X80389047Y-59551523D01*
X80293809Y-59646761D01*
X80150952Y-59694380D01*
X80055714Y-59694380D01*
X81341428Y-59027714D02*
X81341428Y-59694380D01*
X81103333Y-58646761D02*
X80865238Y-59361047D01*
X81484285Y-59361047D01*
%TO.C,J3*%
X123912380Y-107521333D02*
X124626666Y-107521333D01*
X124769523Y-107568952D01*
X124864761Y-107664190D01*
X124912380Y-107807047D01*
X124912380Y-107902285D01*
X123912380Y-107140380D02*
X123912380Y-106521333D01*
X124293333Y-106854666D01*
X124293333Y-106711809D01*
X124340952Y-106616571D01*
X124388571Y-106568952D01*
X124483809Y-106521333D01*
X124721904Y-106521333D01*
X124817142Y-106568952D01*
X124864761Y-106616571D01*
X124912380Y-106711809D01*
X124912380Y-106997523D01*
X124864761Y-107092761D01*
X124817142Y-107140380D01*
%TO.C,J2*%
X86882666Y-68302380D02*
X86882666Y-69016666D01*
X86835047Y-69159523D01*
X86739809Y-69254761D01*
X86596952Y-69302380D01*
X86501714Y-69302380D01*
X87311238Y-68397619D02*
X87358857Y-68350000D01*
X87454095Y-68302380D01*
X87692190Y-68302380D01*
X87787428Y-68350000D01*
X87835047Y-68397619D01*
X87882666Y-68492857D01*
X87882666Y-68588095D01*
X87835047Y-68730952D01*
X87263619Y-69302380D01*
X87882666Y-69302380D01*
%TO.C,J1*%
X97976666Y-68302380D02*
X97976666Y-69016666D01*
X97929047Y-69159523D01*
X97833809Y-69254761D01*
X97690952Y-69302380D01*
X97595714Y-69302380D01*
X98976666Y-69302380D02*
X98405238Y-69302380D01*
X98690952Y-69302380D02*
X98690952Y-68302380D01*
X98595714Y-68445238D01*
X98500476Y-68540476D01*
X98405238Y-68588095D01*
%TO.C,IC1*%
D18*
X127574523Y-99339761D02*
X126304523Y-99339761D01*
X127453571Y-98009285D02*
X127514047Y-98069761D01*
X127574523Y-98251190D01*
X127574523Y-98372142D01*
X127514047Y-98553571D01*
X127393095Y-98674523D01*
X127272142Y-98735000D01*
X127030238Y-98795476D01*
X126848809Y-98795476D01*
X126606904Y-98735000D01*
X126485952Y-98674523D01*
X126365000Y-98553571D01*
X126304523Y-98372142D01*
X126304523Y-98251190D01*
X126365000Y-98069761D01*
X126425476Y-98009285D01*
X127574523Y-96799761D02*
X127574523Y-97525476D01*
X127574523Y-97162619D02*
X126304523Y-97162619D01*
X126485952Y-97283571D01*
X126606904Y-97404523D01*
X126667380Y-97525476D01*
%TO.C,C2*%
D12*
X111135142Y-106518666D02*
X111182761Y-106566285D01*
X111230380Y-106709142D01*
X111230380Y-106804380D01*
X111182761Y-106947238D01*
X111087523Y-107042476D01*
X110992285Y-107090095D01*
X110801809Y-107137714D01*
X110658952Y-107137714D01*
X110468476Y-107090095D01*
X110373238Y-107042476D01*
X110278000Y-106947238D01*
X110230380Y-106804380D01*
X110230380Y-106709142D01*
X110278000Y-106566285D01*
X110325619Y-106518666D01*
X110325619Y-106137714D02*
X110278000Y-106090095D01*
X110230380Y-105994857D01*
X110230380Y-105756761D01*
X110278000Y-105661523D01*
X110325619Y-105613904D01*
X110420857Y-105566285D01*
X110516095Y-105566285D01*
X110658952Y-105613904D01*
X111230380Y-106185333D01*
X111230380Y-105566285D01*
%TO.C,C1*%
X124235142Y-100806666D02*
X124282761Y-100854285D01*
X124330380Y-100997142D01*
X124330380Y-101092380D01*
X124282761Y-101235238D01*
X124187523Y-101330476D01*
X124092285Y-101378095D01*
X123901809Y-101425714D01*
X123758952Y-101425714D01*
X123568476Y-101378095D01*
X123473238Y-101330476D01*
X123378000Y-101235238D01*
X123330380Y-101092380D01*
X123330380Y-100997142D01*
X123378000Y-100854285D01*
X123425619Y-100806666D01*
X124330380Y-99854285D02*
X124330380Y-100425714D01*
X124330380Y-100140000D02*
X123330380Y-100140000D01*
X123473238Y-100235238D01*
X123568476Y-100330476D01*
X123616095Y-100425714D01*
%TO.C,A3*%
X83385714Y-93052666D02*
X83861904Y-93052666D01*
X83290476Y-93338380D02*
X83623809Y-92338380D01*
X83957142Y-93338380D01*
X84195238Y-92338380D02*
X84814285Y-92338380D01*
X84480952Y-92719333D01*
X84623809Y-92719333D01*
X84719047Y-92766952D01*
X84766666Y-92814571D01*
X84814285Y-92909809D01*
X84814285Y-93147904D01*
X84766666Y-93243142D01*
X84719047Y-93290761D01*
X84623809Y-93338380D01*
X84338095Y-93338380D01*
X84242857Y-93290761D01*
X84195238Y-93243142D01*
%TO.C,A1*%
X100385714Y-93116666D02*
X100861904Y-93116666D01*
X100290476Y-93402380D02*
X100623809Y-92402380D01*
X100957142Y-93402380D01*
X101814285Y-93402380D02*
X101242857Y-93402380D01*
X101528571Y-93402380D02*
X101528571Y-92402380D01*
X101433333Y-92545238D01*
X101338095Y-92640476D01*
X101242857Y-92688095D01*
%TD*%
M02*
