M48
; DRILL file {KiCad (5.1.9-0-10_14)} date Saturday, April 17, 2021 at 11:12:18 PM
; FORMAT={-:-/ absolute / metric / decimal}
; #@! TF.CreationDate,2021-04-17T23:12:18-04:00
; #@! TF.GenerationSoftware,Kicad,Pcbnew,(5.1.9-0-10_14)
; #@! TF.FileFunction,Plated,1,2,PTH
FMAT,2
METRIC
T1C0.700
T2C0.750
T3C0.762
T4C0.800
T5C1.000
T6C1.100
T7C1.300
T8C1.340
T9C3.200
%
G90
G05
T1
X109.12Y-70.3
X109.15Y-67.5
X114.2Y-70.3
X114.23Y-67.5
X116.52Y-67.5
X116.52Y-70.3
X121.6Y-67.5
X121.6Y-70.3
X124.3Y-78.232
X124.3Y-83.312
X127.2Y-78.22
X127.2Y-83.3
T2
X124.7Y-87.4
X124.714Y-91.9
X125.97Y-87.4
X125.984Y-91.9
X127.24Y-87.4
X127.254Y-91.9
T3
X110.7Y-108.6
X110.7Y-111.14
X123.952Y-96.0
X123.952Y-98.54
T4
X77.75Y-92.95
X77.75Y-95.49
X77.75Y-98.03
X77.75Y-100.57
X77.75Y-103.11
X77.75Y-105.65
X77.75Y-108.19
X77.75Y-110.73
X90.45Y-92.95
X90.45Y-95.49
X90.45Y-98.03
X90.45Y-100.57
X90.45Y-103.11
X90.45Y-105.65
X90.45Y-108.19
X90.45Y-110.73
X94.75Y-92.95
X94.75Y-95.49
X94.75Y-98.03
X94.75Y-100.57
X94.75Y-103.11
X94.75Y-105.65
X94.75Y-108.19
X94.75Y-110.73
X107.45Y-92.95
X107.45Y-95.49
X107.45Y-98.03
X107.45Y-100.57
X107.45Y-103.11
X107.45Y-105.65
X107.45Y-108.19
X107.45Y-110.73
X113.4Y-93.3
X113.4Y-95.84
X113.4Y-98.38
X113.4Y-100.92
X113.4Y-103.46
X113.4Y-106.0
X113.4Y-108.54
X113.4Y-111.08
X121.02Y-93.3
X121.02Y-95.84
X121.02Y-98.38
X121.02Y-100.92
X121.02Y-103.46
X121.02Y-106.0
X121.02Y-108.54
X121.02Y-111.08
T5
X80.3Y-74.46
X80.3Y-89.7
X82.84Y-74.46
X82.84Y-89.7
X85.38Y-74.46
X85.38Y-89.7
X87.92Y-74.46
X87.92Y-89.7
X90.46Y-74.46
X90.46Y-89.7
X93.0Y-74.46
X93.0Y-89.7
X95.54Y-74.46
X95.54Y-89.7
X96.29Y-78.7
X96.29Y-81.24
X96.29Y-83.78
X96.29Y-86.32
X98.08Y-74.46
X98.08Y-89.7
X100.62Y-74.46
X100.62Y-89.7
X103.16Y-74.46
X103.16Y-89.7
X103.91Y-78.7
X103.91Y-81.24
X103.91Y-83.78
X103.91Y-86.32
X105.7Y-74.46
X105.7Y-89.7
X108.24Y-74.46
X108.24Y-89.7
X110.78Y-74.46
X110.78Y-89.7
X113.32Y-74.46
X113.32Y-89.7
X115.86Y-74.46
X115.86Y-89.7
T6
X90.01Y-68.85
X92.55Y-68.85
X95.09Y-68.85
X100.85Y-68.85
X103.39Y-68.85
X105.93Y-68.85
X124.8Y-69.1
X124.8Y-71.64
X124.8Y-74.18
T7
X70.77Y-71.03
X70.77Y-76.11
X70.77Y-81.19
X70.77Y-86.27
X70.77Y-91.36
X70.77Y-96.44
X70.77Y-101.52
X70.77Y-106.6
X88.37Y-61.7
X93.45Y-61.7
X98.53Y-61.7
X103.61Y-61.7
X108.7Y-61.7
X113.78Y-61.7
X119.42Y-61.7
X124.5Y-61.7
X127.0Y-104.902
X127.0Y-109.982
T8
X71.95Y-60.57
X71.95Y-63.11
X71.95Y-65.65
T9
X69.65Y-112.5
X130.55Y-60.45
T5
G00X76.07Y-67.39
M15
G01X76.07Y-69.89
M16
G05
G00X79.52Y-65.64
M15
G01X82.02Y-65.64
M16
G05
G00X79.52Y-71.64
M15
G01X82.02Y-71.64
M16
G05
T0
M30
